<?xml version="1.0" encoding="utf-8"?>
<!-- Generator: Adobe Illustrator 23.0.1, SVG Export Plug-In . SVG Version: 6.00 Build 0)  -->
<svg version="1.1"
	 id="svg8" xmlns:cc="http://creativecommons.org/ns#" xmlns:dc="http://purl.org/dc/elements/1.1/" xmlns:inkscape="http://www.inkscape.org/namespaces/inkscape" xmlns:rdf="http://www.w3.org/1999/02/22-rdf-syntax-ns#" xmlns:sodipodi="http://sodipodi.sourceforge.net/DTD/sodipodi-0.dtd" xmlns:svg="http://www.w3.org/2000/svg"
	 xmlns="http://www.w3.org/2000/svg" xmlns:xlink="http://www.w3.org/1999/xlink" x="0px" y="0px" viewBox="0 0 97.9 92"
	 style="enable-background:new 0 0 97.9 92;" xml:space="preserve">
<style type="text/css">
	.st0{display:none;}
	.st1{opacity:0.706;}
	.st2{enable-background:new    ;}
	.st3{fill:#6D6D6D;}
	.st4{fill-rule:evenodd;clip-rule:evenodd;fill:#6D6D6D;}
	.st5{fill:none;stroke:#6D6D6D;stroke-width:0.2646;stroke-linecap:round;}
	.st6{fill:#FFFFFF;}
	.st7{fill-rule:evenodd;clip-rule:evenodd;fill:#FFFFFF;}
	.st8{fill:none;stroke:#FFFFFF;stroke-width:0.2646;stroke-linecap:round;}
	.st9{fill:#686767;}
	.st10{font-family:'MicrosoftSansSerif';}
	.st11{font-size:24px;}
</style>
<defs>
	
	<inkscape:path-effect  effect="spiro" id="path-effect1188" is_visible="true"></inkscape:path-effect>
	
		<inkscape:path-effect  effect="lattice2" gridpoint0="39.202684,26.62254" gridpoint1="43.862258,26.62254" gridpoint10x11="41.532471,31.360116" gridpoint12="39.202684,27.806934" gridpoint13="43.862258,27.806934" gridpoint14="39.202684,30.175722" gridpoint15="43.862258,30.175722" gridpoint16="40.367577,27.806934" gridpoint17="42.697364,27.806934" gridpoint18="40.367577,30.175722" gridpoint19="42.697364,30.175722" gridpoint2="39.202684,31.360116" gridpoint20x21="41.532471,27.806934" gridpoint22x23="41.532471,30.175722" gridpoint24x26="39.202684,28.991328" gridpoint25x27="43.862258,28.991328" gridpoint28x30="40.367577,28.991328" gridpoint29x31="42.697364,28.991328" gridpoint3="43.862258,31.360116" gridpoint32x33x34x35="41.532471,28.991328" gridpoint4="40.367577,26.62254" gridpoint5="42.697364,26.62254" gridpoint6="40.367577,31.360116" gridpoint7="42.697364,31.360116" gridpoint8x9="41.532471,26.62254" horizontal_mirror="false" id="path-effect4650" is_visible="true" live_update="true" vertical_mirror="false">
		</inkscape:path-effect>
	
		<inkscape:path-effect  add_other_stroke_width="true" add_stroke_width="true" crossing_points_vector="" effect="knot" id="path-effect4648" interruption_width="5.1" is_visible="true" prop_to_stroke_width="true" switcher_size="19.1">
		</inkscape:path-effect>
	
		<inkscape:path-effect  bendpath1="m 39.202684,26.62254 h 8.8171" bendpath1-nodetypes="cc" bendpath2="M 43.862258,26.62254 V 36.1082" bendpath2-nodetypes="cc" bendpath3="m 33.509708,31.360116 h 10.35255" bendpath3-nodetypes="cc" bendpath4="m 39.202684,22.134302 v 9.225814" bendpath4-nodetypes="cc" effect="envelope" id="path-effect4644" is_visible="true" xx="true" yy="true">
		</inkscape:path-effect>
	
		<inkscape:path-effect  bendpath="M 39.202684,28.991328 48.421363,28.09368" bendpath-nodetypes="cc" effect="bend_path" id="path-effect939" is_visible="true" prop_scale="1.1118497" scale_y_rel="false" vertical="false">
		</inkscape:path-effect>
	<inkscape:path-effect  effect="spiro" id="path-effect1188-3" is_visible="true"></inkscape:path-effect>
	
		<inkscape:path-effect  effect="lattice2" gridpoint0="39.202684,26.62254" gridpoint1="43.862258,26.62254" gridpoint10x11="41.532471,31.360116" gridpoint12="39.202684,27.806934" gridpoint13="43.862258,27.806934" gridpoint14="39.202684,30.175722" gridpoint15="43.862258,30.175722" gridpoint16="40.367577,27.806934" gridpoint17="42.697364,27.806934" gridpoint18="40.367577,30.175722" gridpoint19="42.697364,30.175722" gridpoint2="39.202684,31.360116" gridpoint20x21="41.532471,27.806934" gridpoint22x23="41.532471,30.175722" gridpoint24x26="39.202684,28.991328" gridpoint25x27="43.862258,28.991328" gridpoint28x30="40.367577,28.991328" gridpoint29x31="42.697364,28.991328" gridpoint3="43.862258,31.360116" gridpoint32x33x34x35="41.532471,28.991328" gridpoint4="40.367577,26.62254" gridpoint5="42.697364,26.62254" gridpoint6="40.367577,31.360116" gridpoint7="42.697364,31.360116" gridpoint8x9="41.532471,26.62254" horizontal_mirror="false" id="path-effect4650-8" is_visible="true" live_update="true" vertical_mirror="false">
		</inkscape:path-effect>
	
		<inkscape:path-effect  add_other_stroke_width="true" add_stroke_width="true" crossing_points_vector="" effect="knot" id="path-effect4648-6" interruption_width="5.1" is_visible="true" prop_to_stroke_width="true" switcher_size="19.1">
		</inkscape:path-effect>
	
		<inkscape:path-effect  bendpath1="m 39.202684,26.62254 h 8.8171" bendpath1-nodetypes="cc" bendpath2="M 43.862258,26.62254 V 36.1082" bendpath2-nodetypes="cc" bendpath3="m 33.509708,31.360116 h 10.35255" bendpath3-nodetypes="cc" bendpath4="m 39.202684,22.134302 0,9.225814" bendpath4-nodetypes="cc" effect="envelope" id="path-effect4644-9" is_visible="true" xx="true" yy="true">
		</inkscape:path-effect>
	
		<inkscape:path-effect  bendpath="M 39.202684,28.991328 48.421363,28.09368" bendpath-nodetypes="cc" effect="bend_path" id="path-effect939-8" is_visible="true" prop_scale="1.1118497" scale_y_rel="false" vertical="false">
		</inkscape:path-effect>
</defs>
<sodipodi:namedview  bordercolor="#666666" borderopacity="1.0" fit-margin-bottom="0" fit-margin-left="0" fit-margin-right="0" fit-margin-top="0" id="base" inkscape:bbox-nodes="true" inkscape:bbox-paths="true" inkscape:current-layer="layer5" inkscape:cx="94.796507" inkscape:cy="98.508818" inkscape:deskcolor="#d1d1d1" inkscape:document-units="px" inkscape:object-paths="true" inkscape:pagecheckerboard="0" inkscape:pageopacity="0.0" inkscape:pageshadow="2" inkscape:showpageshadow="2" inkscape:snap-bbox="true" inkscape:snap-bbox-edge-midpoints="true" inkscape:snap-bbox-midpoints="true" inkscape:snap-center="false" inkscape:snap-global="true" inkscape:snap-grids="true" inkscape:snap-intersection-paths="true" inkscape:snap-midpoints="true" inkscape:snap-nodes="true" inkscape:snap-object-midpoints="true" inkscape:snap-page="true" inkscape:snap-smooth-nodes="true" inkscape:window-height="1369" inkscape:window-maximized="1" inkscape:window-width="2560" inkscape:window-x="1912" inkscape:window-y="-8" inkscape:zoom="11.313708" pagecolor="#ffffff" showgrid="false" showguides="false" units="px">
	<inkscape:grid  id="grid1933" originx="0" originy="-211.4102" spacingx="1" spacingy="1" type="xygrid" units="px">
		</inkscape:grid>
	
		<inkscape:grid  color="#ff483f" empcolor="#ff3f54" empopacity="0.25098039" enabled="false" id="grid2430" opacity="0.1254902" originx="0" originy="-211.4102" spacingx="0.13229167" spacingy="0.13229167" type="xygrid" units="px">
		</inkscape:grid>
</sodipodi:namedview>
<g id="layer4" transform="translate(0,-61.256241)" inkscape:groupmode="layer" inkscape:label="background" sodipodi:insensitive="true" class="st0">
</g>
<g id="layer9" transform="translate(0,-61.256241)" inkscape:groupmode="layer" inkscape:label="boundaries" class="st0">
</g>
<g id="layer2" transform="translate(0,-61.256241)" inkscape:groupmode="layer" inkscape:label="old_images" sodipodi:insensitive="true">
</g>
<g id="layer3" transform="translate(0,-61.256241)" inkscape:groupmode="layer" inkscape:label="documentation" sodipodi:insensitive="true">
	<text transform="matrix(1 0 0 1 138.4082 84.8969)" style="font-family:'ArialMT'; font-size:15.2008px;">Made with Inkscape, Export with 480dpi</text>
	<text transform="matrix(1 0 0 1 135.7852 52.5863)" style="font-family:'Arial-BoldMT'; font-size:29.3333px;">Notes:</text>
	<text transform="matrix(1 0 0 1 136.7676 115.6078)" style="font-family:'ArialMT'; font-size:15.2008px;">Following guidelines explained on Stellarium/data/gui/icons.svg</text>
</g>
<g id="layer11" transform="translate(0,-61.256241)" inkscape:groupmode="layer" inkscape:label="shadows" sodipodi:insensitive="true" class="st1">
</g>
<g id="layer10" transform="translate(0,-61.256241)" inkscape:groupmode="layer" inkscape:label="glows" sodipodi:insensitive="true">
</g>
<g id="layer5" transform="translate(0,-61.256241)" inkscape:groupmode="layer" inkscape:label="icons">
	<g id="g13" transform="translate(-170.83386,3.1348446)" sodipodi:insensitive="true" class="st2">
		
			<path id="path16" inkscape:flatsided="false" inkscape:randomized="0" inkscape:rounded="0" inkscape:transform-center-x="1.2284623e-06" inkscape:transform-center-y="-0.12102466" sodipodi:arg1="-1.5707963" sodipodi:arg2="-0.94247777" sodipodi:cx="193.36253" sodipodi:cy="77.389687" sodipodi:r1="1.2673784" sodipodi:r2="0.48420247" sodipodi:sides="5" sodipodi:type="star" class="st3" d="
			M256,84.2l1.1,3.3l3.5,0l-2.8,2l1.1,3.3l-2.8-2l-2.8,2l1.1-3.3l-2.8-2l3.5,0L256,84.2z"/>
		<path id="path15" inkscape:connector-curvature="0" class="st4" d="M244.7,81.5c-0.7,0-1.3,0.1-2,0.3c-1.6,0.4-3.3,1.6-4.5,3
			l6.7,11.6c0.8-0.8,1.3-1.9,1.2-3.3c1,1.7,0.7,3.4-0.3,4.8l0.6,1.1c0.3-0.3,0.6-0.6,0.9-0.9c2.4-2.8,3.1-9.1-1.5-10.2
			c4.4-0.9,6.7,4.6,6.2,8.1c0.7-2.6,0.4-5.4-1-7.7c-2-3.1-7.7-5.7-10.2-1.7c0.4-3.4,3.9-4.5,6.9-4.1l-0.4-0.6
			C246.5,81.6,245.6,81.4,244.7,81.5L244.7,81.5z M248.9,82.3l-0.4,0.2c0.7,0.1,1.3,0.3,1.9,0.6C249.9,82.8,249.4,82.5,248.9,82.3
			L248.9,82.3z"/>
		<path id="path14" inkscape:connector-curvature="0" class="st5" d="M237.5,83.5l9.3,16.2l16.2-9.3l-4.7-8.1l-4,2.3l-2.3-4l-4,2.3
			l-2.3-4L237.5,83.5z"/>
	</g>
	<g id="g11" transform="translate(-179.30053,13.189011)" class="st2">
		
			<path id="path13" inkscape:flatsided="false" inkscape:randomized="0" inkscape:rounded="0" inkscape:transform-center-x="1.2284623e-06" inkscape:transform-center-y="-0.12102466" sodipodi:arg1="-1.5707963" sodipodi:arg2="-0.94247777" sodipodi:cx="201.82919" sodipodi:cy="77.389687" sodipodi:r1="1.2673784" sodipodi:r2="0.48420247" sodipodi:sides="5" sodipodi:type="star" class="st6" d="
			M264.4,112.1l1.1,3.3l3.5,0l-2.8,2l1.1,3.3l-2.8-2l-2.8,2l1.1-3.3l-2.8-2l3.5,0L264.4,112.1z"/>
		<path id="path12" inkscape:connector-curvature="0" class="st7" d="M253.2,109.4c-0.7,0-1.3,0.1-2,0.3c-1.6,0.4-3.3,1.6-4.5,3
			l6.7,11.6c0.8-0.8,1.3-1.9,1.2-3.3c1,1.7,0.7,3.4-0.3,4.8l0.6,1.1c0.3-0.3,0.6-0.6,0.9-0.9c2.4-2.8,3.1-9.1-1.5-10.2
			c4.4-0.9,6.7,4.6,6.2,8.1c0.7-2.6,0.4-5.4-1-7.7c-2-3.1-7.7-5.7-10.2-1.7c0.4-3.4,3.9-4.5,6.9-4.1l-0.4-0.6
			C254.9,109.5,254.1,109.4,253.2,109.4L253.2,109.4z M257.3,110.3l-0.4,0.2c0.7,0.1,1.3,0.3,1.9,0.6
			C258.4,110.8,257.9,110.5,257.3,110.3L257.3,110.3z"/>
		<path id="path11" inkscape:connector-curvature="0" class="st8" d="M246,111.4l9.3,16.2l16.2-9.3l-4.7-8.1l-4,2.3l-2.3-4l-4,2.3
			l-2.3-4L246,111.4z"/>
	</g>
</g>
<text transform="matrix(1 0 0 1 79.9974 47.3796)" class="st9 st10 st11">∞</text>
<text transform="matrix(1 0 0 1 79.9971 85.4828)" class="st6 st10 st11">∞</text>
</svg>
