<?xml version="1.0" encoding="utf-8"?>
<!-- Generator: Adobe Illustrator 15.1.0, SVG Export Plug-In . SVG Version: 6.00 Build 0)  -->
<!DOCTYPE svg PUBLIC "-//W3C//DTD SVG 1.1//EN" "http://www.w3.org/Graphics/SVG/1.1/DTD/svg11.dtd">
<svg version="1.1" id="Layer_1" xmlns="http://www.w3.org/2000/svg" xmlns:xlink="http://www.w3.org/1999/xlink" x="0px" y="0px"
	 width="72.912px" height="76.333px" viewBox="0 0 72.912 76.333" enable-background="new 0 0 72.912 76.333" xml:space="preserve">
<g>
	<path fill="none" stroke="#FFFFFF" stroke-width="3" stroke-miterlimit="10" d="M50.912,51.294c0,6.326-4.247,11.455-9.485,11.455
		h-9.941C26.247,62.749,22,57.62,22,51.294V25.039c0-6.327,4.247-11.456,9.485-11.456h9.941c5.238,0,9.485,5.129,9.485,11.456
		V51.294z"/>
	<g>
		<g>
			<path fill="none" stroke="#FFFFFF" stroke-width="3" stroke-miterlimit="10" d="M1.5,23.833c0-8.326,4.95-15.484,12.071-18.696"
				/>
			<g>
				<polygon fill="#FFFFFF" points="13.383,11.611 21.992,3.301 10.49,0 				"/>
			</g>
		</g>
	</g>
	<g>
		<g>
			<path fill="none" stroke="#FFFFFF" stroke-width="3" stroke-miterlimit="10" d="M71.412,52.499
				c0,8.326-4.95,15.484-12.071,18.696"/>
			<g>
				<polygon fill="#FFFFFF" points="59.529,64.722 50.92,73.031 62.422,76.333 				"/>
			</g>
		</g>
	</g>
</g>
</svg>
