<?xml version="1.0" encoding="UTF-8"?>
<svg xmlns="http://www.w3.org/2000/svg" xmlns:xlink="http://www.w3.org/1999/xlink" width="16px" height="16px" viewBox="0 0 16 16" version="1.1">
<defs>
<linearGradient id="linear0" gradientUnits="userSpaceOnUse" x1="0" y1="1" x2="0" y2="13" gradientTransform="matrix(1,0,0,-1,0,16)">
<stop offset="0" style="stop-color:rgb(89.117647%,89.160784%,75.2%);stop-opacity:1;"/>
<stop offset="0.875" style="stop-color:rgb(72.156863%,62.745098%,43.137255%);stop-opacity:1;"/>
<stop offset="1" style="stop-color:rgb(87.294118%,77.627451%,51.960784%);stop-opacity:1;"/>
</linearGradient>
</defs>
<g id="surface1">
<path style=" stroke:none;fill-rule:nonzero;fill:rgb(14.117647%,14.117647%,14.117647%);fill-opacity:1;" d="M 0 15 C 0 15.550781 0.449219 16 1 16 L 13 16 C 13.550781 16 14 15.550781 14 15 L 14 3 C 14 2.449219 13.550781 2 13 2 L 1 2 C 0.449219 2 0 2.449219 0 3 Z M 0 15 "/>
<path style=" stroke:none;fill-rule:nonzero;fill:url(#linear0);" d="M 1 15 L 13 15 L 13 3 L 1 3 Z M 1 15 "/>
<path style=" stroke:none;fill-rule:nonzero;fill:rgb(14.117647%,14.117647%,14.117647%);fill-opacity:1;" d="M 5 11 L 9 11 L 9 7 L 5 7 Z M 5 11 "/>
</g>
</svg>
