<?xml version="1.0" encoding="UTF-8"?>
<svg xmlns="http://www.w3.org/2000/svg" xmlns:xlink="http://www.w3.org/1999/xlink" width="16px" height="16px" viewBox="0 0 16 16" version="1.1">
<defs>
<linearGradient id="linear0" gradientUnits="userSpaceOnUse" x1="0" y1="1" x2="0" y2="13" gradientTransform="matrix(1,0,0,-1,0,16)">
<stop offset="0" style="stop-color:rgb(88.941176%,88.529412%,75.239216%);stop-opacity:1;"/>
<stop offset="1" style="stop-color:rgb(71.54902%,61.788235%,41.929412%);stop-opacity:1;"/>
</linearGradient>
</defs>
<g id="surface1">
<path style=" stroke:none;fill-rule:nonzero;fill:rgb(14.117647%,14.117647%,14.117647%);fill-opacity:1;" d="M 14 9 C 14 5.132812 10.867188 2 7 2 C 3.132812 2 0 5.132812 0 9 C 0 12.867188 3.132812 16 7 16 C 10.867188 16 14 12.867188 14 9 "/>
<path style=" stroke:none;fill-rule:nonzero;fill:url(#linear0);" d="M 13 9 C 13 5.6875 10.3125 3 7 3 C 3.6875 3 1 5.6875 1 9 C 1 12.3125 3.6875 15 7 15 C 10.3125 15 13 12.3125 13 9 "/>
<path style=" stroke:none;fill-rule:nonzero;fill:rgb(14.117647%,14.117647%,14.117647%);fill-opacity:1;" d="M 9.5 9 C 9.5 5.667969 4.5 5.667969 4.5 9 C 4.5 12.332031 9.5 12.332031 9.5 9 "/>
</g>
</svg>
