<svg xmlns="http://www.w3.org/2000/svg" xmlns:xlink="http://www.w3.org/1999/xlink" width="100%" height="100%" version="1.1" viewBox="0 0 10000 10000"><desc>This is my interpretation oc the Celestron MicroGuide eyepiece.</desc><g><g><g><line x1="2000" x2="8000" y1="4975" y2="4975" stroke="red" stroke-width="15"/><line x1="2000" x2="2000" y1="4975" y2="4775" stroke="red" stroke-width="15"/><line x1="2100" x2="2100" y1="4975" y2="4875" stroke="red" stroke-width="15"/><line x1="2200" x2="2200" y1="4975" y2="4875" stroke="red" stroke-width="15"/><line x1="2300" x2="2300" y1="4975" y2="4875" stroke="red" stroke-width="15"/><line x1="2400" x2="2400" y1="4975" y2="4875" stroke="red" stroke-width="15"/><line x1="2500" x2="2500" y1="4975" y2="4775" stroke="red" stroke-width="15"/><line x1="2600" x2="2600" y1="4975" y2="4875" stroke="red" stroke-width="15"/><line x1="2700" x2="2700" y1="4975" y2="4875" stroke="red" stroke-width="15"/><line x1="2800" x2="2800" y1="4975" y2="4875" stroke="red" stroke-width="15"/><line x1="2900" x2="2900" y1="4975" y2="4875" stroke="red" stroke-width="15"/><line x1="3000" x2="3000" y1="4975" y2="4775" stroke="red" stroke-width="15"/><line x1="3100" x2="3100" y1="4975" y2="4875" stroke="red" stroke-width="15"/><line x1="3200" x2="3200" y1="4975" y2="4875" stroke="red" stroke-width="15"/><line x1="3300" x2="3300" y1="4975" y2="4875" stroke="red" stroke-width="15"/><line x1="3400" x2="3400" y1="4975" y2="4875" stroke="red" stroke-width="15"/><line x1="3500" x2="3500" y1="4975" y2="4775" stroke="red" stroke-width="15"/><line x1="3600" x2="3600" y1="4975" y2="4875" stroke="red" stroke-width="15"/><line x1="3700" x2="3700" y1="4975" y2="4875" stroke="red" stroke-width="15"/><line x1="3800" x2="3800" y1="4975" y2="4875" stroke="red" stroke-width="15"/><line x1="3900" x2="3900" y1="4975" y2="4875" stroke="red" stroke-width="15"/><line x1="4000" x2="4000" y1="4975" y2="4775" stroke="red" stroke-width="15"/><line x1="4100" x2="4100" y1="4975" y2="4875" stroke="red" stroke-width="15"/><line x1="4200" x2="4200" y1="4975" y2="4875" stroke="red" stroke-width="15"/><line x1="4300" x2="4300" y1="4975" y2="4875" stroke="red" stroke-width="15"/><line x1="4400" x2="4400" y1="4975" y2="4875" stroke="red" stroke-width="15"/><line x1="4500" x2="4500" y1="4975" y2="4775" stroke="red" stroke-width="15"/><line x1="4600" x2="4600" y1="4975" y2="4875" stroke="red" stroke-width="15"/><line x1="4700" x2="4700" y1="4975" y2="4875" stroke="red" stroke-width="15"/><line x1="4800" x2="4800" y1="4975" y2="4875" stroke="red" stroke-width="15"/><line x1="4900" x2="4900" y1="4975" y2="4875" stroke="red" stroke-width="15"/><line x1="5000" x2="5000" y1="4975" y2="4775" stroke="red" stroke-width="15"/><line x1="5100" x2="5100" y1="4975" y2="4875" stroke="red" stroke-width="15"/><line x1="5200" x2="5200" y1="4975" y2="4875" stroke="red" stroke-width="15"/><line x1="5300" x2="5300" y1="4975" y2="4875" stroke="red" stroke-width="15"/><line x1="5400" x2="5400" y1="4975" y2="4875" stroke="red" stroke-width="15"/><line x1="5500" x2="5500" y1="4975" y2="4775" stroke="red" stroke-width="15"/><line x1="5600" x2="5600" y1="4975" y2="4875" stroke="red" stroke-width="15"/><line x1="5700" x2="5700" y1="4975" y2="4875" stroke="red" stroke-width="15"/><line x1="5800" x2="5800" y1="4975" y2="4875" stroke="red" stroke-width="15"/><line x1="5900" x2="5900" y1="4975" y2="4875" stroke="red" stroke-width="15"/><line x1="6000" x2="6000" y1="4975" y2="4775" stroke="red" stroke-width="15"/><line x1="6100" x2="6100" y1="4975" y2="4875" stroke="red" stroke-width="15"/><line x1="6200" x2="6200" y1="4975" y2="4875" stroke="red" stroke-width="15"/><line x1="6300" x2="6300" y1="4975" y2="4875" stroke="red" stroke-width="15"/><line x1="6400" x2="6400" y1="4975" y2="4875" stroke="red" stroke-width="15"/><line x1="6500" x2="6500" y1="4975" y2="4775" stroke="red" stroke-width="15"/><line x1="6600" x2="6600" y1="4975" y2="4875" stroke="red" stroke-width="15"/><line x1="6700" x2="6700" y1="4975" y2="4875" stroke="red" stroke-width="15"/><line x1="6800" x2="6800" y1="4975" y2="4875" stroke="red" stroke-width="15"/><line x1="6900" x2="6900" y1="4975" y2="4875" stroke="red" stroke-width="15"/><line x1="7000" x2="7000" y1="4975" y2="4775" stroke="red" stroke-width="15"/><line x1="7100" x2="7100" y1="4975" y2="4875" stroke="red" stroke-width="15"/><line x1="7200" x2="7200" y1="4975" y2="4875" stroke="red" stroke-width="15"/><line x1="7300" x2="7300" y1="4975" y2="4875" stroke="red" stroke-width="15"/><line x1="7400" x2="7400" y1="4975" y2="4875" stroke="red" stroke-width="15"/><line x1="7500" x2="7500" y1="4975" y2="4775" stroke="red" stroke-width="15"/><line x1="7600" x2="7600" y1="4975" y2="4875" stroke="red" stroke-width="15"/><line x1="7700" x2="7700" y1="4975" y2="4875" stroke="red" stroke-width="15"/><line x1="7800" x2="7800" y1="4975" y2="4875" stroke="red" stroke-width="15"/><line x1="7900" x2="7900" y1="4975" y2="4875" stroke="red" stroke-width="15"/><line x1="8000" x2="8000" y1="4975" y2="4775" stroke="red" stroke-width="15"/></g><g><text fill="red" font-size="100" transform="translate(2050, 4675) rotate(180)">60</text><text fill="red" font-size="100" transform="translate(3050, 4675) rotate(180)">50</text><text fill="red" font-size="100" transform="translate(4050, 4675) rotate(180)">40</text><text fill="red" font-size="100" transform="translate(5050, 4675) rotate(180)">30</text><text fill="red" font-size="100" transform="translate(6050, 4675) rotate(180)">20</text><text fill="red" font-size="100" transform="translate(7050, 4675) rotate(180)">10</text><text fill="red" font-size="100" transform="translate(8025, 4675) rotate(180)">0</text></g></g><g><g><line x1="2000" x2="8000" y1="5025" y2="5025" stroke="red" stroke-width="15"/><line x1="2000" x2="2000" y1="5025" y2="5225" stroke="red" stroke-width="15"/><line x1="2100" x2="2100" y1="5025" y2="5125" stroke="red" stroke-width="15"/><line x1="2200" x2="2200" y1="5025" y2="5125" stroke="red" stroke-width="15"/><line x1="2300" x2="2300" y1="5025" y2="5125" stroke="red" stroke-width="15"/><line x1="2400" x2="2400" y1="5025" y2="5125" stroke="red" stroke-width="15"/><line x1="2500" x2="2500" y1="5025" y2="5225" stroke="red" stroke-width="15"/><line x1="2600" x2="2600" y1="5025" y2="5125" stroke="red" stroke-width="15"/><line x1="2700" x2="2700" y1="5025" y2="5125" stroke="red" stroke-width="15"/><line x1="2800" x2="2800" y1="5025" y2="5125" stroke="red" stroke-width="15"/><line x1="2900" x2="2900" y1="5025" y2="5125" stroke="red" stroke-width="15"/><line x1="3000" x2="3000" y1="5025" y2="5225" stroke="red" stroke-width="15"/><line x1="3100" x2="3100" y1="5025" y2="5125" stroke="red" stroke-width="15"/><line x1="3200" x2="3200" y1="5025" y2="5125" stroke="red" stroke-width="15"/><line x1="3300" x2="3300" y1="5025" y2="5125" stroke="red" stroke-width="15"/><line x1="3400" x2="3400" y1="5025" y2="5125" stroke="red" stroke-width="15"/><line x1="3500" x2="3500" y1="5025" y2="5225" stroke="red" stroke-width="15"/><line x1="3600" x2="3600" y1="5025" y2="5125" stroke="red" stroke-width="15"/><line x1="3700" x2="3700" y1="5025" y2="5125" stroke="red" stroke-width="15"/><line x1="3800" x2="3800" y1="5025" y2="5125" stroke="red" stroke-width="15"/><line x1="3900" x2="3900" y1="5025" y2="5125" stroke="red" stroke-width="15"/><line x1="4000" x2="4000" y1="5025" y2="5225" stroke="red" stroke-width="15"/><line x1="4100" x2="4100" y1="5025" y2="5125" stroke="red" stroke-width="15"/><line x1="4200" x2="4200" y1="5025" y2="5125" stroke="red" stroke-width="15"/><line x1="4300" x2="4300" y1="5025" y2="5125" stroke="red" stroke-width="15"/><line x1="4400" x2="4400" y1="5025" y2="5125" stroke="red" stroke-width="15"/><line x1="4500" x2="4500" y1="5025" y2="5225" stroke="red" stroke-width="15"/><line x1="4600" x2="4600" y1="5025" y2="5125" stroke="red" stroke-width="15"/><line x1="4700" x2="4700" y1="5025" y2="5125" stroke="red" stroke-width="15"/><line x1="4800" x2="4800" y1="5025" y2="5125" stroke="red" stroke-width="15"/><line x1="4900" x2="4900" y1="5025" y2="5125" stroke="red" stroke-width="15"/><line x1="5000" x2="5000" y1="5025" y2="5225" stroke="red" stroke-width="15"/><line x1="5100" x2="5100" y1="5025" y2="5125" stroke="red" stroke-width="15"/><line x1="5200" x2="5200" y1="5025" y2="5125" stroke="red" stroke-width="15"/><line x1="5300" x2="5300" y1="5025" y2="5125" stroke="red" stroke-width="15"/><line x1="5400" x2="5400" y1="5025" y2="5125" stroke="red" stroke-width="15"/><line x1="5500" x2="5500" y1="5025" y2="5225" stroke="red" stroke-width="15"/><line x1="5600" x2="5600" y1="5025" y2="5125" stroke="red" stroke-width="15"/><line x1="5700" x2="5700" y1="5025" y2="5125" stroke="red" stroke-width="15"/><line x1="5800" x2="5800" y1="5025" y2="5125" stroke="red" stroke-width="15"/><line x1="5900" x2="5900" y1="5025" y2="5125" stroke="red" stroke-width="15"/><line x1="6000" x2="6000" y1="5025" y2="5225" stroke="red" stroke-width="15"/><line x1="6100" x2="6100" y1="5025" y2="5125" stroke="red" stroke-width="15"/><line x1="6200" x2="6200" y1="5025" y2="5125" stroke="red" stroke-width="15"/><line x1="6300" x2="6300" y1="5025" y2="5125" stroke="red" stroke-width="15"/><line x1="6400" x2="6400" y1="5025" y2="5125" stroke="red" stroke-width="15"/><line x1="6500" x2="6500" y1="5025" y2="5225" stroke="red" stroke-width="15"/><line x1="6600" x2="6600" y1="5025" y2="5125" stroke="red" stroke-width="15"/><line x1="6700" x2="6700" y1="5025" y2="5125" stroke="red" stroke-width="15"/><line x1="6800" x2="6800" y1="5025" y2="5125" stroke="red" stroke-width="15"/><line x1="6900" x2="6900" y1="5025" y2="5125" stroke="red" stroke-width="15"/><line x1="7000" x2="7000" y1="5025" y2="5225" stroke="red" stroke-width="15"/><line x1="7100" x2="7100" y1="5025" y2="5125" stroke="red" stroke-width="15"/><line x1="7200" x2="7200" y1="5025" y2="5125" stroke="red" stroke-width="15"/><line x1="7300" x2="7300" y1="5025" y2="5125" stroke="red" stroke-width="15"/><line x1="7400" x2="7400" y1="5025" y2="5125" stroke="red" stroke-width="15"/><line x1="7500" x2="7500" y1="5025" y2="5225" stroke="red" stroke-width="15"/><line x1="7600" x2="7600" y1="5025" y2="5125" stroke="red" stroke-width="15"/><line x1="7700" x2="7700" y1="5025" y2="5125" stroke="red" stroke-width="15"/><line x1="7800" x2="7800" y1="5025" y2="5125" stroke="red" stroke-width="15"/><line x1="7900" x2="7900" y1="5025" y2="5125" stroke="red" stroke-width="15"/><line x1="8000" x2="8000" y1="5025" y2="5225" stroke="red" stroke-width="15"/></g><g><text x="1950" y="5325" fill="red" font-size="100">60</text><text x="2950" y="5325" fill="red" font-size="100">50</text><text x="3950" y="5325" fill="red" font-size="100">40</text><text x="4950" y="5325" fill="red" font-size="100">30</text><text x="5950" y="5325" fill="red" font-size="100">20</text><text x="6950" y="5325" fill="red" font-size="100">10</text><text x="7975" y="5325" fill="red" font-size="100">0</text></g></g></g><g><circle cx="5000" cy="6800" r="62.5" fill="none" stroke="red" stroke-width="15"/><circle cx="5000" cy="6800" r="125" fill="none" stroke="red" stroke-width="15"/><circle cx="5000" cy="6800" r="250" fill="none" stroke="red" stroke-width="15"/><circle cx="5000" cy="6800" r="500" fill="none" stroke="red" stroke-width="15"/><circle cx="5000" cy="6800" r="1000" fill="none" stroke="red" stroke-width="15"/><g><line x1="3800" x2="4875" y1="6800" y2="6800" stroke="red" stroke-width="15"/><line x1="5125" x2="6200" y1="6800" y2="6800" stroke="red" stroke-width="15"/></g><g><line x1="5000" x2="5000" y1="5600" y2="6675" stroke="red" stroke-width="15"/><line x1="5000" x2="5000" y1="6925" y2="8000" stroke="red" stroke-width="15"/></g></g><g><circle cx="5000" cy="4300" r="50" fill="none" stroke="red" stroke-width="15"/><path fill="none" stroke="red" stroke-width="15" d="M 2900,4300 A 2100,2100 0 1 1 7100,4300"/><path fill="none" stroke="red" stroke-width="15" d="M 4700,4300 A 300,300 0 1 1 5300,4300"/><g><line x1="4950" x2="2800" y1="4300" y2="4300" stroke="red" stroke-width="15"/><line x1="4704" x2="2931" y1="4247" y2="3935" stroke="red" stroke-width="15"/><line x1="4718" x2="3026" y1="4197" y2="3581" stroke="red" stroke-width="15"/><line x1="4956" x2="3094" y1="4275" y2="3200" stroke="red" stroke-width="15"/><line x1="4770" x2="3391" y1="4107" y2="2950" stroke="red" stroke-width="15"/><line x1="4807" x2="3650" y1="4070" y2="2691" stroke="red" stroke-width="15"/><line x1="4975" x2="3899" y1="4256" y2="2394" stroke="red" stroke-width="15"/><line x1="4897" x2="4281" y1="4018" y2="2326" stroke="red" stroke-width="15"/><line x1="4947" x2="4635" y1="4004" y2="2231" stroke="red" stroke-width="15"/><line x1="5000" x2="5000" y1="4250" y2="2100" stroke="red" stroke-width="15"/><line x1="5052" x2="5364" y1="4004" y2="2231" stroke="red" stroke-width="15"/><line x1="5102" x2="5718" y1="4018" y2="2326" stroke="red" stroke-width="15"/><line x1="5025" x2="6100" y1="4256" y2="2394" stroke="red" stroke-width="15"/><line x1="5192" x2="6349" y1="4070" y2="2691" stroke="red" stroke-width="15"/><line x1="5229" x2="6608" y1="4107" y2="2950" stroke="red" stroke-width="15"/><line x1="5043" x2="6905" y1="4275" y2="3199" stroke="red" stroke-width="15"/><line x1="5281" x2="6973" y1="4197" y2="3581" stroke="red" stroke-width="15"/><line x1="5295" x2="7068" y1="4247" y2="3935" stroke="red" stroke-width="15"/><line x1="5050" x2="7200" y1="4300" y2="4299" stroke="red" stroke-width="15"/></g></g><g><defs><path id="innerTopTextPath" d="M 1750,5000 A 3075,3075 0 1 1 8250,5000"/><path id="innerBottomTextPath" d="M 1750,5000 A 3075,3075 0 1 0 8250,5000"/><path id="outerTopTextPath" d="M 1100,5000 A 3400,3400 0 1 1 8900,5000"/><path id="outerBottomTextPath" d="M 1100,5000 A 3400,3400 0 1 0 8900,5000"/></defs><circle cx="5000" cy="5000" r="3500" fill="none" stroke="red" stroke-width="15"/><circle cx="5000" cy="5000" r="3700" fill="none" stroke="red" stroke-width="15"/><g><text fill="red" font-size="100" text-anchor="middle" transform="translate(8300, 5000) rotate(90)">0</text><text fill="red" font-size="100" text-anchor="middle" transform="translate(7857, 6650) rotate(120)">330</text><text fill="red" font-size="100" text-anchor="middle" transform="translate(6650, 7857) rotate(150)">300</text><text fill="red" font-size="100" text-anchor="middle" transform="translate(5000, 8300) rotate(180)">270</text><text fill="red" font-size="100" text-anchor="middle" transform="translate(3350, 7857) rotate(210)">240</text><text fill="red" font-size="100" text-anchor="middle" transform="translate(2142, 6650) rotate(240)">210</text><text fill="red" font-size="100" text-anchor="middle" transform="translate(1700, 5000) rotate(270)">180</text><text fill="red" font-size="100" text-anchor="middle" transform="translate(2142, 3349) rotate(300)">150</text><text fill="red" font-size="100" text-anchor="middle" transform="translate(3349, 2142) rotate(330)">120</text><text fill="red" font-size="100" text-anchor="middle" transform="translate(4999, 1700) rotate(360)">90</text><text fill="red" font-size="100" text-anchor="middle" transform="translate(6650, 2142) rotate(390)">60</text><text fill="red" font-size="100" text-anchor="middle" transform="translate(7857, 3349) rotate(420)">30</text></g><g><text fill="red" font-size="100" text-anchor="middle" transform="translate(1150, 5000) rotate(270)">0</text><text fill="red" font-size="100" text-anchor="middle" transform="translate(1665, 3074) rotate(300)">30</text><text fill="red" font-size="100" text-anchor="middle" transform="translate(3074, 1665) rotate(330)">60</text><text fill="red" font-size="100" text-anchor="middle" transform="translate(4999, 1150) rotate(360)">90</text><text fill="red" font-size="100" text-anchor="middle" transform="translate(6925, 1665) rotate(390)">120</text><text fill="red" font-size="100" text-anchor="middle" transform="translate(8334, 3074) rotate(420)">150</text><text fill="red" font-size="100" text-anchor="middle" transform="translate(8850, 4999) rotate(450)">180</text><text fill="red" font-size="100" text-anchor="middle" transform="translate(8334, 6924) rotate(480)">210</text><text fill="red" font-size="100" text-anchor="middle" transform="translate(6924, 8334) rotate(510)">240</text><text fill="red" font-size="100" text-anchor="middle" transform="translate(5000, 8850) rotate(540)">270</text><text fill="red" font-size="100" text-anchor="middle" transform="translate(3075, 8334) rotate(570)">300</text><text fill="red" font-size="100" text-anchor="middle" transform="translate(1665, 6924) rotate(600)">330</text></g><g><line x1="8400" x2="8800" y1="5000" y2="5000" stroke="red" stroke-width="15"/><line x1="8486" x2="8685" y1="5305" y2="5322" stroke="red" stroke-width="15"/><line x1="8348" x2="8742" y1="5590" y2="5659" stroke="red" stroke-width="15"/><line x1="8380" x2="8573" y1="5905" y2="5957" stroke="red" stroke-width="15"/><line x1="8194" x2="8570" y1="6162" y2="6299" stroke="red" stroke-width="15"/><line x1="8172" x2="8353" y1="6479" y2="6563" stroke="red" stroke-width="15"/><line x1="7944" x2="8290" y1="6700" y2="6900" stroke="red" stroke-width="15"/><line x1="7867" x2="8030" y1="7007" y2="7122" stroke="red" stroke-width="15"/><line x1="7604" x2="7910" y1="7185" y2="7442" stroke="red" stroke-width="15"/><line x1="7474" x2="7616" y1="7474" y2="7616" stroke="red" stroke-width="15"/><line x1="7185" x2="7442" y1="7604" y2="7910" stroke="red" stroke-width="15"/><line x1="7007" x2="7122" y1="7867" y2="8030" stroke="red" stroke-width="15"/><line x1="6700" x2="6900" y1="7944" y2="8290" stroke="red" stroke-width="15"/><line x1="6479" x2="6563" y1="8172" y2="8353" stroke="red" stroke-width="15"/><line x1="6162" x2="6299" y1="8194" y2="8570" stroke="red" stroke-width="15"/><line x1="5905" x2="5957" y1="8380" y2="8573" stroke="red" stroke-width="15"/><line x1="5590" x2="5659" y1="8348" y2="8742" stroke="red" stroke-width="15"/><line x1="5305" x2="5322" y1="8486" y2="8685" stroke="red" stroke-width="15"/><line x1="5000" x2="5000" y1="8400" y2="8800" stroke="red" stroke-width="15"/><line x1="4694" x2="4677" y1="8486" y2="8685" stroke="red" stroke-width="15"/><line x1="4409" x2="4340" y1="8348" y2="8742" stroke="red" stroke-width="15"/><line x1="4094" x2="4042" y1="8380" y2="8573" stroke="red" stroke-width="15"/><line x1="3837" x2="3700" y1="8194" y2="8570" stroke="red" stroke-width="15"/><line x1="3520" x2="3436" y1="8172" y2="8353" stroke="red" stroke-width="15"/><line x1="3300" x2="3100" y1="7944" y2="8290" stroke="red" stroke-width="15"/><line x1="2992" x2="2877" y1="7867" y2="8030" stroke="red" stroke-width="15"/><line x1="2814" x2="2557" y1="7604" y2="7910" stroke="red" stroke-width="15"/><line x1="2525" x2="2383" y1="7474" y2="7616" stroke="red" stroke-width="15"/><line x1="2395" x2="2089" y1="7185" y2="7442" stroke="red" stroke-width="15"/><line x1="2132" x2="1969" y1="7007" y2="7122" stroke="red" stroke-width="15"/><line x1="2055" x2="1709" y1="6700" y2="6900" stroke="red" stroke-width="15"/><line x1="1827" x2="1646" y1="6479" y2="6563" stroke="red" stroke-width="15"/><line x1="1805" x2="1429" y1="6162" y2="6299" stroke="red" stroke-width="15"/><line x1="1619" x2="1426" y1="5905" y2="5957" stroke="red" stroke-width="15"/><line x1="1651" x2="1257" y1="5590" y2="5659" stroke="red" stroke-width="15"/><line x1="1513" x2="1314" y1="5305" y2="5322" stroke="red" stroke-width="15"/><line x1="1600" x2="1200" y1="5000" y2="5000" stroke="red" stroke-width="15"/><line x1="1513" x2="1314" y1="4694" y2="4677" stroke="red" stroke-width="15"/><line x1="1651" x2="1257" y1="4409" y2="4340" stroke="red" stroke-width="15"/><line x1="1619" x2="1426" y1="4094" y2="4042" stroke="red" stroke-width="15"/><line x1="1805" x2="1429" y1="3837" y2="3700" stroke="red" stroke-width="15"/><line x1="1827" x2="1646" y1="3520" y2="3436" stroke="red" stroke-width="15"/><line x1="2055" x2="1709" y1="3299" y2="3099" stroke="red" stroke-width="15"/><line x1="2132" x2="1969" y1="2992" y2="2877" stroke="red" stroke-width="15"/><line x1="2395" x2="2089" y1="2814" y2="2557" stroke="red" stroke-width="15"/><line x1="2525" x2="2383" y1="2525" y2="2383" stroke="red" stroke-width="15"/><line x1="2814" x2="2557" y1="2395" y2="2089" stroke="red" stroke-width="15"/><line x1="2992" x2="2877" y1="2132" y2="1969" stroke="red" stroke-width="15"/><line x1="3299" x2="3099" y1="2055" y2="1709" stroke="red" stroke-width="15"/><line x1="3520" x2="3436" y1="1827" y2="1646" stroke="red" stroke-width="15"/><line x1="3837" x2="3700" y1="1805" y2="1429" stroke="red" stroke-width="15"/><line x1="4094" x2="4042" y1="1619" y2="1426" stroke="red" stroke-width="15"/><line x1="4409" x2="4340" y1="1651" y2="1257" stroke="red" stroke-width="15"/><line x1="4694" x2="4677" y1="1513" y2="1314" stroke="red" stroke-width="15"/><line x1="4999" x2="4999" y1="1600" y2="1200" stroke="red" stroke-width="15"/><line x1="5305" x2="5322" y1="1513" y2="1314" stroke="red" stroke-width="15"/><line x1="5590" x2="5659" y1="1651" y2="1257" stroke="red" stroke-width="15"/><line x1="5905" x2="5957" y1="1619" y2="1426" stroke="red" stroke-width="15"/><line x1="6162" x2="6299" y1="1805" y2="1429" stroke="red" stroke-width="15"/><line x1="6479" x2="6563" y1="1827" y2="1646" stroke="red" stroke-width="15"/><line x1="6700" x2="6900" y1="2055" y2="1709" stroke="red" stroke-width="15"/><line x1="7007" x2="7122" y1="2132" y2="1969" stroke="red" stroke-width="15"/><line x1="7185" x2="7442" y1="2395" y2="2089" stroke="red" stroke-width="15"/><line x1="7474" x2="7616" y1="2525" y2="2383" stroke="red" stroke-width="15"/><line x1="7604" x2="7910" y1="2814" y2="2557" stroke="red" stroke-width="15"/><line x1="7867" x2="8030" y1="2992" y2="2877" stroke="red" stroke-width="15"/><line x1="7944" x2="8290" y1="3299" y2="3099" stroke="red" stroke-width="15"/><line x1="8172" x2="8353" y1="3520" y2="3436" stroke="red" stroke-width="15"/><line x1="8194" x2="8570" y1="3837" y2="3700" stroke="red" stroke-width="15"/><line x1="8380" x2="8573" y1="4094" y2="4042" stroke="red" stroke-width="15"/><line x1="8348" x2="8742" y1="4409" y2="4340" stroke="red" stroke-width="15"/><line x1="8486" x2="8685" y1="4694" y2="4677" stroke="red" stroke-width="15"/></g></g></svg>