<svg xmlns="http://www.w3.org/2000/svg" xmlns:svg="http://www.w3.org/2000/svg" id="svg5110" width="100%" height="100%" version="1.1" viewBox="0 0 10000 10000"><metadata id="metadata5116"/><defs id="defs5114"><defs id="defs4904"><path id="innerTopTextPath" d="M 1750,5000 A 3075,3075 0 1 1 8250,5000"/><path id="innerBottomTextPath" d="M 1750,5000 A 3075,3075 0 1 0 8250,5000"/><path id="outerTopTextPath" d="M 1100,5000 A 3400,3400 0 1 1 8900,5000"/><path id="outerBottomTextPath" d="M 1100,5000 A 3400,3400 0 1 0 8900,5000"/></defs></defs><desc id="desc4534">This is my interpretation oc the Celestron MicroGuide eyepiece.</desc><g id="g7058"><circle id="circle4906" cx="5000" cy="5000" r="3500" style="fill:none;stroke:red;stroke-width:15"/><circle id="circle4908" cx="5000" cy="5000" r="3700" style="fill:none;stroke:red;stroke-width:15"/><text style="font-size:100px;text-anchor:middle;fill:red" id="text4936" x="-5000" y="1150" font-size="100" transform="rotate(-90)"><tspan id="tspan6555" style="font-size:133.33333333px">270</tspan></text><text style="font-size:100px;text-anchor:middle;fill:red" id="text4938" x="-1829.662" y="2978.932" font-size="100" transform="rotate(-60)"><tspan id="tspan6557" style="font-size:133.33333333px">300</tspan></text><text style="font-size:100px;text-anchor:middle;fill:red" id="text4940" x="1829.662" y="2978.932" font-size="100" transform="rotate(-30)"><tspan id="tspan6559" style="font-size:133.33333333px">330</tspan></text><text style="font-size:100px;text-anchor:middle;fill:red" id="text4942" x="4999" y="1150" font-size="100"><tspan id="tspan6537" style="font-size:133.33333333px">0</tspan></text><text style="font-size:100px;text-anchor:middle;fill:red" id="text4944" x="6829.726" y="-2020.568" font-size="100" transform="rotate(30)"><tspan id="tspan6539" style="font-size:133.33333333px">30</tspan></text><text style="font-size:100px;text-anchor:middle;fill:red" id="text4946" x="6829.162" y="-5680.456" font-size="100" transform="rotate(60)"><tspan id="tspan6541" style="font-size:133.33333333px">60</tspan></text><text style="font-size:100px;text-anchor:middle;fill:red" id="text4948" x="4999" y="-8850" font-size="100" transform="rotate(90)"><tspan id="tspan6543" style="font-size:133.33333333px">90</tspan></text><text style="font-size:100px;text-anchor:middle;fill:red" id="text4950" x="1829.36" y="-10679.456" font-size="100" transform="rotate(120)"><tspan id="tspan6545" style="font-size:133.33333333px">120</tspan></text><text style="font-size:100px;text-anchor:middle;fill:red" id="text4952" x="-1829.36" y="-10679.456" font-size="100" transform="rotate(150)"><tspan id="tspan6547" style="font-size:133.33333333px">150</tspan></text><text style="font-size:100px;text-anchor:middle;fill:red" id="text4954" x="-5000" y="-8850" font-size="100" transform="scale(-1)"><tspan id="tspan6549" style="font-size:133.33333333px">180</tspan></text><text style="font-size:100px;text-anchor:middle;fill:red" id="text4956" x="-6830.028" y="-5679.956" font-size="100" transform="rotate(-150)"><tspan id="tspan6551" style="font-size:133.33333333px">210</tspan></text><text style="font-size:100px;text-anchor:middle;fill:red" id="text4958" x="-6828.86" y="-2020.068" font-size="100" transform="rotate(-120)"><tspan id="tspan6553" style="font-size:133.33333333px">240</tspan></text><line style="stroke:red;stroke-width:15" id="line4962" x1="8400" x2="8800" y1="5000" y2="5000"/><line style="stroke:red;stroke-width:15" id="line4964" x1="8486" x2="8685" y1="5305" y2="5322"/><line style="stroke:red;stroke-width:15" id="line4966" x1="8348" x2="8742" y1="5590" y2="5659"/><line style="stroke:red;stroke-width:15" id="line4968" x1="8380" x2="8573" y1="5905" y2="5957"/><line style="stroke:red;stroke-width:15" id="line4970" x1="8194" x2="8570" y1="6162" y2="6299"/><line style="stroke:red;stroke-width:15" id="line4972" x1="8172" x2="8353" y1="6479" y2="6563"/><line style="stroke:red;stroke-width:15" id="line4974" x1="7944" x2="8290" y1="6700" y2="6900"/><line style="stroke:red;stroke-width:15" id="line4976" x1="7867" x2="8030" y1="7007" y2="7122"/><line style="stroke:red;stroke-width:15" id="line4978" x1="7604" x2="7910" y1="7185" y2="7442"/><line style="stroke:red;stroke-width:15" id="line4980" x1="7474" x2="7616" y1="7474" y2="7616"/><line style="stroke:red;stroke-width:15" id="line4982" x1="7185" x2="7442" y1="7604" y2="7910"/><line style="stroke:red;stroke-width:15" id="line4984" x1="7007" x2="7122" y1="7867" y2="8030"/><line style="stroke:red;stroke-width:15" id="line4986" x1="6700" x2="6900" y1="7944" y2="8290"/><line style="stroke:red;stroke-width:15" id="line4988" x1="6479" x2="6563" y1="8172" y2="8353"/><line style="stroke:red;stroke-width:15" id="line4990" x1="6162" x2="6299" y1="8194" y2="8570"/><line style="stroke:red;stroke-width:15" id="line4992" x1="5905" x2="5957" y1="8380" y2="8573"/><line style="stroke:red;stroke-width:15" id="line4994" x1="5590" x2="5659" y1="8348" y2="8742"/><line style="stroke:red;stroke-width:15" id="line4996" x1="5305" x2="5322" y1="8486" y2="8685"/><line style="stroke:red;stroke-width:15" id="line4998" x1="5000" x2="5000" y1="8400" y2="8800"/><line style="stroke:red;stroke-width:15" id="line5000" x1="4694" x2="4677" y1="8486" y2="8685"/><line style="stroke:red;stroke-width:15" id="line5002" x1="4409" x2="4340" y1="8348" y2="8742"/><line style="stroke:red;stroke-width:15" id="line5004" x1="4094" x2="4042" y1="8380" y2="8573"/><line style="stroke:red;stroke-width:15" id="line5006" x1="3837" x2="3700" y1="8194" y2="8570"/><line style="stroke:red;stroke-width:15" id="line5008" x1="3520" x2="3436" y1="8172" y2="8353"/><line style="stroke:red;stroke-width:15" id="line5010" x1="3300" x2="3100" y1="7944" y2="8290"/><line style="stroke:red;stroke-width:15" id="line5012" x1="2992" x2="2877" y1="7867" y2="8030"/><line style="stroke:red;stroke-width:15" id="line5014" x1="2814" x2="2557" y1="7604" y2="7910"/><line style="stroke:red;stroke-width:15" id="line5016" x1="2525" x2="2383" y1="7474" y2="7616"/><line style="stroke:red;stroke-width:15" id="line5018" x1="2395" x2="2089" y1="7185" y2="7442"/><line style="stroke:red;stroke-width:15" id="line5020" x1="2132" x2="1969" y1="7007" y2="7122"/><line style="stroke:red;stroke-width:15" id="line5022" x1="2055" x2="1709" y1="6700" y2="6900"/><line style="stroke:red;stroke-width:15" id="line5024" x1="1827" x2="1646" y1="6479" y2="6563"/><line style="stroke:red;stroke-width:15" id="line5026" x1="1805" x2="1429" y1="6162" y2="6299"/><line style="stroke:red;stroke-width:15" id="line5028" x1="1619" x2="1426" y1="5905" y2="5957"/><line style="stroke:red;stroke-width:15" id="line5030" x1="1651" x2="1257" y1="5590" y2="5659"/><line style="stroke:red;stroke-width:15" id="line5032" x1="1513" x2="1314" y1="5305" y2="5322"/><line style="stroke:red;stroke-width:15" id="line5034" x1="1600" x2="1200" y1="5000" y2="5000"/><line style="stroke:red;stroke-width:15" id="line5036" x1="1513" x2="1314" y1="4694" y2="4677"/><line style="stroke:red;stroke-width:15" id="line5038" x1="1651" x2="1257" y1="4409" y2="4340"/><line style="stroke:red;stroke-width:15" id="line5040" x1="1619" x2="1426" y1="4094" y2="4042"/><line style="stroke:red;stroke-width:15" id="line5042" x1="1805" x2="1429" y1="3837" y2="3700"/><line style="stroke:red;stroke-width:15" id="line5044" x1="1827" x2="1646" y1="3520" y2="3436"/><line style="stroke:red;stroke-width:15" id="line5046" x1="2055" x2="1709" y1="3299" y2="3099"/><line style="stroke:red;stroke-width:15" id="line5048" x1="2132" x2="1969" y1="2992" y2="2877"/><line style="stroke:red;stroke-width:15" id="line5050" x1="2395" x2="2089" y1="2814" y2="2557"/><line style="stroke:red;stroke-width:15" id="line5052" x1="2525" x2="2383" y1="2525" y2="2383"/><line style="stroke:red;stroke-width:15" id="line5054" x1="2814" x2="2557" y1="2395" y2="2089"/><line style="stroke:red;stroke-width:15" id="line5056" x1="2992" x2="2877" y1="2132" y2="1969"/><line style="stroke:red;stroke-width:15" id="line5058" x1="3299" x2="3099" y1="2055" y2="1709"/><line style="stroke:red;stroke-width:15" id="line5060" x1="3520" x2="3436" y1="1827" y2="1646"/><line style="stroke:red;stroke-width:15" id="line5062" x1="3837" x2="3700" y1="1805" y2="1429"/><line style="stroke:red;stroke-width:15" id="line5064" x1="4094" x2="4042" y1="1619" y2="1426"/><line style="stroke:red;stroke-width:15" id="line5066" x1="4409" x2="4340" y1="1651" y2="1257"/><line style="stroke:red;stroke-width:15" id="line5068" x1="4694" x2="4677" y1="1513" y2="1314"/><line style="stroke:red;stroke-width:15" id="line5070" x1="4999" x2="4999" y1="1600" y2="1200"/><line style="stroke:red;stroke-width:15" id="line5072" x1="5305" x2="5322" y1="1513" y2="1314"/><line style="stroke:red;stroke-width:15" id="line5074" x1="5590" x2="5659" y1="1651" y2="1257"/><line style="stroke:red;stroke-width:15" id="line5076" x1="5905" x2="5957" y1="1619" y2="1426"/><line style="stroke:red;stroke-width:15" id="line5078" x1="6162" x2="6299" y1="1805" y2="1429"/><line style="stroke:red;stroke-width:15" id="line5080" x1="6479" x2="6563" y1="1827" y2="1646"/><line style="stroke:red;stroke-width:15" id="line5082" x1="6700" x2="6900" y1="2055" y2="1709"/><line style="stroke:red;stroke-width:15" id="line5084" x1="7007" x2="7122" y1="2132" y2="1969"/><line style="stroke:red;stroke-width:15" id="line5086" x1="7185" x2="7442" y1="2395" y2="2089"/><line style="stroke:red;stroke-width:15" id="line5088" x1="7474" x2="7616" y1="2525" y2="2383"/><line style="stroke:red;stroke-width:15" id="line5090" x1="7604" x2="7910" y1="2814" y2="2557"/><line style="stroke:red;stroke-width:15" id="line5092" x1="7867" x2="8030" y1="2992" y2="2877"/><line style="stroke:red;stroke-width:15" id="line5094" x1="7944" x2="8290" y1="3299" y2="3099"/><line style="stroke:red;stroke-width:15" id="line5096" x1="8172" x2="8353" y1="3520" y2="3436"/><line style="stroke:red;stroke-width:15" id="line5098" x1="8194" x2="8570" y1="3837" y2="3700"/><line style="stroke:red;stroke-width:15" id="line5100" x1="8380" x2="8573" y1="4094" y2="4042"/><line style="stroke:red;stroke-width:15" id="line5102" x1="8348" x2="8742" y1="4409" y2="4340"/><line style="stroke:red;stroke-width:15" id="line5104" x1="8486" x2="8685" y1="4694" y2="4677"/></g><g id="g6939"><line id="line4538" x1="1877.896" x2="8125.754" y1="4998.718" y2="4998.718" style="stroke:red;stroke-width:17.1104641"/><line id="line4540" x1="1877.896" x2="1877.896" y1="4998.718" y2="4748.804" style="stroke:red;stroke-width:18.74357414"/><line id="line4542" x1="2002.853" x2="2002.853" y1="4998.718" y2="4873.761" style="stroke:red;stroke-width:18.74357414"/><line id="line4544" x1="2127.811" x2="2127.811" y1="4998.718" y2="4873.761" style="stroke:red;stroke-width:18.74357414"/><line id="line4546" x1="2252.768" x2="2252.768" y1="4998.718" y2="4873.761" style="stroke:red;stroke-width:18.74357414"/><line id="line4548" x1="2377.725" x2="2377.725" y1="4998.718" y2="4873.761" style="stroke:red;stroke-width:18.74357414"/><line id="line4550" x1="2502.682" x2="2502.682" y1="4998.718" y2="4802.074" style="stroke:red;stroke-width:16.62635612"/><line id="line4552" x1="2627.639" x2="2627.639" y1="4998.718" y2="4873.761" style="stroke:red;stroke-width:18.74357414"/><line id="line4554" x1="2752.596" x2="2752.596" y1="4998.718" y2="4873.761" style="stroke:red;stroke-width:18.74357414"/><line id="line4556" x1="2877.553" x2="2877.553" y1="4998.718" y2="4873.761" style="stroke:red;stroke-width:18.74357414"/><line id="line4558" x1="3002.51" x2="3002.51" y1="4998.718" y2="4873.761" style="stroke:red;stroke-width:18.74357414"/><line id="line4560" x1="3127.468" x2="3127.468" y1="4998.718" y2="4748.804" style="stroke:red;stroke-width:18.74357414"/><line id="line4562" x1="3252.425" x2="3252.425" y1="4998.718" y2="4873.761" style="stroke:red;stroke-width:18.74357414"/><line id="line4564" x1="3377.382" x2="3377.382" y1="4998.718" y2="4873.761" style="stroke:red;stroke-width:18.74357414"/><line id="line4566" x1="3502.339" x2="3502.339" y1="4998.718" y2="4873.761" style="stroke:red;stroke-width:18.74357414"/><line id="line4568" x1="3627.296" x2="3627.296" y1="4998.718" y2="4873.761" style="stroke:red;stroke-width:18.74357414"/><line id="line4572" x1="3877.211" x2="3877.211" y1="4998.718" y2="4873.761" style="stroke:red;stroke-width:18.74357414"/><line id="line4574" x1="4002.168" x2="4002.168" y1="4998.718" y2="4873.761" style="stroke:red;stroke-width:18.74357414"/><line id="line4576" x1="4127.125" x2="4127.125" y1="4998.718" y2="4873.761" style="stroke:red;stroke-width:18.74357414"/><line id="line4578" x1="4252.082" x2="4252.082" y1="4998.718" y2="4873.761" style="stroke:red;stroke-width:18.74357414"/><line id="line4580" x1="4377.04" x2="4377.04" y1="4998.718" y2="4748.804" style="stroke:red;stroke-width:18.74357414"/><line id="line4582" x1="4501.997" x2="4501.997" y1="4998.718" y2="4873.761" style="stroke:red;stroke-width:18.74357414"/><line id="line4584" x1="4626.954" x2="4626.954" y1="4998.718" y2="4873.761" style="stroke:red;stroke-width:18.74357414"/><line id="line4586" x1="4751.911" x2="4751.911" y1="4998.718" y2="4873.761" style="stroke:red;stroke-width:18.74357414"/><line id="line4588" x1="4876.868" x2="4876.868" y1="4998.718" y2="4873.761" style="stroke:red;stroke-width:18.74357414"/><line id="line4590" x1="5001.825" x2="5001.825" y1="5048.181" y2="4798.267" style="stroke:red;stroke-width:18.74357414"/><line id="line4592" x1="5126.782" x2="5126.782" y1="4998.718" y2="4873.761" style="stroke:red;stroke-width:18.74357414"/><line id="line4594" x1="5251.739" x2="5251.739" y1="4998.718" y2="4873.761" style="stroke:red;stroke-width:18.74357414"/><line id="line4596" x1="5376.697" x2="5376.697" y1="4998.718" y2="4873.761" style="stroke:red;stroke-width:18.74357414"/><line id="line4598" x1="5501.654" x2="5501.654" y1="4998.718" y2="4873.761" style="stroke:red;stroke-width:18.74357414"/><line id="line4600" x1="5626.611" x2="5626.611" y1="4998.718" y2="4748.804" style="stroke:red;stroke-width:18.74357414"/><line id="line4602" x1="5751.568" x2="5751.568" y1="4998.718" y2="4873.761" style="stroke:red;stroke-width:18.74357414"/><line id="line4604" x1="5876.525" x2="5876.525" y1="4998.718" y2="4873.761" style="stroke:red;stroke-width:18.74357414"/><line id="line4606" x1="6001.482" x2="6001.482" y1="4998.718" y2="4873.761" style="stroke:red;stroke-width:18.74357414"/><line id="line4608" x1="6126.44" x2="6126.44" y1="4998.718" y2="4873.761" style="stroke:red;stroke-width:18.74357414"/><line id="line4610" x1="6251.397" x2="6251.397" y1="5048.181" y2="4798.267" style="stroke:red;stroke-width:18.74357414"/><line id="line4612" x1="6376.354" x2="6376.354" y1="4998.718" y2="4873.761" style="stroke:red;stroke-width:18.74357414"/><line id="line4614" x1="6501.311" x2="6501.311" y1="4998.718" y2="4873.761" style="stroke:red;stroke-width:18.74357414"/><line id="line4616" x1="6626.268" x2="6626.268" y1="4998.718" y2="4873.761" style="stroke:red;stroke-width:18.74357414"/><line id="line4618" x1="6751.226" x2="6751.226" y1="4998.718" y2="4873.761" style="stroke:red;stroke-width:18.74357414"/><line id="line4620" x1="6876.183" x2="6876.183" y1="4998.718" y2="4748.804" style="stroke:red;stroke-width:18.74357414"/><line id="line4622" x1="7001.14" x2="7001.14" y1="4998.718" y2="4873.761" style="stroke:red;stroke-width:18.74357414"/><line id="line4624" x1="7126.097" x2="7126.097" y1="4998.718" y2="4873.761" style="stroke:red;stroke-width:18.74357414"/><line id="line4626" x1="7251.054" x2="7251.054" y1="4998.718" y2="4873.761" style="stroke:red;stroke-width:18.74357414"/><line id="line4628" x1="7376.011" x2="7376.011" y1="4998.718" y2="4873.761" style="stroke:red;stroke-width:18.74357414"/><line id="line4630" x1="7500.968" x2="7500.968" y1="5048.181" y2="4798.267" style="stroke:red;stroke-width:18.74357414"/><line id="line4632" x1="7625.926" x2="7625.926" y1="4998.718" y2="4873.761" style="stroke:red;stroke-width:18.74357414"/><line id="line4634" x1="7750.883" x2="7750.883" y1="4998.718" y2="4873.761" style="stroke:red;stroke-width:18.74357414"/><line id="line4636" x1="7875.84" x2="7875.84" y1="4998.718" y2="4873.761" style="stroke:red;stroke-width:18.74357414"/><line id="line4638" x1="8000.797" x2="8000.797" y1="4998.718" y2="4873.761" style="stroke:red;stroke-width:18.74357414"/><line id="line4640" x1="8125.754" x2="8125.754" y1="4998.718" y2="4748.804" style="stroke:red;stroke-width:18.74357414"/><line id="line4682" x1="1877.896" x2="8125.754" y1="4998.155" y2="4998.155" style="stroke:red;stroke-width:17.1104641"/><line id="line4684" x1="1877.896" x2="1877.896" y1="4998.155" y2="5248.069" style="stroke:red;stroke-width:18.74357414"/><line id="line4686" x1="2002.853" x2="2002.853" y1="4998.155" y2="5123.112" style="stroke:red;stroke-width:18.74357414"/><line id="line4688" x1="2127.811" x2="2127.811" y1="4998.155" y2="5123.112" style="stroke:red;stroke-width:18.74357414"/><line id="line4690" x1="2252.768" x2="2252.768" y1="4998.155" y2="5123.112" style="stroke:red;stroke-width:18.74357414"/><line id="line4692" x1="2377.725" x2="2377.725" y1="4998.155" y2="5123.112" style="stroke:red;stroke-width:18.74357414"/><line id="line4694" x1="2502.682" x2="2502.682" y1="4937.277" y2="5187.192" style="stroke:red;stroke-width:18.74357414"/><line id="line4696" x1="2627.639" x2="2627.639" y1="4998.155" y2="5123.112" style="stroke:red;stroke-width:18.74357414"/><line id="line4698" x1="2752.596" x2="2752.596" y1="4998.155" y2="5123.112" style="stroke:red;stroke-width:18.74357414"/><line id="line4700" x1="2877.553" x2="2877.553" y1="4998.155" y2="5123.112" style="stroke:red;stroke-width:18.74357414"/><line id="line4702" x1="3002.51" x2="3002.51" y1="4998.155" y2="5123.112" style="stroke:red;stroke-width:18.74357414"/><line id="line4704" x1="3127.468" x2="3127.468" y1="4998.155" y2="5248.069" style="stroke:red;stroke-width:18.74357414"/><line id="line4706" x1="3252.425" x2="3252.425" y1="4998.155" y2="5123.112" style="stroke:red;stroke-width:18.74357414"/><line id="line4708" x1="3377.382" x2="3377.382" y1="4998.155" y2="5123.112" style="stroke:red;stroke-width:18.74357414"/><line id="line4710" x1="3502.339" x2="3502.339" y1="4998.155" y2="5123.112" style="stroke:red;stroke-width:18.74357414"/><line id="line4712" x1="3627.296" x2="3627.296" y1="4998.155" y2="5123.112" style="stroke:red;stroke-width:18.74357414"/><line id="line4714" x1="3752.254" x2="3752.254" y1="4934.483" y2="5184.398" style="stroke:red;stroke-width:18.74357414"/><line id="line4716" x1="3877.211" x2="3877.211" y1="4998.155" y2="5123.112" style="stroke:red;stroke-width:18.74357414"/><line id="line4718" x1="4002.168" x2="4002.168" y1="4998.155" y2="5123.112" style="stroke:red;stroke-width:18.74357414"/><line id="line4720" x1="4127.125" x2="4127.125" y1="4998.155" y2="5123.112" style="stroke:red;stroke-width:18.74357414"/><line id="line4722" x1="4252.082" x2="4252.082" y1="4998.155" y2="5123.112" style="stroke:red;stroke-width:18.74357414"/><line id="line4724" x1="4377.04" x2="4377.04" y1="4998.155" y2="5248.069" style="stroke:red;stroke-width:18.74357414"/><line id="line4726" x1="4501.997" x2="4501.997" y1="4998.155" y2="5123.112" style="stroke:red;stroke-width:18.74357414"/><line id="line4728" x1="4626.954" x2="4626.954" y1="4998.155" y2="5123.112" style="stroke:red;stroke-width:18.74357414"/><line id="line4730" x1="4751.911" x2="4751.911" y1="4998.155" y2="5123.112" style="stroke:red;stroke-width:18.74357414"/><line id="line4732" x1="4876.868" x2="4876.868" y1="4998.155" y2="5123.112" style="stroke:red;stroke-width:18.74357414"/><line id="line4734" x1="5001.825" x2="5001.825" y1="4937.277" y2="5187.192" style="stroke:red;stroke-width:18.74357414"/><line id="line4736" x1="5126.782" x2="5126.782" y1="4998.155" y2="5123.112" style="stroke:red;stroke-width:18.74357414"/><line id="line4738" x1="5251.739" x2="5251.739" y1="4998.155" y2="5123.112" style="stroke:red;stroke-width:18.74357414"/><line id="line4740" x1="5376.697" x2="5376.697" y1="4998.155" y2="5123.112" style="stroke:red;stroke-width:18.74357414"/><line id="line4742" x1="5501.654" x2="5501.654" y1="4998.155" y2="5123.112" style="stroke:red;stroke-width:18.74357414"/><line id="line4744" x1="5626.611" x2="5626.611" y1="4998.155" y2="5248.069" style="stroke:red;stroke-width:18.74357414"/><line id="line4746" x1="5751.568" x2="5751.568" y1="4998.155" y2="5123.112" style="stroke:red;stroke-width:18.74357414"/><line id="line4748" x1="5876.525" x2="5876.525" y1="4998.155" y2="5123.112" style="stroke:red;stroke-width:18.74357414"/><line id="line4750" x1="6001.482" x2="6001.482" y1="4998.155" y2="5123.112" style="stroke:red;stroke-width:18.74357414"/><line id="line4752" x1="6126.44" x2="6126.44" y1="4998.155" y2="5123.112" style="stroke:red;stroke-width:18.74357414"/><line id="line4754" x1="6251.397" x2="6251.397" y1="4937.277" y2="5187.192" style="stroke:red;stroke-width:18.74357414"/><line id="line4756" x1="6376.354" x2="6376.354" y1="4998.155" y2="5123.112" style="stroke:red;stroke-width:18.74357414"/><line id="line4758" x1="6501.311" x2="6501.311" y1="4998.155" y2="5123.112" style="stroke:red;stroke-width:18.74357414"/><line id="line4760" x1="6626.268" x2="6626.268" y1="4998.155" y2="5123.112" style="stroke:red;stroke-width:18.74357414"/><line id="line4762" x1="6751.226" x2="6751.226" y1="4998.155" y2="5123.112" style="stroke:red;stroke-width:18.74357414"/><line id="line4764" x1="6876.183" x2="6876.183" y1="4998.155" y2="5248.069" style="stroke:red;stroke-width:18.74357414"/><line id="line4766" x1="7001.14" x2="7001.14" y1="4998.155" y2="5123.112" style="stroke:red;stroke-width:18.74357414"/><line id="line4768" x1="7126.097" x2="7126.097" y1="4998.155" y2="5123.112" style="stroke:red;stroke-width:18.74357414"/><line id="line4770" x1="7251.054" x2="7251.054" y1="4998.155" y2="5123.112" style="stroke:red;stroke-width:18.74357414"/><line id="line4772" x1="7376.011" x2="7376.011" y1="4998.155" y2="5123.112" style="stroke:red;stroke-width:18.74357414"/><line id="line4774" x1="7500.968" x2="7500.968" y1="4937.277" y2="5187.192" style="stroke:red;stroke-width:18.74357414"/><line id="line4776" x1="7625.926" x2="7625.926" y1="4998.155" y2="5123.112" style="stroke:red;stroke-width:18.74357414"/><line id="line4778" x1="7750.883" x2="7750.883" y1="4998.155" y2="5123.112" style="stroke:red;stroke-width:18.74357414"/><line id="line4780" x1="7875.84" x2="7875.84" y1="4998.155" y2="5123.112" style="stroke:red;stroke-width:18.74357414"/><line id="line4782" x1="8000.797" x2="8000.797" y1="4998.155" y2="5123.112" style="stroke:red;stroke-width:18.74357414"/><line id="line4784" x1="8125.754" x2="8125.754" y1="4998.155" y2="5248.069" style="stroke:red;stroke-width:18.74357414"/><text id="text4808" x="1840.409" y="5373.026" font-size="100" style="font-size:124.95716095px;fill:red;stroke-width:1.24957156"><tspan style="font-size:133.33334351px;stroke-width:1.24957156" id="tspan6561">0</tspan></text><text id="text4810" x="3044.989" y="5373.026" font-size="100" style="font-size:124.95716095px;fill:red;stroke-width:1.24957156"><tspan style="font-size:133.33334351px;stroke-width:1.24957156" id="tspan6563">10</tspan></text><text id="text4812" x="4294.561" y="5373.026" font-size="100" style="font-size:124.95716095px;fill:red;stroke-width:1.24957156"><tspan style="font-size:133.33334351px;stroke-width:1.24957156" id="tspan6565">20</tspan></text><text id="text4814" x="5544.132" y="5373.026" font-size="100" style="font-size:124.95716095px;fill:red;stroke-width:1.24957156"><tspan style="font-size:133.33334351px;stroke-width:1.24957156" id="tspan6567">30</tspan></text><text id="text4816" x="6793.704" y="5373.026" font-size="100" style="font-size:124.95716095px;fill:red;stroke-width:1.24957156"><tspan style="font-size:133.33334351px;stroke-width:1.24957156" id="tspan6569">40</tspan></text><text id="text4818" x="8043.276" y="5373.026" font-size="100" style="font-size:124.95716095px;fill:red;stroke-width:1.24957156"><tspan style="font-size:133.33334351px;stroke-width:1.24957156" id="tspan6571">50</tspan></text><line style="stroke:red;stroke-width:16.62635612" id="line4550-8" x1="3752.254" x2="3752.254" y1="4995.993" y2="4799.349"/><line id="line4694-7" x1="2502.682" x2="2502.682" y1="4798.27" y2="5048.184" style="stroke:red;stroke-width:18.74357414"/><line id="line4694-5" x1="3753.907" x2="3753.907" y1="4801.141" y2="5051.056" style="stroke:red;stroke-width:18.74357414"/><circle id="circle4830-3" cx="5000.894" cy="4995.663" r="122.095" style="fill:none;stroke:red;stroke-width:14.65137291"/></g><g id="g6958"><g id="g5921"><g id="g5903" transform="translate(12.180268)"><line style="stroke:red;stroke-width:15" id="line4844" x1="5062.774" x2="5062.774" y1="5753.966" y2="6828.966"/><line style="stroke:red;stroke-width:15" id="line4846" x1="5062.774" x2="5062.774" y1="6789.034" y2="7864.034"/></g><circle style="fill:none;stroke:red;stroke-width:15" id="circle4830" cx="5000" cy="6800" r="125"/><circle style="fill:none;stroke:red;stroke-width:15" id="circle4832" cx="5000" cy="6800" r="250"/><circle style="fill:none;stroke:red;stroke-width:15" id="circle4834" cx="5000" cy="6800" r="500"/><circle style="fill:none;stroke:red;stroke-width:15" id="circle4836" cx="5000" cy="6800" r="1000"/><g id="g5891" transform="translate(0,12.180268)"><line style="stroke:red;stroke-width:15" id="line4838" x1="3926.669" x2="5001.669" y1="6860.289" y2="6860.289"/><line style="stroke:red;stroke-width:15" id="line4840" x1="5000.854" x2="6075.854" y1="6860.289" y2="6860.289"/></g><g id="g5899" transform="translate(-12.180268)"><line style="stroke:red;stroke-width:15" id="line4844-9" x1="4936.586" x2="4936.586" y1="5750.885" y2="6825.885"/><line style="stroke:red;stroke-width:15" id="line4846-9" x1="4936.586" x2="4936.586" y1="6790.998" y2="7865.998"/></g><g id="g5887" transform="translate(0,-12.180268)"><line style="stroke:red;stroke-width:15" id="line4838-1" x1="3924.544" x2="4999.544" y1="6738.412" y2="6738.412"/><line style="stroke:red;stroke-width:15" id="line4840-6" x1="4998.729" x2="6073.729" y1="6738.412" y2="6738.412"/></g></g></g><g id="g6818"><g id="g6341"><circle style="fill:none;stroke:red;stroke-width:18.68115234" id="circle4852" cx="4998.711" cy="4499.902" r="62.271"/><path style="fill:none;stroke:red;stroke-width:15.11811024" id="path4854" d="m 2383.3499,4499.9021 a 2615.3612,2615.3612 0 1 1 5230.7224,0"/><path style="fill:none;stroke:red;stroke-width:18.68115234" id="path4856" d="m 4625.0881,4499.9021 a 373.62303,373.62303 0 1 1 747.246,0"/><line id="line4858" x1="4936.44" x2="2258.809" y1="4499.902" y2="4499.902" style="stroke:red;stroke-width:18.68115234"/><line id="line4860" x1="4630.07" x2="2421.957" y1="4433.895" y2="4045.327" style="stroke:red;stroke-width:18.68115234"/><line id="line4862" x1="4647.505" x2="2540.271" y1="4371.625" y2="3604.452" style="stroke:red;stroke-width:18.68115234"/><line id="line4864" x1="4943.913" x2="2624.959" y1="4468.767" y2="3129.951" style="stroke:red;stroke-width:18.68115234"/><line id="line4866" x1="4712.267" x2="2994.846" y1="4259.538" y2="2818.598" style="stroke:red;stroke-width:18.68115234"/><line id="line4868" x1="4758.347" x2="3317.407" y1="4213.458" y2="2496.037" style="stroke:red;stroke-width:18.68115234"/><line id="line4870" x1="4967.576" x2="3627.515" y1="4445.104" y2="2126.15" style="stroke:red;stroke-width:18.68115234"/><line id="line4872" x1="4870.434" x2="4103.261" y1="4148.696" y2="2041.463" style="stroke:red;stroke-width:18.68115234"/><line id="line4874" x1="4932.705" x2="4544.136" y1="4131.261" y2="1923.149" style="stroke:red;stroke-width:18.68115234"/><line id="line4876" x1="4998.711" x2="4998.711" y1="4437.632" y2="1760" style="stroke:red;stroke-width:18.68115234"/><line id="line4878" x1="5063.473" x2="5452.041" y1="4131.261" y2="1923.149" style="stroke:red;stroke-width:18.68115234"/><line id="line4880" x1="5125.743" x2="5892.916" y1="4148.696" y2="2041.463" style="stroke:red;stroke-width:18.68115234"/><line id="line4882" x1="5029.846" x2="6368.662" y1="4445.104" y2="2126.15" style="stroke:red;stroke-width:18.68115234"/><line id="line4884" x1="5237.83" x2="6678.77" y1="4213.458" y2="2496.037" style="stroke:red;stroke-width:18.68115234"/><line id="line4886" x1="5283.91" x2="7001.331" y1="4259.538" y2="2818.598" style="stroke:red;stroke-width:18.68115234"/><line id="line4888" x1="5052.264" x2="7371.217" y1="4468.767" y2="3128.706" style="stroke:red;stroke-width:18.68115234"/><line id="line4890" x1="5348.671" x2="7455.905" y1="4371.625" y2="3604.452" style="stroke:red;stroke-width:18.68115234"/><line id="line4892" x1="5366.107" x2="7574.219" y1="4433.895" y2="4045.327" style="stroke:red;stroke-width:18.68115234"/><line id="line4894" x1="5060.981" x2="7738.613" y1="4499.902" y2="4498.657" style="stroke:red;stroke-width:18.68115234"/><path style="fill:none;stroke:red;stroke-width:15.11811024" id="path4854-5" d="m 3680.2413,4499.5733 a 1307.6806,1307.6806 0 1 1 2615.3612,0"/><path style="fill:none;fill-rule:evenodd;stroke:red;stroke-width:15.11811024;stroke-linecap:butt;stroke-linejoin:miter;stroke-opacity:1" id="path6264" d="M 6287.3076,4388.7933 7600.7519,4272.5212"/><path style="fill:none;fill-rule:evenodd;stroke:red;stroke-width:15.11811024;stroke-linecap:butt;stroke-linejoin:miter;stroke-opacity:1" id="path6266" d="m 6248.5502,4169.1682 1278.9934,-344.51"/><path style="fill:red;fill-rule:evenodd;stroke:red;stroke-width:15.11811024;stroke-linecap:butt;stroke-linejoin:miter;stroke-opacity:1" id="path6268" d="M 6179.6482,3962.4622 7372.5141,3406.9398"/><path style="fill:none;fill-rule:evenodd;stroke:red;stroke-width:15.11811024;stroke-linecap:butt;stroke-linejoin:miter;stroke-opacity:1" id="path6270" d="m 6059.0697,3755.7562 1080.9001,-757.922"/><path style="fill:none;fill-rule:evenodd;stroke:red;stroke-width:15.11811024;stroke-linecap:butt;stroke-linejoin:miter;stroke-opacity:1" id="path6272" d="m 5921.2657,3574.8884 938.7897,-921.5642"/><path style="fill:none;fill-rule:evenodd;stroke:red;stroke-width:15.11811024;stroke-linecap:butt;stroke-linejoin:miter;stroke-opacity:1" id="path6274" d="M 5749.0107,3428.4717 6502.6263,2356.1843"/><path style="fill:none;fill-rule:evenodd;stroke:red;stroke-width:15.11811024;stroke-linecap:butt;stroke-linejoin:miter;stroke-opacity:1" id="path6276" d="M 5550.9174,3316.5059 6115.0526,2132.2528"/><path style="fill:none;fill-rule:evenodd;stroke:red;stroke-width:15.11811024;stroke-linecap:butt;stroke-linejoin:miter;stroke-opacity:1" id="path6278" d="M 5339.9051,3230.3784 5680.1087,1972.9169"/><path style="fill:none;fill-rule:evenodd;stroke:red;stroke-width:15.11811024;stroke-linecap:butt;stroke-linejoin:miter;stroke-opacity:1" id="path6280" d="M 5111.6672,3191.6211 5232.2457,1886.7894"/><path style="fill:none;fill-rule:evenodd;stroke:red;stroke-width:15.11811024;stroke-linecap:butt;stroke-linejoin:miter;stroke-opacity:1" id="path6282" d="M 4879.1229,3187.3147 4788.689,1882.483"/><path style="fill:none;fill-rule:evenodd;stroke:red;stroke-width:15.11811024;stroke-linecap:butt;stroke-linejoin:miter;stroke-opacity:1" id="path6284" d="M 4659.4978,3230.3784 4332.2133,1968.6105"/><path style="fill:none;fill-rule:evenodd;stroke:red;stroke-width:15.11811024;stroke-linecap:butt;stroke-linejoin:miter;stroke-opacity:1" id="path6286" d="M 4448.4854,3307.8932 3892.963,2119.3337"/><path style="fill:none;fill-rule:evenodd;stroke:red;stroke-width:15.11811024;stroke-linecap:butt;stroke-linejoin:miter;stroke-opacity:1" id="path6288" d="M 4241.7794,3419.8589 3505.3893,2356.1843"/><path style="fill:none;fill-rule:evenodd;stroke:red;stroke-width:15.11811024;stroke-linecap:butt;stroke-linejoin:miter;stroke-opacity:1" id="path6290" d="m 4060.9117,3566.2757 -895.726,-921.5643"/><path style="fill:none;fill-rule:evenodd;stroke:red;stroke-width:15.11811024;stroke-linecap:butt;stroke-linejoin:miter;stroke-opacity:1" id="path6292" d="M 3910.1885,3747.1434 2855.1267,2989.2214"/><path style="fill:none;fill-rule:evenodd;stroke:red;stroke-width:15.11811024;stroke-linecap:butt;stroke-linejoin:miter;stroke-opacity:1" id="path6294" d="M 3798.2228,3945.2367 2639.8079,3385.4079"/><path style="fill:none;fill-rule:evenodd;stroke:red;stroke-width:15.11811024;stroke-linecap:butt;stroke-linejoin:miter;stroke-opacity:1" id="path6296" d="M 3720.708,4160.5554 2471.8593,3833.2709"/><path style="fill:none;fill-rule:evenodd;stroke:red;stroke-width:15.11811024;stroke-linecap:butt;stroke-linejoin:miter;stroke-opacity:1" id="path6298" d="M 3681.9507,4388.7933 2390.0381,4272.5212"/></g><g id="g6753"><text id="text4926" x="2073.416" y="3642.743" font-size="100" transform="rotate(-30)" style="font-size:100px;text-anchor:middle;fill:red"><tspan style="font-size:133.33332825px" id="tspan6437">30</tspan></text><text id="text4930" x="6391.02" y="-4825.249" font-size="100" transform="rotate(60)" style="font-size:100px;text-anchor:middle;fill:red"><tspan style="font-size:133.33332825px" id="tspan6457">60</tspan></text><flowRoot id="flowRoot6429" transform="translate(50,108.14463)" xml:space="preserve" style="font-style:normal;font-weight:400;font-size:40px;line-height:25px;font-family:sans-serif;letter-spacing:0;word-spacing:0;fill:#000;fill-opacity:1;stroke:none;stroke-width:1px;stroke-linecap:butt;stroke-linejoin:miter;stroke-opacity:1"><flowRegion id="flowRegion6431"><rect id="rect6433" width="249.77" height="176.561" x="4904.961" y="1585.343"/></flowRegion><flowPara id="flowPara6435" style="font-size:133.33333333px;fill:red">0</flowPara></flowRoot><text id="text4926-6" x="6574.167" y="-1350.471" font-size="100" transform="rotate(30)" style="font-size:100px;text-anchor:middle;fill:red"><tspan style="font-size:133.33332825px" id="tspan6437-5">30</tspan></text><text id="text4930-5" x="-1261.678" y="3877.581" font-size="100" transform="rotate(-58)" style="font-size:100px;text-anchor:middle;fill:red"><tspan style="font-size:133.33332825px" id="tspan6457-6">60</tspan></text><flowRoot id="flowRoot6429-0" transform="rotate(-90,5054.2198,4432.579)" xml:space="preserve" style="font-style:normal;font-weight:400;font-size:40px;line-height:25px;font-family:sans-serif;letter-spacing:0;word-spacing:0;fill:#000;fill-opacity:1;stroke:none;stroke-width:1px;stroke-linecap:butt;stroke-linejoin:miter;stroke-opacity:1"><flowRegion id="flowRegion6431-9"><rect id="rect6433-3" width="249.77" height="176.561" x="4904.961" y="1585.343"/></flowRegion><flowPara id="flowPara6435-3" style="font-size:133.33332825px;fill:red">90</flowPara></flowRoot><flowRoot id="flowRoot6429-0-8" transform="rotate(90,4942.2728,4449.1292)" xml:space="preserve" style="font-style:normal;font-weight:400;font-size:40px;line-height:25px;font-family:sans-serif;letter-spacing:0;word-spacing:0;fill:#000;fill-opacity:1;stroke:none;stroke-width:1px;stroke-linecap:butt;stroke-linejoin:miter;stroke-opacity:1"><flowRegion id="flowRegion6431-9-5"><rect id="rect6433-3-5" width="249.77" height="176.561" x="4904.961" y="1585.343"/></flowRegion><flowPara id="flowPara6435-3-7" style="font-size:133.33332825px;fill:red">90</flowPara></flowRoot></g></g></svg>