<svg xmlns="http://www.w3.org/2000/svg" xmlns:cc="http://web.resource.org/cc/" xmlns:svg="http://www.w3.org/2000/svg" xmlns:xlink="http://www.w3.org/1999/xlink" id="svg2" width="453.543" height="317.547"><defs id="defs4"><marker id="Arrow2Mend" orient="auto" refX="0" refY="0" style="overflow:visible"><path id="path2921" d="M 8.7185878,4.0337352 L -2.2072895,0.016013256 L 8.7185884,-4.0017078 C 6.9730900,-1.6296469 6.9831476,1.6157441 8.7185878,4.0337352 z" transform="scale(0.6) rotate(180) translate(-5,0)" style="font-size:12;fill-rule:evenodd;stroke-width:.625;stroke-linejoin:round"/></marker><marker id="Arrow2Lend" orient="auto" refX="0" refY="0" style="overflow:visible"><path id="path2924" d="M 8.7185878,4.0337352 L -2.2072895,0.016013256 L 8.7185884,-4.0017078 C 6.9730900,-1.6296469 6.9831476,1.6157441 8.7185878,4.0337352 z" transform="scale(1.1) rotate(180) translate(-5,0)" style="font-size:12;fill-rule:evenodd;stroke-width:.625;stroke-linejoin:round"/></marker><marker id="Arrow2Lstart" orient="auto" refX="0" refY="0" style="overflow:visible"><path id="path2915" d="M 8.7185878,4.0337352 L -2.2072895,0.016013256 L 8.7185884,-4.0017078 C 6.9730900,-1.6296469 6.9831476,1.6157441 8.7185878,4.0337352 z" transform="scale(1.1) translate(-5,0)" style="font-size:12;fill-rule:evenodd;stroke-width:.625;stroke-linejoin:round"/></marker><linearGradient id="linearGradient2047"><stop id="stop2049" offset="0" style="stop-color:#fff700;stop-opacity:1"/><stop id="stop2051" offset="1" style="stop-color:#ffbf00;stop-opacity:.98958331"/></linearGradient><linearGradient id="linearGradient2035"><stop style="stop-color:#00af0a;stop-opacity:1" id="stop2037" offset="0"/><stop style="stop-color:#00cfff;stop-opacity:.99215686" id="stop2039" offset="1"/></linearGradient><radialGradient id="radialGradient2041" cx="105.314" cy="178.167" r="5.835" fx="105.314" fy="178.167" gradientTransform="translate(1.138326e-14,2.205493)" gradientUnits="userSpaceOnUse" xlink:href="#linearGradient2047"/><radialGradient id="radialGradient2045" cx="105.314" cy="178.167" r="5.835" fx="105.314" fy="178.167" gradientTransform="translate(-3.196748e-14,8.270542)" gradientUnits="userSpaceOnUse" xlink:href="#linearGradient2035"/><radialGradient id="radialGradient3529" cx="105.314" cy="178.167" r="5.835" fx="105.314" fy="178.167" gradientTransform="translate(-3.196748e-14,8.270542)" gradientUnits="userSpaceOnUse" xlink:href="#linearGradient2035"/></defs><metadata id="metadata7"/><g id="layer1"><path style="fill:none;fill-opacity:.75;fill-rule:evenodd;stroke:#000;stroke-width:.24999999;stroke-linecap:butt;stroke-linejoin:miter;stroke-miterlimit:4;stroke-dasharray:1.9999999 1.9999999;stroke-dashoffset:.49999997;stroke-opacity:1" id="path1353" d="M 273.28207,85.345977 L 16.123772,85.345977"/><g id="g5767" transform="translate(19.84253,-99.21273)"><path id="path5729" d="M 378.14014,152.19868 L 58.589250,235.07184" style="fill:none;fill-opacity:.75;fill-rule:evenodd;stroke:#000;stroke-width:.25;stroke-linecap:butt;stroke-linejoin:miter;stroke-miterlimit:4;stroke-dasharray:3 3;stroke-dashoffset:.5;stroke-opacity:1"/><path id="path4275" d="M 59.000000,135.19684 L 377.44995,216.19684" style="fill:none;fill-opacity:.75;fill-rule:evenodd;stroke:#000;stroke-width:.25;stroke-linecap:butt;stroke-linejoin:miter;stroke-miterlimit:4;stroke-dasharray:3 3;stroke-dashoffset:.5;stroke-opacity:1"/><path id="path3547" d="M 230.35548,184.71942 L 228.41340,182.26516 L 225.45855,183.29663 L 227.19256,180.69119 L 225.29847,178.19970 L 228.31223,179.04372 L 230.09647,176.47242 L 230.22507,179.59949 L 233.22188,180.50183 L 230.28760,181.59045 L 230.35548,184.71942 z" transform="matrix(1.606596,0.000000,0.000000,1.606596,-114.3299,-105.9245)" style="opacity:1;fill:#f11;fill-opacity:1;fill-rule:nonzero;stroke:none;stroke-width:.15000001;stroke-linecap:round;stroke-linejoin:round;stroke-miterlimit:4;stroke-dasharray:1.8 1.8;stroke-dashoffset:0;stroke-opacity:1"/></g><path style="fill:none;fill-opacity:.75;fill-rule:evenodd;stroke:#000;stroke-width:.25;stroke-linecap:square;stroke-linejoin:miter;stroke-miterlimit:4;stroke-dasharray:1.5000001 1.5000001;stroke-dashoffset:.5;stroke-opacity:1" id="path1363" d="M 78.503938,166.59617 L 78.503938,88.939758"/><path style="fill:url(#radialGradient2041);fill-opacity:1;fill-rule:evenodd;stroke:none;stroke-width:1pt;stroke-linecap:butt;stroke-linejoin:miter;stroke-opacity:1" id="path1306" d="M 111.14932 178.16748 A 5.8353391 5.8353391 0 1 1 99.478641,178.16748 A 5.8353391 5.8353391 0 1 1 111.14932 178.16748 z" transform="matrix(1.285266,0.000000,0.000000,1.285266,-57.01399,-142.5084)"/><path style="fill:none;fill-opacity:.75;fill-rule:evenodd;stroke:#000;stroke-width:.25;stroke-linecap:butt;stroke-linejoin:miter;stroke-miterlimit:4;stroke-dasharray:3 3;stroke-dashoffset:0;stroke-opacity:1" id="path2055" d="M 154.84775 175.33926 A 49.903000 49.903000 0 1 1 55.041748,175.33926 A 49.903000 49.903000 0 1 1 154.84775 175.33926 z" transform="translate(-26.64524,-89.21261)"/><path style="fill:url(#radialGradient2045);fill-opacity:1;fill-rule:evenodd;stroke:none;stroke-width:1pt;stroke-linecap:butt;stroke-linejoin:miter;stroke-opacity:1" id="path2043" d="M 111.14932 178.16748 A 5.8353391 5.8353391 0 1 1 99.478641,178.16748 A 5.8353391 5.8353391 0 1 1 111.14932 178.16748 z" transform="matrix(0.342740,0.000000,0.000000,0.342740,42.24717,74.91897)"/><path style="fill:url(#radialGradient3529);fill-opacity:1;fill-rule:evenodd;stroke:none;stroke-width:1pt;stroke-linecap:butt;stroke-linejoin:miter;stroke-opacity:1" id="path3527" d="M 111.14932 178.16748 A 5.8353391 5.8353391 0 1 1 99.478641,178.16748 A 5.8353391 5.8353391 0 1 1 111.14932 178.16748 z" transform="matrix(0.342740,0.000000,0.000000,0.342740,42.24717,-24.87238)"/><text style="font-size:6px;font-style:normal;font-variant:normal;font-weight:400;font-stretch:normal;text-indent:0;text-align:start;text-decoration:none;line-height:125%;letter-spacing:normal;word-spacing:normal;text-transform:none;direction:ltr;block-progression:tb;writing-mode:lr-tb;text-anchor:start;opacity:1;color:#000;fill:#000;fill-opacity:1;fill-rule:nonzero;stroke:none;stroke-width:1pt;stroke-linecap:butt;stroke-linejoin:miter;marker:none;marker-start:none;marker-mid:none;marker-end:none;stroke-miterlimit:4;stroke-dasharray:none;stroke-dashoffset:0;stroke-opacity:1;visibility:visible;display:inline;overflow:visible;font-family:Sans" id="text3535" x="72.447" y="88.437" xml:space="preserve"><tspan id="tspan3537" x="72.447" y="88.437">Sun</tspan></text><text style="font-size:6px;font-style:normal;font-variant:normal;font-weight:400;font-stretch:normal;text-indent:0;text-align:start;text-decoration:none;line-height:125%;letter-spacing:normal;word-spacing:normal;text-transform:none;direction:ltr;block-progression:tb;writing-mode:lr-tb;text-anchor:start;opacity:1;color:#000;fill:#000;fill-opacity:1;fill-rule:nonzero;stroke:none;stroke-width:1pt;stroke-linecap:butt;stroke-linejoin:miter;marker:none;marker-start:none;marker-mid:none;marker-end:none;stroke-miterlimit:4;stroke-dasharray:none;stroke-dashoffset:0;stroke-opacity:1;visibility:visible;display:inline;overflow:visible;font-family:Sans" id="text3539" x="27.915" y="29.617" xml:space="preserve"><tspan id="tspan3541" x="27.915" y="29.617">Earth in January</tspan></text><text style="font-size:6px;font-style:normal;font-variant:normal;font-weight:400;font-stretch:normal;text-indent:0;text-align:start;text-decoration:none;line-height:125%;letter-spacing:normal;word-spacing:normal;text-transform:none;direction:ltr;block-progression:tb;writing-mode:lr-tb;text-anchor:start;opacity:1;color:#000;fill:#000;fill-opacity:1;fill-rule:nonzero;stroke:none;stroke-width:1pt;stroke-linecap:butt;stroke-linejoin:miter;marker:none;marker-start:none;marker-mid:none;marker-end:none;stroke-miterlimit:4;stroke-dasharray:none;stroke-dashoffset:0;stroke-opacity:1;visibility:visible;display:inline;overflow:visible;font-family:Sans" id="text3543" x="39.483" y="144.424" xml:space="preserve"><tspan id="tspan3545" x="39.483" y="144.424">Earth in July</tspan></text><g id="g7264" transform="translate(19.84253,-99.21273)"><path id="path5806" d="M 206.35672,85.622490 L 195.95831,89.590691 L 191.99011,99.989097 L 188.02191,89.590691 L 177.62351,85.622490 L 188.02191,81.654289 L 191.99011,71.255883 L 195.95831,81.654289 L 206.35672,85.622490 z" transform="matrix(0.500344,0.000000,0.000000,0.763610,284.2854,86.78514)" style="opacity:1;fill:#738eff;fill-opacity:1;fill-rule:nonzero;stroke:none;stroke-width:.25;stroke-linecap:round;stroke-linejoin:round;stroke-miterlimit:4;stroke-dasharray:.025 .025;stroke-dashoffset:0;stroke-opacity:1"/><path id="path6534" d="M 385.77796,188.96601 L 379.75999,185.69095 L 376.18580,191.53622 L 376.01310,184.68697 L 369.16386,184.51427 L 375.00912,180.94009 L 371.73407,174.92212 L 377.75204,178.19717 L 381.32622,172.35191 L 381.49892,179.20115 L 388.34817,179.37385 L 382.50290,182.94804 L 385.77796,188.96601 z" transform="translate(0.836143,2.498375)" style="opacity:1;fill:#fbff11;fill-opacity:1;fill-rule:nonzero;stroke:none;stroke-width:.25;stroke-linecap:round;stroke-linejoin:round;stroke-miterlimit:4;stroke-dasharray:.025 .025;stroke-dashoffset:0;stroke-opacity:1"/><path id="path6536" d="M 390.51050 213.45264 A 7.3465605 7.3465605 0 1 1 375.81738,213.45264 A 7.3465605 7.3465605 0 1 1 390.51050 213.45264 z" transform="translate(-2.817402,2.397641)" style="fill:#ff8200;fill-opacity:1;fill-rule:evenodd;stroke:none;stroke-width:1pt;stroke-linecap:butt;stroke-linejoin:miter;stroke-opacity:1"/></g><g id="g7269" transform="matrix(-1.604213e-16,-1.000000,1.000000,-1.604213e-16,144.6378,583.5389)"><path id="path7271" d="M 206.35672,85.622490 L 195.95831,89.590691 L 191.99011,99.989097 L 188.02191,89.590691 L 177.62351,85.622490 L 188.02191,81.654289 L 191.99011,71.255883 L 195.95831,81.654289 L 206.35672,85.622490 z" transform="matrix(0.500344,0.000000,0.000000,0.763610,284.2854,86.78514)" style="opacity:1;fill:#738eff;fill-opacity:1;fill-rule:nonzero;stroke:none;stroke-width:.25;stroke-linecap:round;stroke-linejoin:round;stroke-miterlimit:4;stroke-dasharray:.025 .025;stroke-dashoffset:0;stroke-opacity:1"/><path id="path7273" d="M 385.77796,188.96601 L 379.75999,185.69095 L 376.18580,191.53622 L 376.01310,184.68697 L 369.16386,184.51427 L 375.00912,180.94009 L 371.73407,174.92212 L 377.75204,178.19717 L 381.32622,172.35191 L 381.49892,179.20115 L 388.34817,179.37385 L 382.50290,182.94804 L 385.77796,188.96601 z" transform="translate(0.836143,2.498375)" style="opacity:1;fill:#fbff11;fill-opacity:1;fill-rule:nonzero;stroke:none;stroke-width:.25;stroke-linecap:round;stroke-linejoin:round;stroke-miterlimit:4;stroke-dasharray:.025 .025;stroke-dashoffset:0;stroke-opacity:1"/><path id="path7275" d="M 390.51050 213.45264 A 7.3465605 7.3465605 0 1 1 375.81738,213.45264 A 7.3465605 7.3465605 0 1 1 390.51050 213.45264 z" transform="translate(-2.817402,2.397641)" style="fill:#ff8200;fill-opacity:1;fill-rule:evenodd;stroke:none;stroke-width:1pt;stroke-linecap:butt;stroke-linejoin:miter;stroke-opacity:1"/></g><g id="g7277" transform="matrix(-1.604213e-16,-1.000000,1.000000,-1.604213e-16,144.6378,633.3886)"><path id="path7279" d="M 206.35672,85.622490 L 195.95831,89.590691 L 191.99011,99.989097 L 188.02191,89.590691 L 177.62351,85.622490 L 188.02191,81.654289 L 191.99011,71.255883 L 195.95831,81.654289 L 206.35672,85.622490 z" transform="matrix(0.500344,0.000000,0.000000,0.763610,284.2854,86.78514)" style="opacity:1;fill:#738eff;fill-opacity:1;fill-rule:nonzero;stroke:none;stroke-width:.25;stroke-linecap:round;stroke-linejoin:round;stroke-miterlimit:4;stroke-dasharray:.025 .025;stroke-dashoffset:0;stroke-opacity:1"/><path id="path7281" d="M 385.77796,188.96601 L 379.75999,185.69095 L 376.18580,191.53622 L 376.01310,184.68697 L 369.16386,184.51427 L 375.00912,180.94009 L 371.73407,174.92212 L 377.75204,178.19717 L 381.32622,172.35191 L 381.49892,179.20115 L 388.34817,179.37385 L 382.50290,182.94804 L 385.77796,188.96601 z" transform="translate(0.836143,2.498375)" style="opacity:1;fill:#fbff11;fill-opacity:1;fill-rule:nonzero;stroke:none;stroke-width:.25;stroke-linecap:round;stroke-linejoin:round;stroke-miterlimit:4;stroke-dasharray:.025 .025;stroke-dashoffset:0;stroke-opacity:1"/><path id="path7283" d="M 390.51050 213.45264 A 7.3465605 7.3465605 0 1 1 375.81738,213.45264 A 7.3465605 7.3465605 0 1 1 390.51050 213.45264 z" transform="translate(-2.817402,2.397641)" style="fill:#ff8200;fill-opacity:1;fill-rule:evenodd;stroke:none;stroke-width:1pt;stroke-linecap:butt;stroke-linejoin:miter;stroke-opacity:1"/></g><text style="font-size:12px;font-style:normal;font-variant:normal;font-weight:400;font-stretch:normal;text-indent:0;text-align:start;text-decoration:none;line-height:normal;letter-spacing:normal;word-spacing:normal;text-transform:none;direction:ltr;block-progression:tb;writing-mode:lr-tb;text-anchor:start;opacity:1;color:#000;fill:#000;fill-opacity:1;fill-rule:nonzero;stroke:none;stroke-width:1pt;stroke-linecap:butt;stroke-linejoin:miter;marker:none;marker-start:none;marker-mid:none;marker-end:none;stroke-miterlimit:4;stroke-dasharray:none;stroke-dashoffset:0;stroke-opacity:1;visibility:visible;display:inline;overflow:visible;font-family:helvetica" id="text8741" x="50.556" y="207.257" xml:space="preserve"><tspan id="tspan8743" x="50.556" y="207.257">View from Earth in January</tspan></text><text style="font-size:12px;font-style:normal;font-variant:normal;font-weight:400;font-stretch:normal;text-indent:0;text-align:start;text-decoration:none;line-height:normal;letter-spacing:normal;word-spacing:normal;text-transform:none;direction:ltr;block-progression:tb;writing-mode:lr-tb;text-anchor:start;opacity:1;color:#000;fill:#000;fill-opacity:1;fill-rule:nonzero;stroke:none;stroke-width:1pt;stroke-linecap:butt;stroke-linejoin:miter;marker:none;marker-start:none;marker-mid:none;marker-end:none;stroke-miterlimit:4;stroke-dasharray:none;stroke-dashoffset:0;stroke-opacity:1;visibility:visible;display:inline;overflow:visible;font-family:helvetica" id="text8745" x="50.556" y="257.106" xml:space="preserve"><tspan id="tspan8747" x="50.556" y="257.106">View from Earth in July</tspan></text><path id="path8749" d="M 230.35548,184.71942 L 228.41340,182.26516 L 225.45855,183.29663 L 227.19256,180.69119 L 225.29847,178.19970 L 228.31223,179.04372 L 230.09647,176.47242 L 230.22507,179.59949 L 233.22188,180.50183 L 230.28760,181.59045 L 230.35548,184.71942 z" transform="matrix(1.606596,0.000000,0.000000,1.606596,-7.963622,-85.48127)" style="opacity:1;fill:#f11;fill-opacity:1;fill-rule:nonzero;stroke:none;stroke-width:.15000001;stroke-linecap:round;stroke-linejoin:round;stroke-miterlimit:4;stroke-dasharray:1.8 1.8;stroke-dashoffset:0;stroke-opacity:1"/><path id="path8751" d="M 230.35548,184.71942 L 228.41340,182.26516 L 225.45855,183.29663 L 227.19256,180.69119 L 225.29847,178.19970 L 228.31223,179.04372 L 230.09647,176.47242 L 230.22507,179.59949 L 233.22188,180.50183 L 230.28760,181.59045 L 230.35548,184.71942 z" transform="matrix(1.606596,0.000000,0.000000,1.606596,-72.85514,-34.31630)" style="opacity:1;fill:#f11;fill-opacity:1;fill-rule:nonzero;stroke:none;stroke-width:.15000001;stroke-linecap:round;stroke-linejoin:round;stroke-miterlimit:4;stroke-dasharray:1.8 1.8;stroke-dashoffset:0;stroke-opacity:1"/><path style="fill:none;fill-opacity:.75;fill-rule:evenodd;stroke:#000;stroke-width:.18350375;stroke-linecap:butt;stroke-linejoin:miter;marker-start:none;marker-end:url(#Arrow2Mend);stroke-miterlimit:4;stroke-dasharray:none;stroke-opacity:1" id="path2083" d="M 225.99286,88.663542 A 38.686394,38.686394 0 0 1 226.87177,79.967273" transform="matrix(1.781980,0.000000,0.000000,1.781980,-198.4597,-72.79787)"/><text style="font-size:10px;font-style:italic;font-variant:normal;font-weight:400;font-stretch:normal;text-indent:0;text-align:start;text-decoration:none;line-height:125%;letter-spacing:normal;word-spacing:normal;text-transform:none;direction:ltr;block-progression:tb;writing-mode:lr-tb;text-anchor:start;opacity:1;color:#000;fill:#000;fill-opacity:1;fill-rule:nonzero;stroke:none;stroke-width:1pt;stroke-linecap:butt;stroke-linejoin:miter;marker:none;marker-start:none;marker-mid:none;marker-end:none;stroke-miterlimit:4;stroke-dasharray:none;stroke-dashoffset:0;stroke-opacity:1;visibility:visible;display:inline;overflow:visible;font-family:Sans" id="text2952" x="208.615" y="79.466" xml:space="preserve"><tspan id="tspan2954" x="208.615" y="79.466">p</tspan></text><text style="font-size:6px;font-style:normal;font-variant:normal;font-weight:400;font-stretch:normal;text-indent:0;text-align:start;text-decoration:none;line-height:125%;letter-spacing:normal;word-spacing:normal;text-transform:none;direction:ltr;block-progression:tb;writing-mode:lr-tb;text-anchor:start;opacity:1;color:#000;fill:#000;fill-opacity:1;fill-rule:nonzero;stroke:none;stroke-width:1pt;stroke-linecap:butt;stroke-linejoin:miter;marker:none;marker-start:none;marker-mid:none;marker-end:none;stroke-miterlimit:4;stroke-dasharray:none;stroke-dashoffset:0;stroke-opacity:1;visibility:visible;display:inline;overflow:visible;font-family:Sans" id="text2853" x="15.953" y="112.78" xml:space="preserve"><tspan id="tspan2855" x="15.953" y="112.78">AU</tspan></text><path style="fill:none;fill-opacity:.75;fill-rule:evenodd;stroke:#000;stroke-width:.25;stroke-linecap:square;stroke-linejoin:miter;stroke-miterlimit:4;stroke-dasharray:1.5 1.5;stroke-dashoffset:.49999999;stroke-opacity:1" id="path2110" d="M 272.77612,167.09103 L 272.77612,87.941189"/><path style="fill:none;fill-opacity:.75;fill-rule:evenodd;stroke:#000;stroke-width:.25000027;stroke-linecap:butt;stroke-linejoin:miter;stroke-miterlimit:4;stroke-dasharray:2.0000021 2.0000021;stroke-dashoffset:.50000052;stroke-opacity:1" id="path3612" d="M 72.968428,135.95171 L 16.664598,135.95171"/><path style="fill:none;fill-opacity:.75;fill-rule:evenodd;stroke:#000;stroke-width:.25;stroke-linecap:butt;stroke-linejoin:miter;marker-start:url(#Arrow2Lstart);stroke-miterlimit:4;stroke-dasharray:none;stroke-opacity:1" id="path3614" d="M 20.286677,87.303251 C 20.286677,106.81497 20.286677,106.81497 20.286677,106.81497"/><path id="path4360" d="M 20.286677,133.99165 C 20.286677,114.47991 20.286677,114.47991 20.286677,114.47991" style="fill:none;fill-opacity:.75;fill-rule:evenodd;stroke:#000;stroke-width:.25;stroke-linecap:butt;stroke-linejoin:miter;marker-start:url(#Arrow2Lstart);stroke-miterlimit:4;stroke-dasharray:none;stroke-opacity:1"/><path id="path4362" d="M 270.98768,159.42140 C 186.77415,159.42140 180.89239,159.42140 180.89239,159.42140" style="fill:none;fill-opacity:.75;fill-rule:evenodd;stroke:#000;stroke-width:.25;stroke-linecap:butt;stroke-linejoin:miter;marker-start:url(#Arrow2Lstart);stroke-miterlimit:4;stroke-dasharray:none;stroke-opacity:1"/><path style="fill:none;fill-opacity:.75;fill-rule:evenodd;stroke:#000;stroke-width:.25;stroke-linecap:butt;stroke-linejoin:miter;marker-start:url(#Arrow2Lstart);stroke-miterlimit:4;stroke-dasharray:none;stroke-opacity:1" id="path4364" d="M 80.605652,159.42140 C 164.81916,159.42140 170.70092,159.42140 170.70092,159.42140"/><text style="font-size:10px;font-style:italic;font-variant:normal;font-weight:400;font-stretch:normal;text-indent:0;text-align:start;text-decoration:none;line-height:125%;letter-spacing:normal;word-spacing:normal;text-transform:none;direction:ltr;block-progression:tb;writing-mode:lr-tb;text-anchor:start;opacity:1;color:#000;fill:#000;fill-opacity:1;fill-rule:nonzero;stroke:none;stroke-width:1pt;stroke-linecap:butt;stroke-linejoin:miter;marker:none;marker-start:none;marker-mid:none;marker-end:none;stroke-miterlimit:4;stroke-dasharray:none;stroke-dashoffset:0;stroke-opacity:1;visibility:visible;display:inline;overflow:visible;font-family:Sans" id="text4366" x="172.541" y="162.463" xml:space="preserve"><tspan id="tspan4368" x="172.541" y="162.463">d</tspan></text></g></svg>