<svg xmlns="http://www.w3.org/2000/svg" xmlns:cc="http://web.resource.org/cc/" xmlns:svg="http://www.w3.org/2000/svg" xmlns:xlink="http://www.w3.org/1999/xlink" id="svg2" width="453.543" height="324.213"><defs id="defs4"><marker id="Arrow2Lstart" orient="auto" refX="0" refY="0" style="overflow:visible"><path id="path3020" d="M 8.7185878,4.0337352 L -2.2072895,0.016013256 L 8.7185884,-4.0017078 C 6.9730900,-1.6296469 6.9831476,1.6157441 8.7185878,4.0337352 z" transform="scale(1.1) translate(-5,0)" style="font-size:12;fill-rule:evenodd;stroke-width:.625;stroke-linejoin:round"/></marker><marker id="Arrow2Lend" orient="auto" refX="0" refY="0" style="overflow:visible"><path id="path3029" d="M 8.7185878,4.0337352 L -2.2072895,0.016013256 L 8.7185884,-4.0017078 C 6.9730900,-1.6296469 6.9831476,1.6157441 8.7185878,4.0337352 z" transform="scale(1.1) rotate(180) translate(-5,0)" style="font-size:12;fill-rule:evenodd;stroke-width:.625;stroke-linejoin:round"/></marker><linearGradient id="linearGradient2822"><stop style="stop-color:#00ff5a;stop-opacity:1" id="stop2824" offset="0"/><stop style="stop-color:#0090ff;stop-opacity:1" id="stop2826" offset="1"/></linearGradient><linearGradient id="linearGradient2035"><stop style="stop-color:#ff0;stop-opacity:1" id="stop2037" offset="0"/><stop style="stop-color:#ffa900;stop-opacity:1" id="stop2039" offset="1"/></linearGradient><radialGradient id="radialGradient2041" cx="198.702" cy="197.416" r="22.617" fx="198.702" fy="197.416" gradientUnits="userSpaceOnUse" xlink:href="#linearGradient2035"/><radialGradient id="radialGradient2828" cx="224.55" cy="196.608" r="8.077" fx="224.55" fy="196.608" gradientUnits="userSpaceOnUse" xlink:href="#linearGradient2822"/><radialGradient id="radialGradient2883" cx="224.55" cy="196.608" r="8.077" fx="224.55" fy="196.608" gradientUnits="userSpaceOnUse" xlink:href="#linearGradient2822"/><radialGradient id="radialGradient2891" cx="224.55" cy="196.608" r="8.077" fx="224.55" fy="196.608" gradientUnits="userSpaceOnUse" xlink:href="#linearGradient2822"/><radialGradient id="radialGradient2899" cx="224.55" cy="196.608" r="8.077" fx="224.55" fy="196.608" gradientUnits="userSpaceOnUse" xlink:href="#linearGradient2822"/><radialGradient id="radialGradient3065" cx="224.55" cy="196.608" r="8.077" fx="224.55" fy="196.608" gradientUnits="userSpaceOnUse" xlink:href="#linearGradient2822"/><radialGradient id="radialGradient3073" cx="224.55" cy="196.608" r="8.077" fx="224.55" fy="196.608" gradientUnits="userSpaceOnUse" xlink:href="#linearGradient2822"/><radialGradient id="radialGradient3083" cx="224.55" cy="196.608" r="8.077" fx="224.55" fy="196.608" gradientUnits="userSpaceOnUse" xlink:href="#linearGradient2822"/><radialGradient id="radialGradient3095" cx="224.55" cy="196.608" r="8.077" fx="224.55" fy="196.608" gradientUnits="userSpaceOnUse" xlink:href="#linearGradient2822"/></defs><metadata id="metadata7"/><g id="layer1"><path id="path3085" d="M 75.162931,223.31739 L 361.23136,136.46012" style="fill:none;fill-opacity:.75;fill-rule:evenodd;stroke:#000;stroke-width:.55000001;stroke-linecap:butt;stroke-linejoin:miter;stroke-miterlimit:4;stroke-dasharray:1.1 2.2;stroke-dashoffset:0;stroke-opacity:1"/><path style="fill:none;fill-opacity:.75;fill-rule:evenodd;stroke:#000;stroke-width:.55000001;stroke-linecap:butt;stroke-linejoin:miter;stroke-miterlimit:4;stroke-dasharray:1.1 2.2;stroke-dashoffset:0;stroke-opacity:1" id="path3087" d="M 75.162931,223.31739 L 321.35829,53.158401"/><path style="fill:none;fill-opacity:.75;fill-rule:evenodd;stroke:#000;stroke-width:.55000001;stroke-linecap:butt;stroke-linejoin:miter;stroke-miterlimit:4;stroke-dasharray:1.1 2.2;stroke-dashoffset:0;stroke-opacity:1" id="path2901" d="M 75.162931,223.31739 L 373.16789,223.31739"/><path style="fill:url(#radialGradient2041);fill-opacity:1;fill-rule:evenodd;stroke:none;stroke-width:1pt;stroke-linecap:butt;stroke-linejoin:miter;stroke-opacity:1" id="path1306" d="M 221.31901 197.41595 A 22.616541 22.616541 0 1 1 176.08593,197.41595 A 22.616541 22.616541 0 1 1 221.31901 197.41595 z" transform="matrix(1.431849,0.000000,0.000000,1.431849,-209.8329,-59.35245)"/><path style="fill:none;fill-opacity:.75;fill-rule:evenodd;stroke:#000;stroke-width:1pt;stroke-linecap:butt;stroke-linejoin:miter;stroke-opacity:1" id="path2043" d="M 289.92832,60.257209 A 298.86145,298.86145 0 0 1 363.69235,314.46066" transform="translate(5.213816,-38.71731)"/><g id="g2879" transform="matrix(1.338947,0.000000,0.000000,1.338947,-130.5969,-64.30643)"><path id="path2094" d="M 232.62728 196.60823 A 8.0773363 8.0773363 0 1 1 216.47261,196.60823 A 8.0773363 8.0773363 0 1 1 232.62728 196.60823 z" transform="matrix(1.196390,0.000000,0.000000,1.196390,108.2898,-20.40668)" style="fill:url(#radialGradient2883);fill-opacity:1;fill-rule:evenodd;stroke:none;stroke-width:1pt;stroke-linecap:butt;stroke-linejoin:miter;stroke-opacity:1"/><path id="path2877" d="M 405.13424,208.20518 L 401.85879,215.66206 L 397.03867,209.09700 L 392.21855,202.53194 L 400.31412,201.64012 L 408.40969,200.74831 L 405.13424,208.20518 z" transform="matrix(0.285202,-0.125188,0.125188,0.285202,230.0594,206.0710)" style="opacity:1;fill:#ff0707;fill-opacity:1;fill-rule:nonzero;stroke:none;stroke-width:.25;stroke-linecap:round;stroke-linejoin:round;stroke-miterlimit:4;stroke-dasharray:1 2;stroke-dashoffset:.5;stroke-opacity:1"/></g><path style="fill:none;fill-opacity:.75;fill-rule:evenodd;stroke:#000;stroke-width:.55605203;stroke-linecap:butt;stroke-linejoin:miter;marker-start:url(#Arrow2Lstart);marker-end:none;stroke-miterlimit:4;stroke-dasharray:none;stroke-opacity:1" id="path2903" d="M 389.07434,199.17807 A 20.113289,20.113289 0 0 1 388.30660,231.55707" transform="matrix(0.865027,0.000000,0.000000,0.865027,48.19257,37.26317)"/><g id="g3057" transform="matrix(-1.294208,0.343228,-0.343228,-1.294208,923.2444,285.3757)"><path id="path3059" d="M 232.62728 196.60823 A 8.0773363 8.0773363 0 1 1 216.47261,196.60823 A 8.0773363 8.0773363 0 1 1 232.62728 196.60823 z" transform="matrix(1.196390,0.000000,0.000000,1.196390,108.2898,-20.40668)" style="fill:url(#radialGradient3065);fill-opacity:1;fill-rule:evenodd;stroke:none;stroke-width:1pt;stroke-linecap:butt;stroke-linejoin:miter;stroke-opacity:1"/><path id="path3061" d="M 405.13424,208.20518 L 401.85879,215.66206 L 397.03867,209.09700 L 392.21855,202.53194 L 400.31412,201.64012 L 408.40969,200.74831 L 405.13424,208.20518 z" transform="matrix(0.285202,-0.125188,0.125188,0.285202,230.0594,206.0710)" style="opacity:1;fill:#ff0707;fill-opacity:1;fill-rule:nonzero;stroke:none;stroke-width:.25;stroke-linecap:round;stroke-linejoin:round;stroke-miterlimit:4;stroke-dasharray:1 2;stroke-dashoffset:.5;stroke-opacity:1"/></g><path style="fill:none;fill-opacity:.75;fill-rule:evenodd;stroke:#000;stroke-width:.55605203;stroke-linecap:butt;stroke-linejoin:miter;marker-start:url(#Arrow2Lstart);marker-end:none;stroke-miterlimit:4;stroke-dasharray:none;stroke-opacity:1" id="path3063" d="M 383.97322,196.30754 A 20.113289,20.113289 0 0 1 391.94713,228.27749" transform="matrix(0.865027,0.000000,0.000000,0.865027,35.76455,-49.31622)"/><g id="g3075" transform="matrix(1.122587,-0.729779,0.729779,1.122587,-257.7965,87.07100)"><path id="path3077" d="M 232.62728 196.60823 A 8.0773363 8.0773363 0 1 1 216.47261,196.60823 A 8.0773363 8.0773363 0 1 1 232.62728 196.60823 z" transform="matrix(1.196390,0.000000,0.000000,1.196390,108.2898,-20.40668)" style="fill:url(#radialGradient3083);fill-opacity:1;fill-rule:evenodd;stroke:none;stroke-width:1pt;stroke-linecap:butt;stroke-linejoin:miter;stroke-opacity:1"/><path id="path3079" d="M 405.13424,208.20518 L 401.85879,215.66206 L 397.03867,209.09700 L 392.21855,202.53194 L 400.31412,201.64012 L 408.40969,200.74831 L 405.13424,208.20518 z" transform="matrix(0.285202,-0.125188,0.125188,0.285202,230.0594,206.0710)" style="opacity:1;fill:#ff0707;fill-opacity:1;fill-rule:nonzero;stroke:none;stroke-width:.25;stroke-linecap:round;stroke-linejoin:round;stroke-miterlimit:4;stroke-dasharray:1 2;stroke-dashoffset:.5;stroke-opacity:1"/></g><path style="fill:none;fill-opacity:.75;fill-rule:evenodd;stroke:#000;stroke-width:.55605203;stroke-linecap:butt;stroke-linejoin:miter;marker-start:url(#Arrow2Lstart);marker-end:none;stroke-miterlimit:4;stroke-dasharray:none;stroke-opacity:1" id="path3081" d="M 378.22255,195.02440 A 20.113289,20.113289 0 0 1 394.94760,223.68346" transform="matrix(0.865027,0.000000,0.000000,0.865027,-3.795970,-132.9204)"/><g id="g3089" transform="matrix(1.338595,-3.067962e-2,3.067962e-2,1.338595,-173.5119,-194.9719)"><path id="path3091" d="M 232.62728 196.60823 A 8.0773363 8.0773363 0 1 1 216.47261,196.60823 A 8.0773363 8.0773363 0 1 1 232.62728 196.60823 z" transform="matrix(1.196390,0.000000,0.000000,1.196390,108.2898,-20.40668)" style="fill:url(#radialGradient3095);fill-opacity:1;fill-rule:evenodd;stroke:none;stroke-width:1pt;stroke-linecap:butt;stroke-linejoin:miter;stroke-opacity:1"/><path id="path3093" d="M 405.13424,208.20518 L 401.85879,215.66206 L 397.03867,209.09700 L 392.21855,202.53194 L 400.31412,201.64012 L 408.40969,200.74831 L 405.13424,208.20518 z" transform="matrix(0.285202,-0.125188,0.125188,0.285202,230.0594,206.0710)" style="opacity:1;fill:#ff0707;fill-opacity:1;fill-rule:nonzero;stroke:none;stroke-width:.25;stroke-linecap:round;stroke-linejoin:round;stroke-miterlimit:4;stroke-dasharray:1 2;stroke-dashoffset:.5;stroke-opacity:1"/></g><path id="path3097" d="M 73.893088,80.840982 L 337.10434,81.094949" style="fill:none;fill-opacity:.75;fill-rule:evenodd;stroke:#000;stroke-width:.55000001;stroke-linecap:butt;stroke-linejoin:miter;stroke-miterlimit:4;stroke-dasharray:1.1 2.2;stroke-dashoffset:0;stroke-opacity:1"/><text style="font-size:12px;font-style:normal;font-variant:normal;font-weight:400;font-stretch:normal;text-indent:0;text-align:start;text-decoration:none;line-height:normal;letter-spacing:normal;word-spacing:normal;text-transform:none;direction:ltr;block-progression:tb;writing-mode:lr-tb;text-anchor:start;opacity:1;color:#000;fill:#000;fill-opacity:1;fill-rule:nonzero;stroke:none;stroke-width:1pt;stroke-linecap:butt;stroke-linejoin:miter;marker:none;marker-start:none;marker-mid:none;marker-end:none;stroke-miterlimit:4;stroke-dasharray:none;stroke-dashoffset:0;stroke-opacity:1;visibility:visible;display:inline;overflow:visible;font-family:helvetica" id="text3099" x="396.847" y="226.449" xml:space="preserve"><tspan id="tspan3101" x="396.847" y="226.449">1</tspan></text><text style="font-size:12px;font-style:normal;font-variant:normal;font-weight:400;font-stretch:normal;text-indent:0;text-align:start;text-decoration:none;line-height:normal;letter-spacing:normal;word-spacing:normal;text-transform:none;direction:ltr;block-progression:tb;writing-mode:lr-tb;text-anchor:start;opacity:1;color:#000;fill:#000;fill-opacity:1;fill-rule:nonzero;stroke:none;stroke-width:1pt;stroke-linecap:butt;stroke-linejoin:miter;marker:none;marker-start:none;marker-mid:none;marker-end:none;stroke-miterlimit:4;stroke-dasharray:none;stroke-dashoffset:0;stroke-opacity:1;visibility:visible;display:inline;overflow:visible;font-family:helvetica" id="text3103" x="385.286" y="136.607" xml:space="preserve"><tspan id="tspan3105" x="385.286" y="136.607">2</tspan></text><text style="font-size:12px;font-style:normal;font-variant:normal;font-weight:400;font-stretch:normal;text-indent:0;text-align:start;text-decoration:none;line-height:normal;letter-spacing:normal;word-spacing:normal;text-transform:none;direction:ltr;block-progression:tb;writing-mode:lr-tb;text-anchor:start;opacity:1;color:#000;fill:#000;fill-opacity:1;fill-rule:nonzero;stroke:none;stroke-width:1pt;stroke-linecap:butt;stroke-linejoin:miter;marker:none;marker-start:none;marker-mid:none;marker-end:none;stroke-miterlimit:4;stroke-dasharray:none;stroke-dashoffset:0;stroke-opacity:1;visibility:visible;display:inline;overflow:visible;font-family:helvetica" id="text3107" x="360.251" y="78.131" xml:space="preserve"><tspan id="tspan3109" x="360.251" y="78.131">3</tspan></text><text style="font-size:12px;font-style:normal;font-variant:normal;font-weight:400;font-stretch:normal;text-indent:0;text-align:start;text-decoration:none;line-height:normal;letter-spacing:normal;word-spacing:normal;text-transform:none;direction:ltr;block-progression:tb;writing-mode:lr-tb;text-anchor:start;opacity:1;color:#000;fill:#000;fill-opacity:1;fill-rule:nonzero;stroke:none;stroke-width:1pt;stroke-linecap:butt;stroke-linejoin:miter;marker:none;marker-start:none;marker-mid:none;marker-end:none;stroke-miterlimit:4;stroke-dasharray:none;stroke-dashoffset:0;stroke-opacity:1;visibility:visible;display:inline;overflow:visible;font-family:helvetica" id="text3111" x="335.579" y="35.701" xml:space="preserve"><tspan id="tspan3113" x="335.579" y="35.701">4</tspan></text><path style="fill:none;fill-opacity:.75;fill-rule:evenodd;stroke:#000;stroke-width:.55605203;stroke-linecap:butt;stroke-linejoin:miter;marker-start:url(#Arrow2Lstart);marker-end:none;stroke-miterlimit:4;stroke-dasharray:none;stroke-opacity:1" id="path3115" d="M 381.35621,195.50255 A 20.113289,20.113289 0 0 1 391.94261,228.28269" transform="matrix(0.865027,0.000000,0.000000,0.865027,12.10766,-104.9777)"/></g></svg>