/* XPM */
static char * stellarium_xpm[] = {
"32 32 766 2",
"  	c None",
". 	c #252B5D",
"+ 	c #272C60",
"@ 	c #292F63",
"# 	c #2D3265",
"$ 	c #313668",
"% 	c #353A6C",
"& 	c #383E6E",
"* 	c #3B4070",
"= 	c #3D4272",
"- 	c #3E4372",
"; 	c #3F4473",
"> 	c #3C4171",
", 	c #3A3F6F",
"' 	c #363B6D",
") 	c #32386A",
"! 	c #2E3467",
"~ 	c #2A3064",
"{ 	c #272C61",
"] 	c #23295D",
"^ 	c #1D2355",
"/ 	c #252A5E",
"( 	c #1F245C",
"_ 	c #191E58",
": 	c #171C58",
"< 	c #1A205A",
"[ 	c #1F255E",
"} 	c #252A62",
"| 	c #2A2E66",
"1 	c #2D3268",
"2 	c #30356A",
"3 	c #32376C",
"4 	c #33386C",
"5 	c #33386D",
"6 	c #33376C",
"7 	c #33376D",
"8 	c #34386D",
"9 	c #32356B",
"0 	c #2E3168",
"a 	c #272B63",
"b 	c #1E235D",
"c 	c #181D59",
"d 	c #141956",
"e 	c #131854",
"f 	c #161B55",
"g 	c #191D58",
"h 	c #22265B",
"i 	c #1B1F58",
"j 	c #111552",
"k 	c #131654",
"l 	c #141856",
"m 	c #1B1959",
"n 	c #1E1E5D",
"o 	c #212561",
"p 	c #272A65",
"q 	c #2A2E67",
"r 	c #2D3069",
"s 	c #2F326B",
"t 	c #30346C",
"u 	c #31346C",
"v 	c #31356C",
"w 	c #32356D",
"x 	c #383A70",
"y 	c #3A3B70",
"z 	c #37386E",
"A 	c #34356C",
"B 	c #303169",
"C 	c #2C2D66",
"D 	c #272963",
"E 	c #1E205D",
"F 	c #141857",
"G 	c #121554",
"H 	c #101451",
"I 	c #121552",
"J 	c #0F124E",
"K 	c #1F2159",
"L 	c #131552",
"M 	c #121453",
"N 	c #141655",
"O 	c #101354",
"P 	c #C7C6D3",
"Q 	c #747298",
"R 	c #1E215F",
"S 	c #262864",
"T 	c #2A2B67",
"U 	c #2C2E69",
"V 	c #2F316B",
"W 	c #30326C",
"X 	c #31336C",
"Y 	c #33356E",
"Z 	c #3B3B72",
"` 	c #3B3A71",
" .	c #393870",
"..	c #36366E",
"+.	c #33336C",
"@.	c #2F2F69",
"#.	c #2B2B66",
"$.	c #282763",
"%.	c #242460",
"&.	c #454577",
"*.	c #121455",
"=.	c #111351",
"-.	c #11134F",
";.	c #0B0C34",
">.	c #1E1E54",
",.	c #1B1B56",
"'.	c #111150",
").	c #0F0F50",
"!.	c #131355",
"~.	c #141557",
"{.	c #3D336E",
"].	c #241E5E",
"^.	c #191A5F",
"/.	c #1C1D68",
"(.	c #252664",
"_.	c #2B2B68",
":.	c #2D2D69",
"<.	c #2E2F6B",
"[.	c #30306C",
"}.	c #393871",
"|.	c #3A3871",
"1.	c #393770",
"2.	c #37356F",
"3.	c #34336D",
"4.	c #31306B",
"5.	c #2E2C68",
"6.	c #2B2966",
"7.	c #282663",
"8.	c #242260",
"9.	c #525080",
"0.	c #696990",
"a.	c #131354",
"b.	c #131352",
"c.	c #13134F",
"d.	c #0E0E3B",
"e.	c #1E1C52",
"f.	c #191854",
"g.	c #120C4E",
"h.	c #979AB0",
"i.	c #23205E",
"j.	c #161457",
"k.	c #19185A",
"l.	c #19175A",
"m.	c #737EAC",
"n.	c #FFFFFF",
"o.	c #1E1C5E",
"p.	c #282766",
"q.	c #2A2967",
"r.	c #2C2A69",
"s.	c #312F6C",
"t.	c #39356F",
"u.	c #38346F",
"v.	c #36336E",
"w.	c #35316D",
"x.	c #322F6B",
"y.	c #302C69",
"z.	c #2D2967",
"A.	c #2A2765",
"B.	c #282463",
"C.	c #252160",
"D.	c #423F74",
"E.	c #CDCCD5",
"F.	c #181757",
"G.	c #151353",
"H.	c #141350",
"I.	c #0F0E3C",
"J.	c #201D53",
"K.	c #1A1654",
"L.	c #4D4473",
"M.	c #FFFFFB",
"N.	c #AAADBE",
"O.	c #151055",
"P.	c #1C185B",
"Q.	c #1D185C",
"R.	c #1B165E",
"S.	c #1A1767",
"T.	c #221E60",
"U.	c #262264",
"V.	c #282465",
"W.	c #2A2666",
"X.	c #332E6B",
"Y.	c #36306D",
"Z.	c #352F6C",
"`.	c #342E6B",
" +	c #322D6A",
".+	c #312B69",
"++	c #2E2967",
"@+	c #2C2766",
"#+	c #2A2564",
"$+	c #282363",
"%+	c #262060",
"&+	c #312C68",
"*+	c #ECECEB",
"=+	c #565381",
"-+	c #161253",
";+	c #161250",
">+	c #110E3B",
",+	c #27235A",
"'+	c #241F5E",
")+	c #1B1354",
"!+	c #5A507C",
"~+	c #190F53",
"{+	c #1A1358",
"]+	c #1D165B",
"^+	c #1F185C",
"/+	c #20195D",
"(+	c #221B5E",
"_+	c #231C60",
":+	c #251E61",
"<+	c #261F62",
"[+	c #282163",
"}+	c #322A69",
"|+	c #332B6A",
"1+	c #332B69",
"2+	c #312968",
"3+	c #2F2767",
"4+	c #2E2666",
"5+	c #2C2465",
"6+	c #2B2364",
"7+	c #292162",
"8+	c #2A2262",
"9+	c #5B5685",
"0+	c #EFEFED",
"a+	c #807D9E",
"b+	c #181253",
"c+	c #191250",
"d+	c #120E3C",
"e+	c #2F2A61",
"f+	c #2F2969",
"g+	c #241D60",
"h+	c #20185C",
"i+	c #1F165A",
"j+	c #1E1559",
"k+	c #1F155A",
"l+	c #20165C",
"m+	c #21175D",
"n+	c #21185D",
"o+	c #23195E",
"p+	c #241B5F",
"q+	c #251B60",
"r+	c #261D61",
"s+	c #312666",
"t+	c #312767",
"u+	c #302666",
"v+	c #2F2566",
"w+	c #2F2465",
"x+	c #2E2364",
"y+	c #2D2263",
"z+	c #2C2163",
"A+	c #2A2061",
"B+	c #281D5F",
"C+	c #B9B7C8",
"D+	c #F3F3F0",
"E+	c #8682A1",
"F+	c #1B1254",
"G+	c #1B1251",
"H+	c #140E3C",
"I+	c #373069",
"J+	c #3A3373",
"K+	c #30276A",
"L+	c #2C2367",
"M+	c #291F64",
"N+	c #251A5F",
"O+	c #22165B",
"P+	c #21145A",
"Q+	c #1F1158",
"R+	c #2D246E",
"S+	c #21145B",
"T+	c #24175D",
"U+	c #25185E",
"V+	c #26195F",
"W+	c #2E2264",
"X+	c #312465",
"Y+	c #302364",
"Z+	c #2F2264",
"`+	c #2F2263",
" @	c #2E2163",
".@	c #2D2062",
"+@	c #2C1F61",
"@@	c #4D4279",
"#@	c #E7E7E8",
"$@	c #F1F2EE",
"%@	c #6B648D",
"&@	c #1E1254",
"*@	c #1E1251",
"=@	c #160E3C",
"-@	c #3F3770",
";@	c #453D7E",
">@	c #3A3074",
",@	c #372C71",
"'@	c #33276E",
")@	c #302269",
"!@	c #2A1B63",
"~@	c #200F58",
"{@	c #4D498A",
"]@	c #B2BAD0",
"^@	c #241259",
"/@	c #2B1A5E",
"(@	c #26165D",
"_@	c #27175D",
":@	c #2C1D61",
"<@	c #312163",
"[@	c #302063",
"}@	c #302062",
"|@	c #2F1F62",
"1@	c #2C1C60",
"2@	c #BEBBCA",
"3@	c #ECECEA",
"4@	c #EEEFEB",
"5@	c #312362",
"6@	c #211255",
"7@	c #201251",
"8@	c #180E3C",
"9@	c #443E76",
"0@	c #4A4282",
"a@	c #44397E",
"b@	c #42357B",
"c@	c #3E3078",
"d@	c #3A2B74",
"e@	c #31216C",
"f@	c #888AB5",
"g@	c #C8D0DD",
"h@	c #1B0655",
"i@	c #69628D",
"j@	c #463870",
"k@	c #27145C",
"l@	c #28155D",
"m@	c #2A175E",
"n@	c #321F63",
"o@	c #321F62",
"p@	c #311E62",
"q@	c #332163",
"r@	c #2E1C60",
"s@	c #9D96B2",
"t@	c #EDEEEB",
"u@	c #ECEDEA",
"v@	c #A39DB4",
"w@	c #241257",
"x@	c #241255",
"y@	c #231252",
"z@	c #1A0D3D",
"A@	c #464178",
"B@	c #4B4584",
"C@	c #494083",
"D@	c #4B3E84",
"E@	c #493A82",
"F@	c #45347E",
"G@	c #3C2976",
"H@	c #ACB1CC",
"I@	c #2B1565",
"J@	c #2E1762",
"K@	c #2B145D",
"L@	c #2B145E",
"M@	c #2F1960",
"N@	c #351F63",
"O@	c #341E63",
"P@	c #341E62",
"Q@	c #331D62",
"R@	c #372165",
"S@	c #402C6C",
"T@	c #B3ACC1",
"U@	c #EBECE9",
"V@	c #D3D2D7",
"W@	c #331E61",
"X@	c #281258",
"Y@	c #271256",
"Z@	c #261253",
"`@	c #1D0D3D",
" #	c #48437A",
".#	c #4D4986",
"+#	c #4B4385",
"@#	c #4D4387",
"##	c #4F4188",
"$#	c #4F3E87",
"%#	c #4B3682",
"&#	c #432C7B",
"*#	c #402875",
"=#	c #3B226F",
"-#	c #351B67",
";#	c #301560",
">#	c #2D115D",
",#	c #290C5A",
"'#	c #2A0E5B",
")#	c #2E125E",
"!#	c #351B63",
"~#	c #523C77",
"{#	c #523C78",
"]#	c #4E3875",
"^#	c #8C7FA3",
"/#	c #D1CED6",
"(#	c #EFF0EC",
"_#	c #EEF0EB",
":#	c #C6C2CD",
"<#	c #3E2769",
"[#	c #2C125B",
"}#	c #2C1259",
"|#	c #2E1358",
"1#	c #321454",
"2#	c #28103E",
"3#	c #4A487C",
"4#	c #4F4F89",
"5#	c #4D4A88",
"6#	c #50498A",
"7#	c #52488B",
"8#	c #53468C",
"9#	c #54438B",
"0#	c #523D87",
"a#	c #4C3581",
"b#	c #462E7A",
"c#	c #402672",
"d#	c #391E69",
"e#	c #2E1261",
"f#	c #C9D3DD",
"g#	c #7F80AE",
"h#	c #2F1362",
"i#	c #321660",
"j#	c #3E2369",
"k#	c #7F7099",
"l#	c #B2ABBE",
"m#	c #DBDADD",
"n#	c #D7D6DA",
"o#	c #B5AFC1",
"p#	c #715F8F",
"q#	c #30145F",
"r#	c #32155E",
"s#	c #36175C",
"t#	c #3F1A5B",
"u#	c #491E59",
"v#	c #562456",
"w#	c #431C40",
"x#	c #4C4D7E",
"y#	c #52558C",
"z#	c #50518B",
"A#	c #52508D",
"B#	c #544F8E",
"C#	c #564D8E",
"D#	c #574A8E",
"E#	c #59478D",
"F#	c #57428A",
"G#	c #513983",
"H#	c #4B327C",
"I#	c #442A74",
"J#	c #3B1F6B",
"K#	c #4C387C",
"L#	c #381D69",
"M#	c #351862",
"N#	c #361962",
"O#	c #361862",
"P#	c #351762",
"Q#	c #341762",
"R#	c #371861",
"S#	c #3F1B61",
"T#	c #4C2160",
"U#	c #5C285F",
"V#	c #6D2F5D",
"W#	c #7B365A",
"X#	c #873D55",
"Y#	c #632E3F",
"Z#	c #4F527F",
"`#	c #4F5584",
" $	c #4E5285",
".$	c #565890",
"+$	c #575791",
"@$	c #595592",
"#$	c #595191",
"$$	c #5C4F94",
"%$	c #63559A",
"&$	c #5A458B",
"*$	c #563D85",
"=$	c #4F357E",
"-$	c #482D76",
";$	c #41246D",
">$	c #3B1D66",
",$	c #3A1C64",
"'$	c #391B64",
")$	c #3C1C64",
"!$	c #442064",
"~$	c #542664",
"{$	c #692F64",
"]$	c #7F3962",
"^$	c #90445E",
"/$	c #994A5B",
"($	c #9B4E59",
"_$	c #974E55",
":$	c #6D3940",
"<$	c #2E3048",
"[$	c #131522",
"}$	c #15182A",
"|$	c #515686",
"1$	c #40436B",
"2$	c #5F6099",
"3$	c #5C5994",
"4$	c #8787B2",
"5$	c #BEC2D1",
"6$	c #5D4C8E",
"7$	c #604B8E",
"8$	c #5A4287",
"9$	c #533980",
"0$	c #4C3178",
"a$	c #462970",
"b$	c #402269",
"c$	c #3F2167",
"d$	c #3F2168",
"e$	c #482468",
"f$	c #592B68",
"g$	c #703568",
"h$	c #894266",
"i$	c #9C4E63",
"j$	c #A35561",
"k$	c #A55960",
"l$	c #A45A5E",
"m$	c #A25B5C",
"n$	c #9C5C5A",
"o$	c #704142",
"p$	c #0D0D0E",
"q$	c #0A0A09",
"r$	c #020203",
"s$	c #1D2033",
"t$	c #000001",
"u$	c #2B2E4A",
"v$	c #6869A1",
"w$	c #64619C",
"x$	c #635C9B",
"y$	c #635894",
"z$	c #645492",
"A$	c #64508F",
"B$	c #5E4688",
"C$	c #583E81",
"D$	c #51367A",
"E$	c #4A2D72",
"F$	c #44276C",
"G$	c #43266B",
"H$	c #4A286B",
"I$	c #582E6B",
"J$	c #6F386B",
"K$	c #8B476A",
"L$	c #A05567",
"M$	c #A85C66",
"N$	c #AA6166",
"O$	c #AA6464",
"P$	c #A96A67",
"Q$	c #A86C66",
"R$	c #A66E64",
"S$	c #A06B5F",
"T$	c #734C47",
"U$	c #1D1C1D",
"V$	c #1B1B1B",
"W$	c #0A0A0A",
"X$	c #000000",
"Y$	c #040403",
"Z$	c #151727",
"`$	c #3E4060",
" %	c #434265",
".%	c #6C669D",
"+%	c #695E96",
"@%	c #695A94",
"#%	c #685491",
"$%	c #634B8A",
"%%	c #5C4283",
"&%	c #553A7B",
"*%	c #4F3274",
"=%	c #56316F",
"-%	c #6B3A6F",
";%	c #87486E",
">%	c #9F586C",
",%	c #A9626B",
"'%	c #AC676B",
")%	c #AD6C6B",
"!%	c #AE746E",
"~%	c #AE776D",
"{%	c #AE786B",
"]%	c #AC7968",
"^%	c #A97966",
"/%	c #A37662",
"(%	c #755549",
"_%	c #232224",
":%	c #1F1F1F",
"<%	c #121212",
"[%	c #0F0F0F",
"}%	c #0D0D0D",
"|%	c #5A5881",
"1%	c #716B9E",
"2%	c #6F6599",
"3%	c #6F6096",
"4%	c #6C5992",
"5%	c #664F8B",
"6%	c #644884",
"7%	c #6C477D",
"8%	c #7F4B76",
"9%	c #995871",
"0%	c #A8666F",
"a%	c #AC6C6F",
"b%	c #AE7170",
"c%	c #B07973",
"d%	c #B27E73",
"e%	c #B28171",
"f%	c #B1836F",
"g%	c #B1876F",
"h%	c #B08C73",
"i%	c #AF8F75",
"j%	c #A98E74",
"k%	c #796553",
"l%	c #212021",
"m%	c #242424",
"n%	c #171717",
"o%	c #141414",
"p%	c #111111",
"q%	c #0E0E0E",
"r%	c #0C0C0C",
"s%	c #090909",
"t%	c #030302",
"u%	c #3B3A54",
"v%	c #4F4B6D",
"w%	c #726897",
"x%	c #76679A",
"y%	c #786093",
"z%	c #815F8C",
"A%	c #936485",
"B%	c #A66D7C",
"C%	c #AB7075",
"D%	c #AD7474",
"E%	c #AF7D78",
"F%	c #B28277",
"G%	c #B38677",
"H%	c #B48A76",
"I%	c #B7937B",
"J%	c #B99D82",
"K%	c #BAA488",
"L%	c #B8A78D",
"M%	c #B5A88E",
"N%	c #ADA28B",
"O%	c #7C7363",
"P%	c #222222",
"Q%	c #2A2A2A",
"R%	c #1C1C1C",
"S%	c #181818",
"T%	c #161616",
"U%	c #131313",
"V%	c #101010",
"W%	c #0B0B0B",
"X%	c #050504",
"Y%	c #030209",
"Z%	c #5F5372",
"`%	c #94799B",
" &	c #A37C94",
".&	c #AD818A",
"+&	c #AF8184",
"@&	c #B18381",
"#&	c #B4877E",
"$&	c #B78D7E",
"%&	c #BA937E",
"&&	c #BF9F86",
"*&	c #C2AA8F",
"=&	c #B5A690",
"-&	c #A4998B",
";&	c #958A83",
">&	c #857B79",
",&	c #796F70",
"'&	c #6C6165",
")&	c #4F4749",
"!&	c #262526",
"~&	c #2F2F2F",
"{&	c #212121",
"]&	c #1D1D1D",
"^&	c #151515",
"/&	c #060606",
"(&	c #604E57",
"_&	c #B18F96",
":&	c #BB9698",
"<&	c #AF8D8C",
"[&	c #987A78",
"}&	c #846969",
"|&	c #725C60",
"1&	c #5F4E59",
"2&	c #493A4E",
"3&	c #352640",
"4&	c #33233D",
"5&	c #33233C",
"6&	c #33233B",
"7&	c #312239",
"8&	c #302633",
"9&	c #292929",
"0&	c #343434",
"a&	c #262626",
"b&	c #1C1D1D",
"c&	c #1A1A1A",
"d&	c #070707",
"e&	c #342B39",
"f&	c #473C50",
"g&	c #52465B",
"h&	c #504459",
"i&	c #504358",
"j&	c #514458",
"k&	c #524558",
"l&	c #524559",
"m&	c #514457",
"n&	c #504356",
"o&	c #4F4254",
"p&	c #4D4152",
"q&	c #3D353F",
"r&	c #2C2C2C",
"s&	c #393939",
"t&	c #272727",
"u&	c #222121",
"v&	c #191919",
"w&	c #211B25",
"x&	c #544B58",
"y&	c #665C6A",
"z&	c #6E6372",
"A&	c #6F6473",
"B&	c #6D6372",
"C&	c #6C6271",
"D&	c #6B6170",
"E&	c #6A606F",
"F&	c #594F5D",
"G&	c #261F2C",
"H&	c #2C2C2D",
"I&	c #3D3C3C",
"J&	c #2B2B2B",
"K&	c #1E1E1E",
"L&	c #020202",
"M&	c #060209",
"N&	c #1A151E",
"O&	c #29232D",
"P&	c #2D2631",
"Q&	c #27212B",
"R&	c #1B1620",
"S&	c #05000A",
"T&	c #414141",
"U&	c #323232",
"V&	c #2D2D2D",
"W&	c #282828",
"X&	c #252525",
"Y&	c #232323",
"Z&	c #202020",
"`&	c #050505",
" *	c #404040",
".*	c #383838",
"+*	c #373737",
"@*	c #353535",
"#*	c #333333",
"$*	c #303030",
"%*	c #2E2E2E",
"&*	c #080808",
"**	c #010101",
"=*	c #363636",
"-*	c #3B3B3B",
";*	c #363736",
">*	c #323231",
",*	c #2B2B2A",
"'*	c #292928",
")*	c #272726",
"!*	c #242423",
"~*	c #1F1F1E",
"{*	c #1E1E1D",
"]*	c #1C1D1C",
"^*	c #0E0C10",
"/*	c #120F15",
"(*	c #131016",
"_*	c #131116",
":*	c #141117",
"<*	c #141217",
"[*	c #141218",
"}*	c #151218",
"|*	c #151318",
"1*	c #0D0B0F",
"      . + @ # $ % & * = - ; ; ; ; ; - > , ' ) ! ~ { ] ^         ",
"    / ( _ : < [ } | 1 2 3 4 4 4 5 6 7 8 9 0 a b c d e f g       ",
"  h i j k l m n o p q r s t u v w x y z A B C D E F G H I J     ",
"  K L M N O P Q R S T U V W X Y Z `  ...+.@.#.$.%.&.*.M =.-.;.  ",
">.,.'.).!.~.{.].^./.(._.:.<.[.}.|.1.2.3.4.5.6.7.8.9.0.a.b.c.d.  ",
"e.f.g.h.i.j.k.l.m.n.o.p.q.r.s.t.u.v.w.x.y.z.A.B.C.D.E.F.G.H.I.  ",
"J.K.L.M.N.O.P.Q.R.S.T.U.V.W.X.Y.Z.`. +.+++@+#+$+%+&+*+=+-+;+>+  ",
",+'+)+!+~+{+]+^+/+(+_+:+<+[+}+|+1+}+2+3+4+5+6+7+8+9+0+a+b+c+d+  ",
"e+f+g+h+i+j+k+l+m+n+o+p+q+r+s+t+t+u+v+w+x+y+z+A+B+C+D+E+F+G+H+  ",
"I+J+K+L+M+N+O+P+Q+R+S+T+U+V+W+X+Y+Y+Z+`+ @ @.@+@@@#@$@%@&@*@=@  ",
"-@;@>@,@'@)@!@~@{@]@^@/@(@_@:@<@<@<@[@[@}@|@[@1@2@3@4@5@6@7@8@  ",
"9@0@a@b@c@d@e@f@g@h@i@j@k@l@m@n@n@n@o@o@p@q@r@s@t@u@v@w@x@y@z@  ",
"A@B@C@D@E@F@G@H@I@J@K@K@K@K@L@M@N@O@P@Q@R@S@T@t@U@V@W@X@Y@Z@`@  ",
" #.#+#@###$#%#&#*#=#-#;#>#,#'#)#!#~#{#]#^#/#(#_#:#<#[#}#|#1#2#  ",
"3#4#5#6#7#8#9#0#a#b#c#d#e#f#g#h#i#j#k#l#m#n#o#p#q#r#s#t#u#v#w#  ",
"x#y#z#A#B#C#D#E#F#G#H#I#J#K#L#M#N#N#O#M#M#P#Q#R#S#T#U#V#W#X#Y#  ",
"Z#`# $.$+$@$#$$$%$&$*$=$-$;$>$,$,$,$,$,$'$)$!$~${$]$^$/$($_$:$  ",
"<$[$}$|$1$2$3$4$5$6$7$8$9$0$a$b$c$c$d$d$e$f$g$h$i$j$k$l$m$n$o$  ",
"p$q$r$s$t$u$v$w$x$y$z$A$B$C$D$E$F$G$H$I$J$K$L$M$N$O$P$Q$R$S$T$  ",
"U$V$W$X$Y$X$Z$`$ %.%+%@%#%$%%%&%*%=%-%;%>%,%'%)%!%~%{%]%^%/%(%  ",
"_%:%<%[%}%W$X$X$X$|%1%2%3%4%5%6%7%8%9%0%a%b%c%d%e%f%g%h%i%j%k%  ",
"l%m%n%o%p%q%r%s%t%X$u%v%w%x%y%z%A%B%C%D%E%F%G%H%I%J%K%L%M%N%O%  ",
"P%Q%R%S%T%U%V%}%W%X%X$X$Y%Z%`% &.&+&@&#&$&%&&&*&=&-&;&>&,&'&)&  ",
"!&~&{&]&V$S%^&<%[%}%W%/&X$X$(&_&:&<&[&}&|&1&2&3&4&4&5&5&6&7&8&  ",
"9&0&a&P%:%b&c&n%o%p%[%}%W%d&X$X$e&f&g&h&i&j&k&l&k&m&n&o&o&p&q&  ",
"r&s&Q%t&m%u&:%R%v&T%o%p%[%}%r%X$X$X$w&x&y&z&A&B&C&D&E&E&F&G&X$  ",
"H&I&~&J&9&a&m%{&K&V$v&T%o%<%V%[%}%L&X$X$X$M&N&O&P&Q&R&S&X$X$X$  ",
"  T&U&~&V&Q%W&X&Y&Z&]&V$v&n%^&U%<%V%V%`&X$X$X$X$X$X$X$X$X$X$X$  ",
"   *.*+*@*#*$*%*J&9&a&m%{&:%]&V$c&S%n%T%T%^&o%p%}%W$&*&*&*r%**  ",
"    =*s&-*-*s&;*0&>*~&V&,*'*)*X&!*P%{&Z&:%~*K&K&K&{*]*c&T%/&    ",
"      ^*/*(*(*_*:*:*:*<*[*[*}*}*}*}*}*}*|*|*|*}*}*}*_*1*X$      ",
"                                                                "};
