/* XPM */
static char * stellarium_xpm[] = {
"32 32 671 2",
"  	c None",
". 	c #000000",
"+ 	c #020103",
"@ 	c #020203",
"# 	c #020102",
"$ 	c #010102",
"% 	c #010002",
"& 	c #000002",
"* 	c #000001",
"= 	c #362E67",
"- 	c #38306C",
"; 	c #38306B",
"> 	c #37306A",
", 	c #362F69",
"' 	c #362D68",
") 	c #342C67",
"! 	c #342C66",
"~ 	c #332A64",
"{ 	c #322963",
"] 	c #302761",
"^ 	c #2F2660",
"/ 	c #2E245E",
"( 	c #2C235C",
"_ 	c #2B225A",
": 	c #292058",
"< 	c #261E55",
"[ 	c #251C53",
"} 	c #221950",
"| 	c #21164E",
"1 	c #1F154C",
"2 	c #1E1348",
"3 	c #1B1146",
"4 	c #190E43",
"5 	c #160C43",
"6 	c #0D062A",
"7 	c #04020C",
"8 	c #3C346E",
"9 	c #3E3674",
"0 	c #6D6796",
"a 	c #3D3574",
"b 	c #3C3473",
"c 	c #544D82",
"d 	c #3A3371",
"e 	c #3A3170",
"f 	c #39306E",
"g 	c #372F6C",
"h 	c #362D6A",
"i 	c #342C68",
"j 	c #332A66",
"k 	c #312864",
"l 	c #625B88",
"m 	c #2D245F",
"n 	c #2B225E",
"o 	c #291F5A",
"p 	c #281D58",
"q 	c #261C56",
"r 	c #251A54",
"s 	c #231952",
"t 	c #20144E",
"u 	c #1C124A",
"v 	c #1A0E46",
"w 	c #160A44",
"x 	c #060315",
"y 	c #41386F",
"z 	c #443A75",
"A 	c #433A75",
"B 	c #433975",
"C 	c #423974",
"D 	c #403875",
"E 	c #3F3774",
"F 	c #3F3674",
"G 	c #3F3876",
"H 	c #463D7A",
"I 	c #3A3270",
"J 	c #3A306F",
"K 	c #38306E",
"L 	c #342B68",
"M 	c #332A67",
"N 	c #302662",
"O 	c #2E2460",
"P 	c #2C235E",
"Q 	c #2D225E",
"R 	c #322960",
"S 	c #2B2257",
"T 	c #2D235A",
"U 	c #261B52",
"V 	c #1E144C",
"W 	c #1A0E47",
"X 	c #160A43",
"Y 	c #030108",
"Z 	c #483E71",
"` 	c #787098",
" .	c #4B4076",
"..	c #483E76",
"+.	c #493D77",
"@.	c #463D76",
"#.	c #443A76",
"$.	c #443B77",
"%.	c #504780",
"&.	c #6F6A97",
"*.	c #504880",
"=.	c #3F3777",
"-.	c #3C3274",
";.	c #3A3271",
">.	c #362D6C",
",.	c #322966",
"'.	c #302863",
").	c #342964",
"!.	c #332962",
"~.	c #A09BB6",
"{.	c #3D3563",
"].	c #342A60",
"^.	c #281D54",
"/.	c #1F144D",
"(.	c #1C104A",
"_.	c #0C0622",
":.	c #020204",
"<.	c #524473",
"[.	c #554778",
"}.	c #544678",
"|.	c #524578",
"1.	c #504478",
"2.	c #4E4377",
"3.	c #4D4076",
"4.	c #4C4178",
"5.	c #53497E",
"6.	c #A19CB9",
"7.	c #4F467E",
"8.	c #3E3774",
"9.	c #3D3674",
"0.	c #382E6E",
"a.	c #362C6A",
"b.	c #362C68",
"c.	c #382F6A",
"d.	c #40366E",
"e.	c #6D6790",
"f.	c #CECCDA",
"g.	c #393162",
"h.	c #261B56",
"i.	c #1F144E",
"j.	c #140C35",
"k.	c #5C4D75",
"l.	c #60507C",
"m.	c #5E4E7C",
"n.	c #5E4F7C",
"o.	c #594C7B",
"p.	c #564978",
"q.	c #544779",
"r.	c #564A7C",
"s.	c #554A7E",
"t.	c #52477C",
"u.	c #493E77",
"v.	c #463C77",
"w.	c #433B74",
"x.	c #413875",
"y.	c #3E3676",
"z.	c #3E3675",
"A.	c #3C3674",
"B.	c #3B3271",
"C.	c #3C336E",
"D.	c #453D74",
"E.	c #4F477B",
"F.	c #EEECF2",
"G.	c #928EA8",
"H.	c #3E366B",
"I.	c #2E245B",
"J.	c #241A53",
"K.	c #18103B",
"L.	c #685678",
"M.	c #6C5A7D",
"N.	c #6A597D",
"O.	c #756689",
"P.	c #766689",
"Q.	c #75668A",
"R.	c #64557E",
"S.	c #5E4E7A",
"T.	c #5A4C7A",
"U.	c #574A7A",
"V.	c #665B88",
"W.	c #4C4277",
"X.	c #4A3E79",
"Y.	c #463C76",
"Z.	c #3F3676",
"`.	c #3D3473",
" +	c #3E3673",
".+	c #4A4279",
"++	c #544C80",
"@+	c #D7D5E0",
"#+	c #EEEEF2",
"$+	c #3E3769",
"%+	c #372C66",
"&+	c #2A2059",
"*+	c #1A133E",
"=+	c #76607A",
"-+	c #7A6480",
";+	c #7C6682",
">+	c #826F8A",
",+	c #F8F6F8",
"'+	c #9F91A8",
")+	c #756485",
"!+	c #6A587D",
"~+	c #66557D",
"{+	c #62527C",
"]+	c #5E4E7B",
"^+	c #5B4C7A",
"/+	c #57487A",
"(+	c #534778",
"_+	c #4E4279",
":+	c #4B3F77",
"<+	c #463D77",
"[+	c #403776",
"}+	c #3F3875",
"|+	c #433B77",
"1+	c #4F477F",
"2+	c #5C5688",
"3+	c #DAD9E4",
"4+	c #FDFCFD",
"5+	c #5C5484",
"6+	c #40386E",
"7+	c #2E245F",
"8+	c #1D1641",
"9+	c #020202",
"0+	c #846B7D",
"a+	c #A492A1",
"b+	c #887084",
"c+	c #937C92",
"d+	c #ADA0AE",
"e+	c #968298",
"f+	c #806A86",
"g+	c #786180",
"h+	c #725E7F",
"i+	c #6E5A7D",
"j+	c #68587C",
"k+	c #64547D",
"l+	c #60527C",
"m+	c #5D4E7B",
"n+	c #57497A",
"o+	c #4D4278",
"p+	c #4A3E77",
"q+	c #453C77",
"r+	c #423A76",
"s+	c #48407A",
"t+	c #564E86",
"u+	c #6A6494",
"v+	c #F2F1F6",
"w+	c #FEFEFE",
"x+	c #716B95",
"y+	c #483F74",
"z+	c #332864",
"A+	c #201945",
"B+	c #040404",
"C+	c #947880",
"D+	c #997C87",
"E+	c #987C86",
"F+	c #977A88",
"G+	c #977E8C",
"H+	c #917888",
"I+	c #8A7284",
"J+	c #866E83",
"K+	c #877289",
"L+	c #847088",
"M+	c #786582",
"N+	c #735E7E",
"O+	c #6D5A7E",
"P+	c #68567E",
"Q+	c #5C4C7B",
"R+	c #56497A",
"S+	c #52447A",
"T+	c #4E4178",
"U+	c #4D427A",
"V+	c #524A80",
"W+	c #625A8D",
"X+	c #9691B3",
"Y+	c #696491",
"Z+	c #362D69",
"`+	c #221B48",
" @	c #050404",
".@	c #A48584",
"+@	c #AA8A8A",
"@@	c #A88F96",
"#@	c #A58589",
"$@	c #A28388",
"%@	c #9E8087",
"&@	c #997C86",
"*@	c #9A7E8A",
"=@	c #AE9AA4",
"-@	c #AF9EAC",
";@	c #8B7489",
">@	c #806982",
",@	c #7C6884",
"'@	c #776482",
")@	c #705D80",
"!@	c #6A5980",
"~@	c #64537E",
"{@	c #5D507D",
"]@	c #5A4D7C",
"^@	c #5C5182",
"/@	c #645B8A",
"(@	c #726B97",
"_@	c #E5E4EC",
":@	c #FFFFFF",
"<@	c #F9F9FB",
"[@	c #524B82",
"}@	c #48417A",
"|@	c #39306C",
"1@	c #251E4C",
"2@	c #B69286",
"3@	c #BD988E",
"4@	c #BA968D",
"5@	c #B8948D",
"6@	c #B4908C",
"7@	c #AF8E8B",
"8@	c #A8898C",
"9@	c #A98E94",
"0@	c #A48992",
"a@	c #977D8A",
"b@	c #907687",
"c@	c #988295",
"d@	c #7E667E",
"e@	c #83708A",
"f@	c #7D6A88",
"g@	c #766586",
"h@	c #706286",
"i@	c #6F6289",
"j@	c #72668E",
"k@	c #7B7298",
"l@	c #D2CFDD",
"m@	c #B6B3CB",
"n@	c #575086",
"o@	c #463E79",
"p@	c #3A326F",
"q@	c #28214E",
"r@	c #060404",
"s@	c #C9A18B",
"t@	c #D1A891",
"u@	c #CEA691",
"v@	c #CAA490",
"w@	c #C8A090",
"x@	c #C29D8F",
"y@	c #CCB0A8",
"z@	c #B8948C",
"A@	c #B3908E",
"B@	c #B89FA0",
"C@	c #A2848C",
"D@	c #947986",
"E@	c #D8D0D5",
"F@	c #A490A0",
"G@	c #907C92",
"H@	c #8C7A93",
"I@	c #887894",
"J@	c #8B7D9B",
"K@	c #A69DB5",
"L@	c #E8E6EC",
"M@	c #F8F8FA",
"N@	c #61598A",
"O@	c #585087",
"P@	c #443C7A",
"Q@	c #3D3573",
"R@	c #2A2452",
"S@	c #060504",
"T@	c #DDB08E",
"U@	c #E6B895",
"V@	c #E3B494",
"W@	c #DDB294",
"X@	c #DAAF93",
"Y@	c #D6AB92",
"Z@	c #D0A691",
"`@	c #C9A290",
" #	c #C39D8D",
".#	c #BC978C",
"+#	c #BFA4A2",
"@#	c #AF8F8E",
"##	c #AE9194",
"$#	c #A48890",
"%#	c #F8F6F6",
"&#	c #F2EFF2",
"*#	c #E3DEE4",
"=#	c #E4DFE5",
"-#	c #F3F2F4",
";#	c #F7F6F9",
">#	c #80799E",
",#	c #675E8D",
"'#	c #51487F",
")#	c #443C77",
"!#	c #2D2656",
"~#	c #060604",
"{#	c #E8BE98",
"]#	c #F6C69E",
"^#	c #F8C69A",
"/#	c #F6C399",
"(#	c #F1BE96",
"_#	c #EABA95",
":#	c #E2B696",
"<#	c #DDB095",
"[#	c #D7AB92",
"}#	c #D0A492",
"|#	c #C59F90",
"1#	c #BF9A90",
"2#	c #BA9893",
"3#	c #B89B99",
"4#	c #A4868C",
"5#	c #D9CED2",
"6#	c #FCFCFC",
"7#	c #D4D0DA",
"8#	c #837799",
"9#	c #73678F",
"0#	c #5D5184",
"a#	c #625988",
"b#	c #746C98",
"c#	c #413876",
"d#	c #302A5A",
"e#	c #E9CAAC",
"f#	c #F8D2B2",
"g#	c #F7D0AE",
"h#	c #F8CFAA",
"i#	c #F8CCA4",
"j#	c #F9C8A0",
"k#	c #F7C699",
"l#	c #F3C296",
"m#	c #E9BA96",
"n#	c #E2B494",
"o#	c #D8AC94",
"p#	c #D1A792",
"q#	c #C8A292",
"r#	c #C09F93",
"s#	c #BEA19D",
"t#	c #AF9293",
"u#	c #A88E94",
"v#	c #BAA8B0",
"w#	c #C0B2BC",
"x#	c #B4A6B4",
"y#	c #95849C",
"z#	c #837390",
"A#	c #7E6E8E",
"B#	c #6A5C85",
"C#	c #5C4F7D",
"D#	c #50457A",
"E#	c #4A3E78",
"F#	c #453B76",
"G#	c #312A5A",
"H#	c #040403",
"I#	c #EAD6C0",
"J#	c #FADEC7",
"K#	c #FADEC4",
"L#	c #FADBC0",
"M#	c #F8D8BB",
"N#	c #F8D6B5",
"O#	c #F8D1B0",
"P#	c #F6CCA6",
"Q#	c #F9CA9F",
"R#	c #F6C298",
"S#	c #EBBC95",
"T#	c #E2B595",
"U#	c #D7AC94",
"V#	c #CEA694",
"W#	c #C5A195",
"X#	c #BD9C94",
"Y#	c #B99C9B",
"Z#	c #B2979A",
"`#	c #A88F98",
" $	c #A08996",
".$	c #947F92",
"+$	c #86708B",
"@$	c #796684",
"#$	c #6B5A7F",
"$$	c #60517D",
"%$	c #564A7A",
"&$	c #4F4277",
"*$	c #4A3F78",
"=$	c #322C58",
"-$	c #030302",
";$	c #EDE4D8",
">$	c #FCE9D8",
",$	c #FCE4D1",
"'$	c #FBE2CD",
")$	c #FBDEC9",
"!$	c #FADDC4",
"~$	c #FADCC2",
"{$	c #FADABC",
"]$	c #F9D4B4",
"^$	c #F7CEAB",
"/$	c #F9C99F",
"($	c #F6C398",
"_$	c #EBBC96",
":$	c #DFB295",
"<$	c #D4AB93",
"[$	c #CAA493",
"}$	c #BE9A92",
"|$	c #B49490",
"1$	c #AA8C8F",
"2$	c #9F828C",
"3$	c #947A89",
"4$	c #715E7E",
"5$	c #69567C",
"6$	c #56487A",
"7$	c #504379",
"8$	c #352E58",
"9$	c #010101",
"0$	c #E2DBE5",
"a$	c #D6D0D2",
"b$	c #DCD6DA",
"c$	c #EDE8E6",
"d$	c #F6F5F2",
"e$	c #FDF7EC",
"f$	c #FEEDDF",
"g$	c #FCE8D7",
"h$	c #F8D4BA",
"i$	c #F8CEAA",
"j$	c #F9C89E",
"k$	c #F3C096",
"l$	c #E4B896",
"m$	c #D9AC93",
"n$	c #CDA491",
"o$	c #C09B8F",
"p$	c #B4938D",
"q$	c #A9898A",
"r$	c #9E7E88",
"s$	c #907784",
"t$	c #876E84",
"u$	c #7A6580",
"v$	c #6F5C7E",
"w$	c #64537A",
"x$	c #5C4D78",
"y$	c #554879",
"z$	c #3A3259",
"A$	c #0B0010",
"B$	c #0A000F",
"C$	c #0A020F",
"D$	c #0A040F",
"E$	c #0F0A13",
"F$	c #1C1222",
"G$	c #4C3D4A",
"H$	c #7E7478",
"I$	c #B5A9A9",
"J$	c #F0E4D3",
"K$	c #FCE6CE",
"L$	c #F9D7BA",
"M$	c #F8D0AF",
"N$	c #F8CCA5",
"O$	c #F8C499",
"P$	c #EBBB96",
"Q$	c #DBB095",
"R$	c #CBA290",
"S$	c #BC978A",
"T$	c #B3928A",
"U$	c #B08C8C",
"V$	c #AC8C92",
"W$	c #A48592",
"X$	c #997D92",
"Y$	c #8A718F",
"Z$	c #7A6488",
"`$	c #6B5883",
" %	c #5A4B78",
".%	c #41375D",
"+%	c #200A29",
"@%	c #1B0922",
"#%	c #1C0924",
"$%	c #1C0824",
"%%	c #1B0823",
"&%	c #180520",
"*%	c #13041C",
"=%	c #12041B",
"-%	c #1C1022",
";%	c #5D4D55",
">%	c #B1A19B",
",%	c #F7E1CB",
"'%	c #FAD7BC",
")%	c #F8D0AA",
"!%	c #F9D8AA",
"~%	c #F4D6A6",
"{%	c #F4CAA1",
"]%	c #CBAC93",
"^%	c #A1867E",
"/%	c #7E686D",
"(%	c #5A4B56",
"_%	c #483C4B",
":%	c #38303E",
"<%	c #322B3A",
"[%	c #322C3A",
"}%	c #352E38",
"|%	c #372E3A",
"1%	c #2F2830",
"2%	c #1D0826",
"3%	c #180620",
"4%	c #190621",
"5%	c #1A0721",
"6%	c #1A0722",
"7%	c #16051F",
"8%	c #14041C",
"9%	c #27182A",
"0%	c #847674",
"a%	c #A29695",
"b%	c #846D74",
"c%	c #4F4056",
"d%	c #3A334E",
"e%	c #403851",
"f%	c #4A3F55",
"g%	c #504458",
"h%	c #54485A",
"i%	c #56495C",
"j%	c #564A5C",
"k%	c #584A5D",
"l%	c #574A5D",
"m%	c #564A5D",
"n%	c #403645",
"o%	c #220E2A",
"p%	c #1C0C25",
"q%	c #1C0C26",
"r%	c #1C0C24",
"s%	c #190921",
"t%	c #17091E",
"u%	c #322239",
"v%	c #58485E",
"w%	c #6D5C73",
"x%	c #6F5F74",
"y%	c #6C5C72",
"z%	c #6B5B71",
"A%	c #504455",
"B%	c #261630",
"C%	c #211328",
"D%	c #221328",
"E%	c #211329",
"F%	c #201227",
"G%	c #26182D",
"H%	c #3F2F46",
"I%	c #5C4B62",
"J%	c #715E76",
"K%	c #7D6A82",
"L%	c #826F88",
"M%	c #85708A",
"N%	c #88748E",
"O%	c #907A95",
"P%	c #957E9A",
"Q%	c #96809A",
"R%	c #6A5C6E",
"S%	c #281B30",
"T%	c #261A2D",
"U%	c #26192D",
"V%	c #24182C",
"W%	c #23182A",
"X%	c #2C1F32",
"Y%	c #2F2236",
"Z%	c #2F2235",
"`%	c #261A2E",
" &	c #1C1024",
".&	c #140E1A",
"+&	c #130E18",
"@&	c #201824",
"#&	c #2B2132",
"$&	c #2C2232",
"%&	c #2D2232",
"&&	c #2D2332",
"*&	c #211A26",
"=&	c #0E0C10",
"-&	c #322A38",
";&	c #302837",
">&	c #312837",
",&	c #322938",
"'&	c #251E29",
")&	c #1D1A20",
"!&	c #38313D",
"~&	c #36303C",
"{&	c #362F3B",
"]&	c #28242D",
"^&	c #0D0C0E",
"/&	c #221F24",
"(&	c #2D2930",
"_&	c #2D2A32",
":&	c #2D2B32",
"<&	c #2E2B32",
"[&	c #232126",
". + @ @ @ @ + + + + + # # $ $ $ $ $ % % % % % & * . . . .       ",
"+ = - ; > , ' ) ! ~ { ] ^ / ( _ : < [ } | 1 2 3 4 5 6 7 . .     ",
"@ 8 9 9 0 a b c d e f g h i j k l m n o p q r s t u v w x . .   ",
"@ y z A B C D E F G H 9 I J K h L M N O P Q R S T U V W X Y .   ",
"@ Z `  ...+.@.#.$.%.&.*.=.a -.;.K >.i ,.'.).!.~.{.].^./.(._..   ",
":.<.[.}.|.1.2.3.4.5.6.7.$.8.F 9.9 ;.0.a.b.c.d.e.f.g.].h.i.j.. . ",
"# k.l.m.n.n.o.p.q.r.s.t.u.v.w.x.y.z.A.B.K C.D.E.F.G.H.I.J.K.. . ",
". L.M.N.O.P.Q.R.S.T.U.V.1.W.X.Y.#.D Z.9.`. +.+++@+#+$+%+&+*+. . ",
". =+-+;+>+,+'+)+!+~+{+]+^+/+(+_+:+<+z [+}+|+1+2+3+4+5+6+7+8+. . ",
"9+0+a+b+c+d+e+f+g+h+i+j+k+l+m+n+|.o+p+q+r+s+t+u+v+w+x+y+z+A+. . ",
"B+C+D+E+F+G+H+I+J+K+L+M+N+O+P+{+Q+R+S+T+U+V+W+X+w+w+Y+.+Z+`+. . ",
" @.@+@@@#@$@%@&@*@=@-@;@>@,@'@)@!@~@{@]@^@/@(@_@:@<@[@}@|@1@. . ",
" @2@3@4@5@6@7@+@8@9@0@a@b@c@d@e@f@g@h@i@j@k@l@:@:@m@n@o@p@q@. . ",
"r@s@t@u@v@w@x@y@z@A@B@#@C@D@E@F@G@H@I@J@K@L@:@:@M@N@O@P@Q@R@. . ",
"S@T@U@V@W@X@Y@Z@`@ #.#+#@###$#%#&#*#=#-#:@:@:@;#>#,#'#)#z.!#. . ",
"~#{#]#^#/#(#_#:#<#[#}#|#1#2#3#4#5#4+:@:@:@6#7#8#9#0#a#b#c#d#. . ",
"S@e#f#g#h#i#j#k#l#m#n#o#p#q#r#s#t#u#v#w#x#y#z#A#B#C#D#E#F#G#. . ",
"H#I#J#K#L#M#N#O#P#Q#R#S#T#U#V#W#X#Y#Z#`# $.$+$@$#$$$%$&$*$=$. . ",
"-$;$>$,$'$)$!$~${$]$^$/$($_$:$<$[$}$|$1$2$3$b+;+4$5$m.6$7$8$. . ",
"9$0$a$b$c$d$e$f$g$~$h$]$i$j$k$l$m$n$o$p$q$r$s$t$u$v$w$x$y$z$. . ",
". A$B$C$D$E$F$G$H$I$J$K$L$M$N$O$P$Q$R$S$T$U$V$W$X$Y$Z$`$ %.%. . ",
". +%@%#%$%$%%%&%*%=%-%;%>%,%'%)%!%~%{%]%^%/%(%_%:%<%[%}%|%1%. . ",
". 2%3%4%4%4%4%4%4%5%6%7%8%9%0%a%b%c%d%e%f%g%h%i%j%k%l%m%j%n%. . ",
". o%p%q%q%q%q%q%p%p%p%p%r%r%s%t%u%v%w%x%y%z%z%y%y%y%y%y%w%A%. . ",
". B%C%D%D%D%D%D%D%D%D%D%D%D%D%D%E%F%G%H%I%J%K%L%M%N%O%P%Q%R%. . ",
". S%T%T%U%U%U%U%U%U%U%U%U%U%U%T%T%T%T%T%V%W%T%X%Y%Z%`% &.&+&. . ",
". @&#&$&$&$&$&$&$&$&$&$&$&$&$&$&$&$&$&$&$&$&$&$&$&$&%&&&&&*&. . ",
". =&-&;&>&>&>&>&>&>&>&>&>&>&>&>&>&>&>&>&>&>&>&>&>&>&>&>&,&'&. . ",
". . )&!&~&~&~&~&~&~&~&~&{&{&{&{&~&~&~&~&~&{&{&{&~&~&~&~&~&]&. . ",
"  . . ^&/&(&_&_&_&_&_&_&:&:&_&_&_&_&_&_&_&<&<&:&_&_&:&:&<&[&. . ",
"    . . . . . . . . . . . . . . . . . . . . . . . . . . . . . . ",
"        . . . . . . . . . . . . . . . . . . . . . . . . . . .   "};
