<?xml version="1.0" encoding="UTF-8" standalone="no"?>
<!-- Created with Inkscape (http://www.inkscape.org/) -->
<svg
   xmlns:dc="http://purl.org/dc/elements/1.1/"
   xmlns:cc="http://web.resource.org/cc/"
   xmlns:rdf="http://www.w3.org/1999/02/22-rdf-syntax-ns#"
   xmlns:svg="http://www.w3.org/2000/svg"
   xmlns="http://www.w3.org/2000/svg"
   xmlns:xlink="http://www.w3.org/1999/xlink"
   xmlns:sodipodi="http://inkscape.sourceforge.net/DTD/sodipodi-0.dtd"
   xmlns:inkscape="http://www.inkscape.org/namespaces/inkscape"
   width="149.99999mm"
   height="149.99999mm"
   id="svg2"
   sodipodi:version="0.32"
   inkscape:version="0.42.2"
   sodipodi:docbase="/home/mayday/tmp"
   sodipodi:docname="cs-horiz.svg"
   inkscape:export-filename="/home/mayday/tmp/cs-horiz.png"
   inkscape:export-xdpi="100.00000"
   inkscape:export-ydpi="100.00000">
  <defs
     id="defs4">
    <linearGradient
       id="linearGradient3992">
      <stop
         style="stop-color:#000000;stop-opacity:0.0000000;"
         offset="0.0000000"
         id="stop3994" />
      <stop
         id="stop5556"
         offset="1.0000000"
         style="stop-color:#000000;stop-opacity:1.0000000;" />
      <stop
         style="stop-color:#000000;stop-opacity:0;"
         offset="1"
         id="stop3996" />
    </linearGradient>
    <linearGradient
       id="linearGradient2417">
      <stop
         style="stop-color:#808080;stop-opacity:1.0000000;"
         offset="0.0000000"
         id="stop2421" />
      <stop
         id="stop2423"
         offset="1"
         style="stop-color:#000000;stop-opacity:0;" />
    </linearGradient>
    <marker
       inkscape:stockid="Dot_m"
       orient="auto"
       refY="0.0"
       refX="0.0"
       id="Dot_m"
       style="overflow:visible">
      <path
         id="path2491"
         d="M -2.5,-1.0 C -2.5,1.7600000 -4.7400000,4.0 -7.5,4.0 C -10.260000,4.0 -12.5,1.7600000 -12.5,-1.0 C -12.5,-3.7600000 -10.260000,-6.0 -7.5,-6.0 C -4.7400000,-6.0 -2.5,-3.7600000 -2.5,-1.0 z "
         style="fill-rule:evenodd;stroke:#000000;stroke-width:1.0pt;marker-start:none;marker-end:none"
         transform="scale(0.4) translate(7.125493, 1)" />
    </marker>
    <marker
       inkscape:stockid="Dot_l"
       orient="auto"
       refY="0.0"
       refX="0.0"
       id="Dot_l"
       style="overflow:visible">
      <path
         id="path2488"
         d="M -2.5,-1.0 C -2.5,1.7600000 -4.7400000,4.0 -7.5,4.0 C -10.260000,4.0 -12.5,1.7600000 -12.5,-1.0 C -12.5,-3.7600000 -10.260000,-6.0 -7.5,-6.0 C -4.7400000,-6.0 -2.5,-3.7600000 -2.5,-1.0 z "
         style="fill-rule:evenodd;stroke:#000000;stroke-width:1.0pt;marker-start:none;marker-end:none"
         transform="scale(0.8) translate(7.125493, 1)" />
    </marker>
    <marker
       inkscape:stockid="Arrow2Mstart"
       orient="auto"
       refY="0.0"
       refX="0.0"
       id="Arrow2Mstart"
       style="overflow:visible">
      <path
         sodipodi:nodetypes="cccc"
         id="path12380"
         style="font-size:12.0;fill-rule:evenodd;stroke-width:0.62500000;stroke-linejoin:round"
         d="M 8.7185878,4.0337352 L -2.2072895,0.016013256 L 8.7185884,-4.0017078 C 6.9730900,-1.6296469 6.9831476,1.6157441 8.7185878,4.0337352 z "
         transform="scale(0.6) translate(-5,0)" />
    </marker>
    <marker
       inkscape:stockid="TriangleInM"
       orient="auto"
       refY="0.0"
       refX="0.0"
       id="TriangleInM"
       style="overflow:visible">
      <path
         sodipodi:nodetypes="cccc"
         id="path12333"
         d="M 5.77,0.0 L -2.88,5.0 L -2.88,-5.0 L 5.77,0.0 z "
         style="fill-rule:evenodd;stroke:#000000;stroke-width:1.0pt;marker-start:none"
         transform="scale(-0.4)" />
    </marker>
    <marker
       inkscape:stockid="TriangleInL"
       orient="auto"
       refY="0.0"
       refX="0.0"
       id="TriangleInL"
       style="overflow:visible">
      <path
         sodipodi:nodetypes="cccc"
         id="path12336"
         d="M 5.77,0.0 L -2.88,5.0 L -2.88,-5.0 L 5.77,0.0 z "
         style="fill-rule:evenodd;stroke:#000000;stroke-width:1.0pt;marker-start:none"
         transform="scale(-0.8)" />
    </marker>
    <marker
       inkscape:stockid="Arrow1Lstart"
       orient="auto"
       refY="0.0"
       refX="0.0"
       id="Arrow1Lstart"
       style="overflow:visible">
      <path
         sodipodi:nodetypes="ccccc"
         id="path12400"
         d="M 0.0,0.0 L 5.0,-5.0 L -12.5,0.0 L 5.0,5.0 L 0.0,0.0 z "
         style="fill-rule:evenodd;stroke:#000000;stroke-width:1.0pt;marker-start:none"
         transform="scale(0.8)" />
    </marker>
    <marker
       inkscape:stockid="Arrow2Mend"
       orient="auto"
       refY="0.0"
       refX="0.0"
       id="Arrow2Mend"
       style="overflow:visible;">
      <path
         sodipodi:nodetypes="cccc"
         id="path12389"
         style="font-size:12.0;fill-rule:evenodd;stroke-width:0.62500000;stroke-linejoin:round;"
         d="M 8.7185878,4.0337352 L -2.2072895,0.016013256 L 8.7185884,-4.0017078 C 6.9730900,-1.6296469 6.9831476,1.6157441 8.7185878,4.0337352 z "
         transform="scale(0.6) rotate(180) translate(-5,0)" />
    </marker>
    <marker
       inkscape:stockid="Arrow2Lend"
       orient="auto"
       refY="0.0"
       refX="0.0"
       id="Arrow2Lend"
       style="overflow:visible;">
      <path
         sodipodi:nodetypes="cccc"
         id="path12392"
         style="font-size:12.0;fill-rule:evenodd;stroke-width:0.62500000;stroke-linejoin:round;"
         d="M 8.7185878,4.0337352 L -2.2072895,0.016013256 L 8.7185884,-4.0017078 C 6.9730900,-1.6296469 6.9831476,1.6157441 8.7185878,4.0337352 z "
         transform="scale(1.1) rotate(180) translate(-5,0)" />
    </marker>
    <linearGradient
       id="linearGradient4950">
      <stop
         style="stop-color:#cc9900;stop-opacity:1.0000000;"
         offset="0.0000000"
         id="stop4952" />
      <stop
         id="stop5686"
         offset="1.0000000"
         style="stop-color:#ffffff;stop-opacity:1.0000000;" />
      <stop
         style="stop-color:#000000;stop-opacity:0;"
         offset="1"
         id="stop4954" />
    </linearGradient>
    <linearGradient
       inkscape:collect="always"
       xlink:href="#linearGradient4950"
       id="linearGradient4956"
       x1="269.78571"
       y1="306.86832"
       x2="269.78571"
       y2="271.12375"
       gradientUnits="userSpaceOnUse"
       spreadMethod="pad" />
    <linearGradient
       inkscape:collect="always"
       xlink:href="#linearGradient4950"
       id="linearGradient4930"
       gradientUnits="userSpaceOnUse"
       spreadMethod="pad"
       x1="269.78571"
       y1="306.86832"
       x2="269.78571"
       y2="271.12375" />
    <linearGradient
       inkscape:collect="always"
       xlink:href="#linearGradient4950"
       id="linearGradient1619"
       gradientUnits="userSpaceOnUse"
       spreadMethod="pad"
       x1="269.78571"
       y1="306.86832"
       x2="269.78571"
       y2="271.12375" />
    <linearGradient
       inkscape:collect="always"
       xlink:href="#linearGradient3992"
       id="linearGradient3998"
       x1="270.00015"
       y1="271.49603"
       x2="489.50058"
       y2="271.49603"
       gradientUnits="userSpaceOnUse"
       spreadMethod="reflect" />
    <linearGradient
       inkscape:collect="always"
       xlink:href="#linearGradient3992"
       id="linearGradient6338"
       x1="270.00000"
       y1="271.49603"
       x2="290.50000"
       y2="221.55409"
       gradientUnits="userSpaceOnUse"
       spreadMethod="reflect" />
    <linearGradient
       inkscape:collect="always"
       xlink:href="#linearGradient3992"
       id="linearGradient7124"
       x1="270.00000"
       y1="271.49667"
       x2="270.00000"
       y2="481.49414"
       gradientUnits="userSpaceOnUse"
       spreadMethod="reflect" />
    <linearGradient
       inkscape:collect="always"
       xlink:href="#linearGradient3992"
       id="linearGradient15876"
       x1="270.50000"
       y1="291.99603"
       x2="374.00000"
       y2="291.99603"
       gradientUnits="userSpaceOnUse" />
  </defs>
  <sodipodi:namedview
     id="base"
     pagecolor="#ffffff"
     bordercolor="#666666"
     borderopacity="1.0"
     inkscape:pageopacity="0.0"
     inkscape:pageshadow="2"
     inkscape:zoom="1.0000000"
     inkscape:cx="323.80932"
     inkscape:cy="271.52354"
     inkscape:document-units="px"
     inkscape:current-layer="layer1"
     showgrid="true"
     inkscape:grid-points="true"
     inkscape:window-width="722"
     inkscape:window-height="589"
     inkscape:window-x="181"
     inkscape:window-y="59" />
  <metadata
     id="metadata7">
    <rdf:RDF>
      <cc:Work
         rdf:about="">
        <dc:format>image/svg+xml</dc:format>
        <dc:type
           rdf:resource="http://purl.org/dc/dcmitype/StillImage" />
        <dc:title></dc:title>
      </cc:Work>
    </rdf:RDF>
  </metadata>
  <g
     inkscape:label="Layer 1"
     inkscape:groupmode="layer"
     id="layer1">
    <g
       id="g9575">
      <text
         sodipodi:linespacing="125.00000%"
         id="text17652"
         y="211.24408"
         x="295.92969"
         style="font-size:12.000000px;font-style:normal;font-variant:normal;font-weight:normal;font-stretch:normal;text-align:center;line-height:125.00000%;writing-mode:lr-tb;text-anchor:middle;fill:#000000;fill-opacity:1.0000000;stroke:none;stroke-width:1.0000000px;stroke-linecap:butt;stroke-linejoin:miter;stroke-opacity:1.0000000;font-family:Bitstream Vera Sans"
         xml:space="preserve"><tspan
           y="211.24408"
           x="295.92969"
           id="tspan17654"
           sodipodi:role="line">W</tspan></text>
      <text
         sodipodi:linespacing="125.00000%"
         id="text17656"
         y="340.24408"
         x="246.98242"
         style="font-size:12.000000px;font-style:normal;font-variant:normal;font-weight:normal;font-stretch:normal;text-align:center;line-height:125.00000%;writing-mode:lr-tb;text-anchor:middle;fill:#000000;fill-opacity:1.0000000;stroke:none;stroke-width:1.0000000px;stroke-linecap:butt;stroke-linejoin:miter;stroke-opacity:1.0000000;font-family:Bitstream Vera Sans"
         xml:space="preserve"><tspan
           y="340.24408"
           x="246.98242"
           id="tspan17658"
           sodipodi:role="line">E</tspan></text>
      <text
         id="text17664"
         y="275.87006"
         x="488.82227"
         style="font-size:12.000000px;font-style:normal;font-weight:normal;fill:#000000;fill-opacity:1.0000000;stroke:none;stroke-width:1.0000000px;stroke-linecap:butt;stroke-linejoin:miter;stroke-opacity:1.0000000;font-family:Bitstream Vera Sans"
         xml:space="preserve"><tspan
           y="275.87006"
           x="488.82227"
           id="tspan17666"
           sodipodi:role="line">N</tspan></text>
      <text
         id="text17668"
         y="275.8642"
         x="43"
         style="font-size:12.000000px;font-style:normal;font-weight:normal;fill:#000000;fill-opacity:1.0000000;stroke:none;stroke-width:1.0000000px;stroke-linecap:butt;stroke-linejoin:miter;stroke-opacity:1.0000000;font-family:Bitstream Vera Sans"
         xml:space="preserve"><tspan
           y="275.86420"
           x="43.000000"
           id="tspan17670"
           sodipodi:role="line">S</tspan></text>
      <text
         id="text17672"
         y="51.246033"
         x="251.77734"
         style="font-size:12.000000px;font-style:normal;font-weight:normal;fill:#000000;fill-opacity:1.0000000;stroke:none;stroke-width:1.0000000px;stroke-linecap:butt;stroke-linejoin:miter;stroke-opacity:1.0000000;font-family:Bitstream Vera Sans"
         xml:space="preserve"><tspan
           y="51.246033"
           x="251.77734"
           id="tspan17674"
           sodipodi:role="line">zenith</tspan></text>
      <text
         id="text17676"
         y="500.74603"
         x="254.02734"
         style="font-size:12.000000px;font-style:normal;font-weight:normal;fill:#000000;fill-opacity:1.0000000;stroke:none;stroke-width:1.0000000px;stroke-linecap:butt;stroke-linejoin:miter;stroke-opacity:1.0000000;font-family:Bitstream Vera Sans"
         xml:space="preserve"><tspan
           y="500.74603"
           x="254.02734"
           id="tspan17678"
           sodipodi:role="line">nadir</tspan></text>
      <text
         transform="matrix(0.949697,-0.313171,0.313171,0.949697,0.000000,0.000000)"
         sodipodi:linespacing="125.00000%"
         id="text17680"
         y="437.75034"
         x="315.30359"
         style="font-size:12.000062px;font-style:normal;font-variant:normal;font-weight:normal;font-stretch:normal;text-align:center;line-height:125.00000%;writing-mode:lr-tb;text-anchor:middle;fill:#000000;fill-opacity:1.0000000;stroke:none;stroke-width:1.0000000px;stroke-linecap:butt;stroke-linejoin:miter;stroke-opacity:1.0000000;font-family:Bitstream Vera Sans"
         xml:space="preserve"><tspan
           y="437.75034"
           x="315.30359"
           id="tspan17682"
           sodipodi:role="line">azimuth</tspan></text>
      <text
         transform="matrix(0.646250,-0.763126,0.763126,0.646250,0.000000,0.000000)"
         id="text28972"
         y="189.05045"
         x="-57.431896"
         style="font-size:12.000010px;font-style:normal;font-weight:normal;fill:#000000;fill-opacity:1.0000000;stroke:none;stroke-width:1.0000000px;stroke-linecap:butt;stroke-linejoin:miter;stroke-opacity:1.0000000;font-family:Bitstream Vera Sans"
         xml:space="preserve"><tspan
           y="189.05045"
           x="-57.431896"
           id="tspan28974"
           sodipodi:role="line">meridian</tspan></text>
      <path
         id="path2044"
         d="M 270.00000,480.99415 L 270.00000,61.999200"
         style="fill:none;fill-opacity:0.75000000;fill-rule:evenodd;stroke:url(#linearGradient7124);stroke-width:1.0000000;stroke-linecap:butt;stroke-linejoin:miter;marker-start:url(#Dot_m);marker-end:url(#Dot_m);stroke-miterlimit:4.0000000;stroke-dasharray:3.0000000,3.0000000;stroke-dashoffset:3.5999999;stroke-opacity:1.0000000" />
      <path
         transform="matrix(0.990878,0.000000,0.000000,2.820936,2.675282,-543.7433)"
         sodipodi:open="true"
         sodipodi:end="6.2804396"
         sodipodi:start="0.0000000"
         d="M 480.99998,288.99603 A 211.21428,17.500000 0 1 1 480.99919,288.94798"
         sodipodi:ry="17.500000"
         sodipodi:rx="211.21428"
         sodipodi:cy="288.99603"
         sodipodi:cx="269.78571"
         id="path2042"
         style="opacity:1.0000000;fill:url(#linearGradient1619);fill-opacity:1.0000000;stroke:#000000;stroke-width:0.75321299;stroke-linecap:round;stroke-linejoin:round;stroke-miterlimit:4.0000000;stroke-dasharray:none;stroke-dashoffset:0.0000000;stroke-opacity:1.0000000"
         sodipodi:type="arc" />
      <path
         transform="matrix(0.987638,0.000000,0.000000,0.987619,13.21819,12.24997)"
         sodipodi:open="true"
         sodipodi:end="6.2804396"
         sodipodi:start="0.0000000"
         d="M 472.00000,262.49603 A 212.00000,212.00000 0 1 1 471.99920,261.91394"
         sodipodi:ry="212.00000"
         sodipodi:rx="212.00000"
         sodipodi:cy="262.49603"
         sodipodi:cx="260.00000"
         id="path1308"
         style="opacity:1.0000000;fill:none;fill-opacity:1.0000000;stroke:#000000;stroke-width:1.2646968;stroke-linecap:round;stroke-linejoin:round;stroke-miterlimit:4.0000000;stroke-dasharray:none;stroke-dashoffset:0.0000000;stroke-opacity:1.0000000"
         sodipodi:type="arc" />
      <path
         sodipodi:nodetypes="cc"
         id="path2040"
         d="M 60.499703,271.49603 L 479.50059,271.49603"
         style="fill:#000000;fill-opacity:1.0000000;fill-rule:evenodd;stroke:url(#linearGradient3998);stroke-width:1.0000000;stroke-linecap:butt;stroke-linejoin:miter;marker-start:url(#Dot_m);marker-end:url(#Dot_m);stroke-miterlimit:4.0000000;stroke-dasharray:none;stroke-opacity:1.0000000" />
      <path
         transform="matrix(0.992120,0.000000,0.000000,-0.993759,2.443880,540.2976)"
         sodipodi:open="true"
         sodipodi:end="1.5708429"
         sodipodi:start="0.71157905"
         d="M 350.06963,408.63243 A 105.72598,210.00000 0 0 1 269.99508,481.49603"
         sodipodi:ry="210.00000"
         sodipodi:rx="105.72598"
         sodipodi:cy="271.49603"
         sodipodi:cx="270.00000"
         id="path9361"
         style="opacity:1.0000000;fill:none;fill-opacity:1.0000000;stroke:#000000;stroke-width:1.2588888;stroke-linecap:round;stroke-linejoin:round;stroke-miterlimit:4.0000000;stroke-dasharray:none;stroke-dashoffset:0.0000000;stroke-opacity:1.0000000"
         sodipodi:type="arc" />
      <path
         transform="matrix(0.859934,0.510406,-0.510406,0.859934,99.33780,-174.0240)"
         d="M 389.00000,144.49603 L 382.49735,144.39569 L 380.27348,150.50706 L 378.35948,144.29167 L 371.86000,144.06516 L 377.17973,140.32417 L 375.38671,134.07281 L 380.58849,137.97614 L 385.97981,134.33910 L 383.87496,140.49248 L 389.00000,144.49603 z "
         inkscape:randomized="0.0000000"
         inkscape:rounded="0.0000000"
         inkscape:flatsided="false"
         sodipodi:arg2="0.96761113"
         sodipodi:arg1="0.33929260"
         sodipodi:r2="3.5209999"
         sodipodi:r1="9.0138779"
         sodipodi:cy="141.49603"
         sodipodi:cx="380.50000"
         sodipodi:sides="5"
         id="path8633"
         style="opacity:1.0000000;fill:#ffff00;fill-opacity:1.0000000;stroke:#000000;stroke-width:0.62500000;stroke-linecap:round;stroke-linejoin:round;stroke-miterlimit:4.0000000;stroke-dasharray:none;stroke-dashoffset:0.0000000;stroke-opacity:1.0000000"
         sodipodi:type="star" />
      <path
         sodipodi:open="true"
         transform="matrix(0.000000,1.656095,1.672377,0.000000,-182.5336,-175.6496)"
         sodipodi:end="2.1435840"
         sodipodi:start="1.3722243"
         d="M 294.95461,332.72729 A 126.50000,62.968632 0 0 1 201.43992,323.91445"
         sodipodi:ry="62.968632"
         sodipodi:rx="126.50000"
         sodipodi:cy="270.99603"
         sodipodi:cx="270.00000"
         id="path10091"
         style="opacity:1.0000000;fill:none;fill-opacity:1.0000000;stroke:#000000;stroke-width:1.5022088;stroke-linecap:square;stroke-linejoin:round;marker-end:url(#Arrow2Mend);stroke-miterlimit:4.0000000;stroke-dasharray:none;stroke-dashoffset:0.0000000;stroke-opacity:1.0000000"
         sodipodi:type="arc" />
      <path
         sodipodi:nodetypes="cc"
         id="path14634"
         d="M 250.00000,320.93797 L 290.00000,222.05409"
         style="fill:none;fill-opacity:0.75000000;fill-rule:evenodd;stroke:url(#linearGradient6338);stroke-width:1.0000000px;stroke-linecap:butt;stroke-linejoin:miter;marker-start:url(#Dot_m);marker-end:url(#Dot_m);stroke-opacity:1.0000000" />
      <path
         sodipodi:open="true"
         transform="matrix(0.992403,0.000000,0.000000,-1.020826,3.141696,546.1056)"
         sodipodi:end="6.2520000"
         sodipodi:start="5.2888599"
         d="M 384.19494,229.25324 A 210.59232,48.000000 0 0 1 479.89761,267.99938"
         sodipodi:ry="48.000000"
         sodipodi:rx="210.59232"
         sodipodi:cy="269.49603"
         sodipodi:cx="269.40768"
         id="path15374"
         style="fill:none;fill-opacity:0.75000000;fill-rule:evenodd;stroke:#000000;stroke-width:2.4838200;stroke-linecap:butt;stroke-linejoin:miter;marker-start:url(#Arrow2Mstart);marker-end:none;stroke-miterlimit:4.0000000;stroke-dasharray:none;stroke-opacity:1.0000000"
         sodipodi:type="arc" />
      <path
         sodipodi:nodetypes="cc"
         id="path17650"
         d="M 271.00000,270.49603 L 373.50000,313.49603"
         style="fill:none;fill-opacity:0.75000000;fill-rule:evenodd;stroke:url(#linearGradient15876);stroke-width:1.0000000;stroke-linecap:butt;stroke-linejoin:miter;stroke-miterlimit:4.0000000;stroke-dasharray:3.0000000 3.0000000;stroke-dashoffset:3.6000000;stroke-opacity:1.0000000" />
      <g
         transform="matrix(0.102071,0.000000,0.000000,0.102071,248.2737,206.1810)"
         id="g1451">
        <path
           d="M 118.89394,396.36832 C 124.59434,400.44003 182.41261,367.05201 185.66998,367.05201 C 188.92735,367.05201 238.60220,376.00977 249.18865,372.75240 C 259.77509,369.49503 270.57111,361.41153 274.43325,347.50780 C 278.50496,332.84964 264.66114,308.41938 265.47549,301.09030 C 266.28983,293.76123 278.50497,258.74451 277.69062,252.22978 C 276.87628,245.71505 269.54720,226.17085 271.17589,221.28479 C 272.80458,216.39874 266.28984,187.89677 263.03247,183.82506 C 259.77510,179.75335 241.85958,161.02348 242.67392,156.95177 C 243.48826,152.88006 248.78498,147.39176 242.67392,151.25137 C 237.51643,154.50874 220.95813,149.62269 217.42932,149.62269 C 213.90050,149.62269 205.21419,159.39479 201.14248,159.39479 C 197.07077,159.39479 175.08352,142.29362 171.82616,140.66493 C 168.56879,139.03625 157.16800,137.40756 155.53932,140.66493 C 153.91064,143.92230 156.35367,153.69440 155.53932,156.95177 C 154.72498,160.20914 118.89393,183.01071 118.89393,183.01071 C 118.89393,183.01071 113.19354,232.68557 102.60709,252.22979 C 92.887410,270.17381 87.134595,307.60504 91.206305,314.11978 C 95.649903,321.22954 103.13424,315.62339 99.349725,324.70622 C 95.278015,334.47833 116.45092,370.30938 115.63657,376.00977 C 114.82223,381.71016 113.19355,392.29661 118.89394,396.36832 z "
           id="path1593"
           style="fill:#dbf8c5;fill-opacity:1.0000000;fill-rule:evenodd;stroke:none;stroke-width:1.0000000pt;stroke-linecap:butt;stroke-linejoin:miter;stroke-opacity:1.0000000" />
        <path
           d="M 302.12089,626.01276 C 297.63642,636.77547 250.59216,627.71383 228.01576,634.97053 C 205.21418,642.29961 137.62380,634.97053 134.36643,627.64145 C 131.10906,620.31237 139.25248,597.51079 142.50985,595.06777 C 145.76722,592.62474 182.47034,603.20569 199.51379,601.58251 C 216.61498,599.95382 228.01576,594.25343 238.60220,592.62474 C 249.09645,591.01024 279.05831,601.21361 285.83404,596.69645 C 293.16312,591.81040 302.12089,599.13947 303.74957,604.02553 C 305.37826,608.91158 306.19260,616.24065 302.12089,626.01276 z "
           id="path1586"
           style="fill:#996600;fill-opacity:1.0000000;fill-rule:evenodd;stroke:none;stroke-width:1.0000000pt;stroke-linecap:butt;stroke-linejoin:miter;stroke-opacity:1.0000000" />
        <path
           d="M 180.78393,597.51080 C 170.19748,595.88211 142.50985,604.02553 142.50985,590.99606 C 142.50985,577.15225 143.30536,534.66997 144.95288,529.10607 C 146.82325,522.78959 175.08353,529.92040 199.51379,518.51962 C 223.27739,507.42994 241.04523,515.26225 241.85957,519.33396 C 242.67392,523.40567 236.97352,576.33790 235.34484,582.85264 C 233.71615,589.36738 209.82879,601.17534 209.28590,590.99606 C 208.74300,580.81678 207.38576,544.17140 206.84287,533.99212 C 206.29998,523.81285 189.74169,526.66304 185.66998,532.36343 C 181.59827,538.06383 179.96959,586.11001 179.96959,590.18172 C 179.96959,594.25343 170.19748,595.88211 170.19748,595.88211"
           id="path1585"
           style="fill:#ffcc99;fill-opacity:1.0000000;fill-rule:evenodd;stroke:none;stroke-width:1.0000000pt;stroke-linecap:butt;stroke-linejoin:miter;stroke-opacity:1.0000000" />
        <path
           d="M 219.87234,12.813233 C 214.17194,16.070601 162.86840,85.289671 166.12577,101.57651 C 169.38314,117.86335 171.69044,138.62907 175.89787,141.47927 C 180.10531,144.32947 194.62774,157.49466 201.14248,158.58045 C 207.65722,159.66624 212.67899,149.75842 214.98629,147.99401 C 217.29359,146.22960 228.01576,152.06572 232.90181,151.25137 C 237.78787,150.43703 255.70338,143.10795 261.40378,133.33585 C 267.10417,123.56375 277.69062,121.93506 277.69062,121.93506 C 277.69062,121.93506 288.27707,97.504802 289.90576,86.918356 C 291.53445,76.331910 241.04523,15.256259 234.53050,13.627575 C 228.01576,11.998891 225.57274,9.5558650 219.87234,12.813233 z "
           id="path1584"
           style="fill:#ffcc99;fill-opacity:1.0000000;fill-rule:evenodd;stroke:none;stroke-width:1.0000000pt;stroke-linecap:butt;stroke-linejoin:miter;stroke-opacity:1.0000000" />
        <path
           d="M 118.07959,509.56186 C 121.33695,513.63357 144.95288,525.84870 149.83893,526.66304 C 154.72498,527.47738 216.61497,513.63357 220.68668,513.63357 C 224.75839,513.63357 280.67655,518.79107 282.57668,516.89094 C 284.47681,514.99081 292.89168,509.56186 293.97747,505.49015 C 295.06326,501.41844 289.90575,494.63226 289.09141,492.46068 C 288.27707,490.28910 271.99023,396.36832 270.36154,387.41056 C 268.89753,379.35853 250.00300,372.75240 246.74563,372.75240 C 243.48826,372.75240 191.37037,361.89451 183.22695,367.05201 C 175.08353,372.20951 142.50985,392.83950 134.36643,397.99700 C 126.22301,403.15450 134.77361,411.84081 129.48038,419.98423 C 124.18715,428.12765 114.82223,505.49015 118.07959,509.56186 z "
           id="path1583"
           style="fill:#33cc99;fill-opacity:1.0000000;fill-rule:evenodd;stroke:none;stroke-width:1.0000000pt;stroke-linecap:butt;stroke-linejoin:miter;stroke-opacity:1.0000000" />
        <g
           id="g4"
           style="fill:#000000;stroke:none"
           transform="matrix(0.308571,0.000000,0.000000,-0.308571,0.000000,648.0000)">
          <path
             d="M 665.00000,2090.0000 C 669.00000,2084.0000 660.00000,2080.0000 646.00000,2080.0000 C 619.00000,2080.0000 598.00000,2066.0000 546.00000,2015.0000 C 529.00000,1999.0000 512.00000,1986.0000 508.00000,1987.0000 C 505.00000,1989.0000 470.00000,1960.0000 431.00000,1924.0000 C 349.00000,1848.0000 326.00000,1797.0000 355.00000,1754.0000 C 364.00000,1740.0000 375.00000,1732.0000 379.00000,1735.0000 C 384.00000,1738.0000 390.00000,1734.0000 393.00000,1726.0000 C 396.00000,1719.0000 407.00000,1710.0000 418.00000,1708.0000 C 434.00000,1704.0000 437.00000,1707.0000 433.00000,1724.0000 C 430.00000,1744.0000 430.00000,1744.0000 441.00000,1723.0000 C 448.00000,1710.0000 462.00000,1700.0000 475.00000,1700.0000 C 486.00000,1700.0000 505.00000,1693.0000 516.00000,1685.0000 C 534.00000,1671.0000 534.00000,1670.0000 501.00000,1644.0000 C 471.00000,1620.0000 469.00000,1615.0000 484.00000,1605.0000 C 498.00000,1594.0000 497.00000,1591.0000 471.00000,1580.0000 C 455.00000,1574.0000 432.00000,1558.0000 419.00000,1544.0000 C 407.00000,1531.0000 391.00000,1520.0000 383.00000,1520.0000 C 372.00000,1520.0000 365.00000,1501.0000 369.00000,1478.0000 C 373.00000,1451.0000 339.00000,1306.0000 326.00000,1297.0000 C 316.00000,1289.0000 306.00000,1255.0000 299.00000,1205.0000 C 293.00000,1161.0000 284.00000,1118.0000 279.00000,1108.0000 C 268.00000,1087.0000 277.00000,1060.0000 296.00000,1060.0000 C 304.00000,1060.0000 310.00000,1050.0000 310.00000,1036.0000 C 310.00000,1022.0000 314.00000,1009.0000 318.00000,1006.0000 C 323.00000,1003.0000 332.00000,976.00000 339.00000,946.00000 C 346.00000,915.00000 356.00000,888.00000 361.00000,885.00000 C 366.00000,881.00000 367.00000,861.00000 364.00000,840.00000 C 359.00000,809.00000 361.00000,800.00000 376.00000,792.00000 C 387.00000,787.00000 401.00000,785.00000 408.00000,787.00000 C 415.00000,790.00000 420.00000,783.00000 420.00000,771.00000 C 420.00000,759.00000 414.00000,751.00000 408.00000,753.00000 C 399.00000,754.00000 394.00000,734.00000 392.00000,685.00000 C 391.00000,647.00000 386.00000,595.00000 380.00000,570.00000 C 359.00000,465.00000 358.00000,432.00000 377.00000,422.00000 C 387.00000,416.00000 400.00000,411.00000 405.00000,410.00000 C 463.00000,397.00000 463.00000,397.00000 456.00000,287.00000 C 452.00000,231.00000 446.00000,183.00000 442.00000,180.00000 C 432.00000,173.00000 410.00000,108.00000 409.00000,84.000000 C 409.00000,74.000000 406.00000,70.000000 404.00000,76.000000 C 401.00000,83.000000 386.00000,85.000000 360.00000,80.000000 C 338.00000,76.000000 320.00000,77.000000 320.00000,81.000000 C 320.00000,93.000000 283.00000,92.000000 275.00000,80.000000 C 272.00000,75.000000 274.00000,70.000000 280.00000,70.000000 C 286.00000,70.000000 288.00000,66.000000 285.00000,60.000000 C 274.00000,42.000000 250.00000,49.000000 250.00000,70.000000 C 250.00000,81.000000 246.00000,90.000000 240.00000,90.000000 C 235.00000,90.000000 230.00000,85.000000 230.00000,79.000000 C 230.00000,73.000000 223.00000,62.000000 215.00000,54.000000 C 207.00000,45.000000 200.00000,43.000000 200.00000,49.000000 C 200.00000,55.000000 191.00000,60.000000 180.00000,60.000000 C 165.00000,60.000000 161.00000,54.000000 162.00000,35.000000 C 164.00000,15.000000 170.00000,10.000000 192.00000,10.000000 C 210.00000,10.000000 220.00000,15.000000 220.00000,25.000000 C 220.00000,33.000000 224.00000,40.000000 229.00000,40.000000 C 234.00000,40.000000 240.00000,33.000000 244.00000,25.000000 C 251.00000,7.0000000 306.00000,5.0000000 313.00000,23.000000 C 316.00000,30.000000 319.00000,27.000000 319.00000,17.000000 C 320.00000,3.0000000 325.00000,0.0000000 341.00000,5.0000000 C 352.00000,9.0000000 382.00000,12.000000 408.00000,12.000000 C 434.00000,12.000000 461.00000,17.000000 469.00000,23.000000 C 479.00000,31.000000 481.00000,31.000000 477.00000,24.000000 C 473.00000,16.000000 509.00000,14.000000 606.00000,16.000000 C 681.00000,18.000000 745.00000,22.000000 750.00000,25.000000 C 754.00000,28.000000 838.00000,32.000000 936.00000,36.000000 C 1128.0000,42.000000 1145.0000,44.000000 1134.0000,61.000000 C 1128.0000,71.000000 1037.0000,66.000000 1004.0000,53.000000 C 994.00000,49.000000 992.00000,59.000000 997.00000,98.000000 C 1002.0000,142.00000 1000.0000,149.00000 979.00000,164.00000 C 963.00000,175.00000 935.00000,180.00000 893.00000,180.00000 C 859.00000,180.00000 819.00000,185.00000 805.00000,192.00000 C 782.00000,202.00000 779.00000,209.00000 784.00000,233.00000 C 787.00000,249.00000 790.00000,286.00000 790.00000,316.00000 L 790.00000,369.00000 L 849.00000,386.00000 C 882.00000,395.00000 923.00000,415.00000 942.00000,430.00000 C 972.00000,455.00000 974.00000,460.00000 962.00000,481.00000 C 956.00000,494.00000 946.00000,534.00000 940.00000,570.00000 C 934.00000,606.00000 923.00000,664.00000 915.00000,700.00000 C 907.00000,736.00000 900.00000,779.00000 900.00000,797.00000 C 900.00000,815.00000 892.00000,845.00000 883.00000,865.00000 C 867.00000,898.00000 867.00000,902.00000 883.00000,929.00000 C 905.00000,966.00000 905.00000,1003.0000 883.00000,1063.0000 C 866.00000,1112.0000 866.00000,1112.0000 893.00000,1191.0000 C 909.00000,1234.0000 919.00000,1273.0000 916.00000,1278.0000 C 914.00000,1282.0000 904.00000,1328.0000 896.00000,1380.0000 C 873.00000,1515.0000 874.00000,1513.0000 841.00000,1535.0000 C 798.00000,1563.0000 793.00000,1594.0000 826.00000,1633.0000 C 840.00000,1651.0000 864.00000,1671.0000 879.00000,1679.0000 C 910.00000,1696.0000 920.00000,1708.0000 920.00000,1734.0000 C 920.00000,1759.0000 948.00000,1779.0000 983.00000,1780.0000 C 1017.0000,1780.0000 1018.0000,1798.0000 985.00000,1868.0000 C 964.00000,1914.0000 890.00000,1997.0000 810.00000,2066.0000 C 781.00000,2091.0000 683.00000,2110.0000 695.00000,2088.0000 C 701.00000,2078.0000 700.00000,2077.0000 689.00000,2088.0000 C 673.00000,2102.0000 656.00000,2104.0000 665.00000,2090.0000 z M 800.00000,2008.0000 C 842.00000,1963.0000 890.00000,1882.0000 884.00000,1867.0000 C 879.00000,1852.0000 876.00000,1852.0000 854.00000,1867.0000 C 817.00000,1891.0000 825.00000,1866.0000 866.00000,1832.0000 C 892.00000,1809.0000 903.00000,1791.0000 907.00000,1762.0000 C 912.00000,1727.0000 909.00000,1721.0000 884.00000,1703.0000 C 868.00000,1693.0000 848.00000,1685.0000 840.00000,1685.0000 C 832.00000,1686.0000 817.00000,1688.0000 808.00000,1688.0000 C 781.00000,1691.0000 758.00000,1735.0000 755.00000,1792.0000 C 751.00000,1859.0000 751.00000,1860.0000 739.00000,1832.0000 C 728.00000,1803.0000 745.00000,1723.0000 767.00000,1698.0000 C 782.00000,1681.0000 781.00000,1680.0000 754.00000,1680.0000 C 712.00000,1681.0000 666.00000,1721.0000 675.00000,1749.0000 C 681.00000,1769.0000 680.00000,1770.0000 661.00000,1758.0000 C 649.00000,1751.0000 640.00000,1742.0000 640.00000,1738.0000 C 640.00000,1733.0000 640.00000,1728.0000 640.00000,1725.0000 C 640.00000,1722.0000 641.00000,1721.0000 643.00000,1723.0000 C 645.00000,1724.0000 664.00000,1710.0000 687.00000,1693.0000 C 727.00000,1661.0000 767.00000,1651.0000 786.00000,1669.0000 C 791.00000,1674.0000 803.00000,1675.0000 813.00000,1671.0000 C 831.00000,1664.0000 831.00000,1663.0000 813.00000,1641.0000 C 790.00000,1613.0000 742.00000,1610.0000 686.00000,1634.0000 C 664.00000,1643.0000 645.00000,1648.0000 643.00000,1646.0000 C 640.00000,1644.0000 648.00000,1639.0000 659.00000,1635.0000 C 684.00000,1628.0000 686.00000,1617.0000 666.00000,1600.0000 C 654.00000,1591.0000 644.00000,1593.0000 618.00000,1612.0000 C 600.00000,1624.0000 584.00000,1635.0000 583.00000,1635.0000 C 582.00000,1635.0000 585.00000,1676.0000 590.00000,1725.0000 C 599.00000,1826.0000 610.00000,1857.0000 646.00000,1883.0000 C 670.00000,1901.0000 672.00000,1901.0000 684.00000,1884.0000 C 692.00000,1874.0000 704.00000,1869.0000 714.00000,1873.0000 C 736.00000,1882.0000 734.00000,1911.0000 711.00000,1917.0000 C 693.00000,1921.0000 693.00000,1923.0000 712.00000,1958.0000 C 722.00000,1978.0000 728.00000,2000.0000 726.00000,2007.0000 C 723.00000,2013.0000 726.00000,2021.0000 733.00000,2024.0000 C 759.00000,2034.0000 780.00000,2029.0000 800.00000,2008.0000 z M 377.00000,1768.0000 C 375.00000,1755.0000 373.00000,1763.0000 373.00000,1785.0000 C 372.00000,1807.0000 374.00000,1817.0000 377.00000,1808.0000 C 379.00000,1798.0000 379.00000,1780.0000 377.00000,1768.0000 z M 527.00000,1733.0000 C 523.00000,1730.0000 520.00000,1733.0000 520.00000,1740.0000 C 520.00000,1747.0000 523.00000,1750.0000 527.00000,1747.0000 C 530.00000,1743.0000 530.00000,1737.0000 527.00000,1733.0000 z M 567.00000,1703.0000 C 564.00000,1693.0000 562.00000,1701.0000 562.00000,1720.0000 C 562.00000,1739.0000 564.00000,1747.0000 567.00000,1738.0000 C 569.00000,1728.0000 569.00000,1712.0000 567.00000,1703.0000 z M 543.00000,1700.0000 C 546.00000,1689.0000 544.00000,1682.0000 539.00000,1686.0000 C 534.00000,1689.0000 530.00000,1698.0000 530.00000,1706.0000 C 530.00000,1726.0000 537.00000,1723.0000 543.00000,1700.0000 z M 563.00000,1629.0000 C 574.00000,1622.0000 589.00000,1613.0000 594.00000,1608.0000 C 600.00000,1603.0000 614.00000,1592.0000 625.00000,1584.0000 C 645.00000,1569.0000 645.00000,1569.0000 625.00000,1574.0000 C 614.00000,1577.0000 589.00000,1582.0000 570.00000,1585.0000 C 528.00000,1593.0000 495.00000,1615.0000 505.00000,1629.0000 C 513.00000,1643.0000 536.00000,1643.0000 563.00000,1629.0000 z M 759.00000,1596.0000 C 777.00000,1599.0000 781.00000,1597.0000 776.00000,1584.0000 C 773.00000,1576.0000 770.00000,1548.0000 770.00000,1522.0000 C 770.00000,1480.0000 769.00000,1478.0000 755.00000,1496.0000 C 738.00000,1519.0000 736.00000,1534.0000 751.00000,1524.0000 C 758.00000,1520.0000 761.00000,1523.0000 758.00000,1531.0000 C 755.00000,1539.0000 748.00000,1545.0000 743.00000,1545.0000 C 737.00000,1545.0000 728.00000,1549.0000 723.00000,1554.0000 C 718.00000,1559.0000 720.00000,1560.0000 728.00000,1556.0000 C 745.00000,1546.0000 743.00000,1562.0000 724.00000,1586.0000 C 710.00000,1603.0000 709.00000,1603.0000 714.00000,1587.0000 C 717.00000,1577.0000 716.00000,1572.0000 711.00000,1575.0000 C 671.00000,1599.0000 720.00000,1497.0000 798.00000,1392.0000 C 812.00000,1374.0000 820.00000,1357.0000 816.00000,1353.0000 C 813.00000,1350.0000 810.00000,1352.0000 810.00000,1359.0000 C 810.00000,1377.0000 682.00000,1500.0000 662.00000,1501.0000 C 653.00000,1501.0000 627.00000,1509.0000 606.00000,1519.0000 L 566.00000,1536.0000 L 608.00000,1553.0000 C 631.00000,1562.0000 659.00000,1570.0000 670.00000,1570.0000 C 681.00000,1570.0000 694.00000,1579.0000 700.00000,1591.0000 C 708.00000,1605.0000 715.00000,1608.0000 723.00000,1602.0000 C 730.00000,1597.0000 746.00000,1594.0000 759.00000,1596.0000 z M 525.00000,1518.0000 C 544.00000,1519.0000 544.00000,1518.0000 527.00000,1505.0000 C 515.00000,1497.0000 513.00000,1490.0000 519.00000,1485.0000 C 525.00000,1482.0000 530.00000,1482.0000 530.00000,1487.0000 C 530.00000,1491.0000 541.00000,1496.0000 555.00000,1496.0000 C 569.00000,1497.0000 577.00000,1494.0000 574.00000,1488.0000 C 571.00000,1483.0000 579.00000,1468.0000 592.00000,1455.0000 C 613.00000,1434.0000 616.00000,1434.0000 616.00000,1450.0000 C 616.00000,1460.0000 612.00000,1467.0000 609.00000,1464.0000 C 605.00000,1462.0000 599.00000,1464.0000 596.00000,1468.0000 C 593.00000,1473.0000 599.00000,1477.0000 609.00000,1476.0000 C 633.00000,1475.0000 680.00000,1439.0000 673.00000,1427.0000 C 670.00000,1422.0000 674.00000,1414.0000 681.00000,1409.0000 C 703.00000,1395.0000 717.00000,1399.0000 698.00000,1413.0000 C 688.00000,1421.0000 685.00000,1431.0000 689.00000,1439.0000 C 695.00000,1449.0000 699.00000,1448.0000 704.00000,1435.0000 C 707.00000,1426.0000 714.00000,1422.0000 720.00000,1425.0000 C 726.00000,1429.0000 727.00000,1424.0000 723.00000,1414.0000 C 719.00000,1402.0000 720.00000,1399.0000 729.00000,1404.0000 C 736.00000,1409.0000 739.00000,1406.0000 738.00000,1398.0000 C 736.00000,1391.0000 740.00000,1386.0000 747.00000,1387.0000 C 767.00000,1391.0000 821.00000,1318.0000 814.00000,1295.0000 C 810.00000,1279.0000 811.00000,1278.0000 819.00000,1290.0000 C 837.00000,1316.0000 826.00000,1219.0000 807.00000,1183.0000 C 786.00000,1143.0000 786.00000,1109.0000 806.00000,1029.0000 C 819.00000,977.00000 820.00000,963.00000 809.00000,942.00000 C 790.00000,907.00000 755.00000,897.00000 700.00000,910.00000 C 675.00000,916.00000 634.00000,921.00000 607.00000,922.00000 C 581.00000,922.00000 557.00000,927.00000 553.00000,933.00000 C 550.00000,938.00000 551.00000,940.00000 557.00000,937.00000 C 570.00000,929.00000 650.00000,950.00000 650.00000,962.00000 C 650.00000,968.00000 638.00000,969.00000 623.00000,966.00000 C 596.00000,959.00000 596.00000,960.00000 615.00000,973.00000 C 626.00000,981.00000 644.00000,990.00000 655.00000,993.00000 C 666.00000,995.00000 658.00000,996.00000 638.00000,994.00000 C 604.00000,990.00000 600.00000,992.00000 599.00000,1012.0000 C 598.00000,1033.0000 598.00000,1034.0000 592.00000,1015.0000 C 588.00000,1004.0000 579.00000,994.00000 571.00000,992.00000 C 562.00000,990.00000 560.00000,995.00000 564.00000,1006.0000 C 568.00000,1018.0000 566.00000,1021.0000 555.00000,1016.0000 C 547.00000,1013.0000 540.00000,1015.0000 540.00000,1020.0000 C 540.00000,1025.0000 533.00000,1026.0000 523.00000,1023.0000 C 512.00000,1019.0000 509.00000,1020.0000 514.00000,1028.0000 C 518.00000,1035.0000 517.00000,1040.0000 511.00000,1040.0000 C 506.00000,1040.0000 502.00000,1048.0000 502.00000,1058.0000 C 503.00000,1067.0000 500.00000,1088.0000 496.00000,1104.0000 C 490.00000,1127.0000 492.00000,1131.0000 504.00000,1127.0000 C 514.00000,1123.0000 517.00000,1126.0000 513.00000,1136.0000 C 509.00000,1148.0000 505.00000,1148.0000 491.00000,1138.0000 C 482.00000,1131.0000 472.00000,1121.0000 468.00000,1115.0000 C 463.00000,1109.0000 460.00000,1109.0000 460.00000,1116.0000 C 460.00000,1122.0000 467.00000,1133.0000 475.00000,1140.0000 C 485.00000,1148.0000 488.00000,1163.0000 485.00000,1182.0000 C 481.00000,1201.0000 483.00000,1209.0000 490.00000,1205.0000 C 495.00000,1202.0000 500.00000,1204.0000 500.00000,1209.0000 C 500.00000,1215.0000 492.00000,1220.0000 483.00000,1221.0000 C 471.00000,1222.0000 473.00000,1225.0000 490.00000,1230.0000 C 507.00000,1235.0000 509.00000,1238.0000 498.00000,1239.0000 C 488.00000,1240.0000 480.00000,1244.0000 480.00000,1250.0000 C 480.00000,1255.0000 487.00000,1257.0000 495.00000,1254.0000 C 506.00000,1249.0000 508.00000,1252.0000 503.00000,1266.0000 C 498.00000,1279.0000 500.00000,1281.0000 511.00000,1275.0000 C 522.00000,1269.0000 523.00000,1270.0000 513.00000,1281.0000 C 499.00000,1295.0000 495.00000,1314.0000 508.00000,1306.0000 C 515.00000,1302.0000 516.00000,1319.0000 511.00000,1369.0000 C 510.00000,1382.0000 496.00000,1376.0000 494.00000,1362.0000 C 491.00000,1326.0000 477.00000,1270.0000 470.00000,1270.0000 C 457.00000,1270.0000 442.00000,1172.0000 454.00000,1160.0000 C 461.00000,1153.0000 454.00000,1150.0000 432.00000,1150.0000 C 400.00000,1150.0000 389.00000,1136.0000 413.00000,1127.0000 C 419.00000,1124.0000 414.00000,1121.0000 401.00000,1121.0000 C 383.00000,1120.0000 380.00000,1117.0000 389.00000,1107.0000 C 395.00000,1099.0000 397.00000,1091.0000 394.00000,1088.0000 C 392.00000,1085.0000 401.00000,1080.0000 415.00000,1078.0000 C 433.00000,1074.0000 440.00000,1077.0000 440.00000,1089.0000 C 441.00000,1102.0000 443.00000,1101.0000 452.00000,1085.0000 C 458.00000,1074.0000 466.00000,1063.0000 469.00000,1060.0000 C 473.00000,1057.0000 484.00000,1028.0000 494.00000,996.00000 C 511.00000,940.00000 511.00000,935.00000 495.00000,924.00000 C 483.00000,915.00000 482.00000,910.00000 491.00000,904.00000 C 498.00000,900.00000 506.00000,902.00000 508.00000,908.00000 C 510.00000,915.00000 516.00000,918.00000 521.00000,914.00000 C 537.00000,904.00000 530.00000,890.00000 509.00000,890.00000 C 497.00000,890.00000 465.00000,874.00000 439.00000,855.00000 C 405.00000,831.00000 390.00000,825.00000 390.00000,835.00000 C 390.00000,843.00000 400.00000,858.00000 412.00000,870.00000 C 424.00000,881.00000 430.00000,891.00000 424.00000,891.00000 C 419.00000,892.00000 408.00000,893.00000 400.00000,894.00000 C 380.00000,895.00000 360.00000,940.00000 366.00000,966.00000 C 369.00000,978.00000 367.00000,991.00000 361.00000,994.00000 C 356.00000,998.00000 353.00000,1007.0000 356.00000,1015.0000 C 360.00000,1023.0000 366.00000,1027.0000 371.00000,1024.0000 C 376.00000,1021.0000 380.00000,1024.0000 380.00000,1029.0000 C 380.00000,1043.0000 363.00000,1043.0000 355.00000,1030.0000 C 346.00000,1015.0000 330.00000,1018.0000 330.00000,1035.0000 C 330.00000,1044.0000 337.00000,1053.0000 345.00000,1056.0000 C 353.00000,1060.0000 360.00000,1069.0000 360.00000,1077.0000 C 360.00000,1088.0000 353.00000,1090.0000 334.00000,1086.0000 C 309.00000,1079.0000 308.00000,1081.0000 314.00000,1107.0000 C 317.00000,1122.0000 322.00000,1163.0000 325.00000,1198.0000 C 327.00000,1234.0000 335.00000,1267.0000 344.00000,1275.0000 C 359.00000,1290.0000 373.00000,1351.0000 385.00000,1448.0000 C 390.00000,1484.0000 397.00000,1503.0000 409.00000,1507.0000 C 418.00000,1511.0000 428.00000,1519.0000 433.00000,1526.0000 C 438.00000,1535.0000 448.00000,1536.0000 473.00000,1528.0000 C 490.00000,1523.0000 514.00000,1518.0000 525.00000,1518.0000 z M 824.00000,1521.0000 C 844.00000,1499.0000 869.00000,1435.0000 870.00000,1406.0000 C 870.00000,1386.0000 870.00000,1386.0000 856.00000,1406.0000 C 848.00000,1416.0000 838.00000,1422.0000 834.00000,1418.0000 C 830.00000,1413.0000 834.00000,1402.0000 842.00000,1393.0000 C 863.00000,1369.0000 890.00000,1303.0000 890.00000,1275.0000 C 890.00000,1263.0000 883.00000,1235.0000 874.00000,1214.0000 C 857.00000,1175.0000 848.00000,1057.0000 862.00000,1066.0000 C 873.00000,1073.0000 882.00000,1029.0000 878.00000,984.00000 C 875.00000,939.00000 847.00000,929.00000 842.00000,970.00000 C 840.00000,984.00000 832.00000,1014.0000 824.00000,1038.0000 C 808.00000,1085.0000 805.00000,1156.0000 819.00000,1164.0000 C 823.00000,1167.0000 835.00000,1193.0000 844.00000,1223.0000 C 858.00000,1267.0000 859.00000,1282.0000 848.00000,1306.0000 C 842.00000,1322.0000 836.00000,1342.0000 836.00000,1350.0000 C 835.00000,1358.0000 823.00000,1385.0000 808.00000,1410.0000 C 786.00000,1447.0000 782.00000,1463.0000 787.00000,1498.0000 C 793.00000,1545.0000 799.00000,1549.0000 824.00000,1521.0000 z M 481.00000,1087.0000 C 471.00000,1078.0000 470.00000,1079.0000 476.00000,1093.0000 C 479.00000,1103.0000 485.00000,1108.0000 488.00000,1105.0000 C 491.00000,1102.0000 488.00000,1094.0000 481.00000,1087.0000 z M 545.00000,990.00000 C 541.00000,984.00000 544.00000,973.00000 550.00000,965.00000 C 557.00000,956.00000 558.00000,950.00000 552.00000,950.00000 C 540.00000,950.00000 528.00000,979.00000 536.00000,991.00000 C 539.00000,996.00000 543.00000,1000.0000 546.00000,1000.0000 C 549.00000,1000.0000 548.00000,995.00000 545.00000,990.00000 z M 587.00000,963.00000 C 583.00000,960.00000 577.00000,960.00000 573.00000,963.00000 C 570.00000,967.00000 573.00000,970.00000 580.00000,970.00000 C 587.00000,970.00000 590.00000,967.00000 587.00000,963.00000 z M 675.00000,885.00000 C 757.00000,866.00000 830.00000,840.00000 830.00000,829.00000 C 830.00000,809.00000 850.00000,822.00000 851.00000,843.00000 L 853.00000,865.00000 L 857.00000,842.00000 C 859.00000,830.00000 865.00000,822.00000 869.00000,824.00000 C 881.00000,832.00000 934.00000,514.00000 923.00000,498.00000 C 921.00000,493.00000 914.00000,492.00000 909.00000,495.00000 C 904.00000,499.00000 900.00000,496.00000 900.00000,490.00000 C 900.00000,483.00000 906.00000,480.00000 913.00000,483.00000 C 921.00000,486.00000 933.00000,484.00000 941.00000,479.00000 C 953.00000,471.00000 952.00000,467.00000 935.00000,454.00000 C 919.00000,442.00000 901.00000,439.00000 850.00000,444.00000 C 814.00000,447.00000 769.00000,450.00000 750.00000,450.00000 C 726.00000,450.00000 719.00000,453.00000 729.00000,459.00000 C 737.00000,464.00000 749.00000,466.00000 757.00000,463.00000 C 765.00000,460.00000 770.00000,466.00000 770.00000,481.00000 C 770.00000,496.00000 767.00000,500.00000 762.00000,493.00000 C 758.00000,487.00000 746.00000,482.00000 735.00000,483.00000 C 721.00000,484.00000 714.00000,478.00000 712.00000,463.00000 C 709.00000,446.00000 702.00000,440.00000 683.00000,440.00000 C 670.00000,440.00000 623.00000,431.00000 580.00000,420.00000 C 516.00000,404.00000 497.00000,402.00000 469.00000,412.00000 C 403.00000,434.00000 391.00000,447.00000 395.00000,493.00000 C 400.00000,559.00000 410.00000,583.00000 443.00000,609.00000 L 475.00000,634.00000 L 451.00000,607.00000 C 420.00000,573.00000 428.00000,561.00000 459.00000,594.00000 C 482.00000,618.00000 480.00000,646.00000 456.00000,637.00000 C 449.00000,634.00000 444.00000,643.00000 443.00000,659.00000 C 442.00000,673.00000 444.00000,679.00000 447.00000,672.00000 C 453.00000,656.00000 470.00000,666.00000 470.00000,686.00000 C 470.00000,694.00000 466.00000,698.00000 460.00000,695.00000 C 455.00000,692.00000 450.00000,693.00000 450.00000,699.00000 C 450.00000,704.00000 455.00000,710.00000 462.00000,712.00000 C 471.00000,715.00000 471.00000,727.00000 462.00000,760.00000 C 453.00000,798.00000 453.00000,806.00000 468.00000,818.00000 C 487.00000,832.00000 602.00000,899.00000 610.00000,899.00000 C 613.00000,899.00000 642.00000,893.00000 675.00000,885.00000 z M 437.00000,723.00000 C 433.00000,720.00000 427.00000,720.00000 423.00000,723.00000 C 420.00000,727.00000 423.00000,730.00000 430.00000,730.00000 C 437.00000,730.00000 440.00000,727.00000 437.00000,723.00000 z M 422.00000,635.00000 C 420.00000,621.00000 416.00000,610.00000 414.00000,610.00000 C 412.00000,610.00000 410.00000,621.00000 410.00000,635.00000 C 410.00000,649.00000 414.00000,660.00000 419.00000,660.00000 C 423.00000,660.00000 425.00000,649.00000 422.00000,635.00000 z M 733.00000,393.00000 C 726.00000,391.00000 714.00000,391.00000 708.00000,393.00000 C 701.00000,396.00000 706.00000,398.00000 720.00000,398.00000 C 734.00000,398.00000 739.00000,396.00000 733.00000,393.00000 z M 760.00000,385.00000 C 760.00000,377.00000 756.00000,370.00000 750.00000,370.00000 C 745.00000,370.00000 743.00000,377.00000 746.00000,385.00000 C 750.00000,393.00000 754.00000,400.00000 756.00000,400.00000 C 758.00000,400.00000 760.00000,393.00000 760.00000,385.00000 z M 557.00000,383.00000 C 553.00000,380.00000 547.00000,380.00000 543.00000,383.00000 C 540.00000,387.00000 543.00000,390.00000 550.00000,390.00000 C 557.00000,390.00000 560.00000,387.00000 557.00000,383.00000 z M 510.00000,350.00000 C 522.00000,334.00000 528.00000,320.00000 523.00000,320.00000 C 519.00000,320.00000 507.00000,334.00000 498.00000,350.00000 C 476.00000,389.00000 483.00000,389.00000 510.00000,350.00000 z M 660.00000,274.00000 C 660.00000,218.00000 656.00000,169.00000 651.00000,166.00000 C 646.00000,162.00000 632.00000,164.00000 619.00000,168.00000 C 598.00000,176.00000 597.00000,182.00000 599.00000,246.00000 C 602.00000,357.00000 608.00000,378.00000 636.00000,378.00000 C 660.00000,378.00000 660.00000,377.00000 660.00000,274.00000 z M 567.00000,363.00000 C 563.00000,360.00000 557.00000,360.00000 553.00000,363.00000 C 550.00000,367.00000 553.00000,370.00000 560.00000,370.00000 C 567.00000,370.00000 570.00000,367.00000 567.00000,363.00000 z M 734.00000,345.00000 C 730.00000,337.00000 733.00000,330.00000 738.00000,330.00000 C 744.00000,330.00000 751.00000,338.00000 753.00000,348.00000 C 756.00000,357.00000 758.00000,334.00000 758.00000,295.00000 C 758.00000,257.00000 755.00000,216.00000 750.00000,205.00000 C 745.00000,194.00000 741.00000,191.00000 741.00000,199.00000 C 740.00000,210.00000 737.00000,210.00000 725.00000,200.00000 C 714.00000,191.00000 710.00000,191.00000 710.00000,199.00000 C 710.00000,206.00000 706.00000,209.00000 701.00000,206.00000 C 696.00000,203.00000 690.00000,214.00000 686.00000,231.00000 C 676.00000,280.00000 679.00000,310.00000 693.00000,310.00000 C 701.00000,310.00000 700.00000,314.00000 690.00000,320.00000 C 677.00000,328.00000 677.00000,330.00000 692.00000,330.00000 C 701.00000,330.00000 711.00000,324.00000 714.00000,318.00000 C 718.00000,309.00000 719.00000,310.00000 719.00000,320.00000 C 717.00000,348.00000 720.00000,360.00000 730.00000,360.00000 C 735.00000,360.00000 737.00000,353.00000 734.00000,345.00000 z M 576.00000,314.00000 C 573.00000,305.00000 570.00000,271.00000 570.00000,238.00000 L 570.00000,177.00000 L 523.00000,184.00000 C 498.00000,187.00000 475.00000,192.00000 473.00000,194.00000 C 464.00000,203.00000 484.00000,299.00000 496.00000,304.00000 C 505.00000,307.00000 507.00000,304.00000 503.00000,292.00000 C 500.00000,283.00000 507.00000,287.00000 519.00000,303.00000 C 544.00000,333.00000 587.00000,341.00000 576.00000,314.00000 z M 777.00000,173.00000 C 773.00000,170.00000 767.00000,170.00000 763.00000,173.00000 C 760.00000,177.00000 763.00000,180.00000 770.00000,180.00000 C 777.00000,180.00000 780.00000,177.00000 777.00000,173.00000 z M 727.00000,163.00000 C 723.00000,160.00000 717.00000,160.00000 713.00000,163.00000 C 710.00000,167.00000 713.00000,170.00000 720.00000,170.00000 C 727.00000,170.00000 730.00000,167.00000 727.00000,163.00000 z M 920.00000,145.00000 C 927.00000,141.00000 936.00000,144.00000 941.00000,151.00000 C 948.00000,163.00000 952.00000,162.00000 965.00000,149.00000 C 988.00000,127.00000 975.00000,70.000000 946.00000,69.000000 C 867.00000,64.000000 862.00000,65.000000 872.00000,78.000000 C 879.00000,86.000000 879.00000,90.000000 872.00000,90.000000 C 866.00000,90.000000 856.00000,82.000000 850.00000,73.000000 C 841.00000,58.000000 839.00000,58.000000 843.00000,71.000000 C 850.00000,93.000000 814.00000,150.00000 795.00000,150.00000 C 786.00000,150.00000 781.00000,154.00000 784.00000,158.00000 C 790.00000,167.00000 901.00000,157.00000 920.00000,145.00000 z M 543.00000,154.00000 C 572.00000,149.00000 580.00000,143.00000 581.00000,126.00000 C 582.00000,109.00000 583.00000,108.00000 587.00000,123.00000 C 591.00000,139.00000 600.00000,140.00000 662.00000,135.00000 C 700.00000,132.00000 740.00000,125.00000 751.00000,120.00000 C 774.00000,107.00000 776.00000,77.000000 754.00000,59.000000 C 732.00000,41.000000 604.00000,39.000000 570.00000,56.000000 C 556.00000,63.000000 527.00000,66.000000 507.00000,63.000000 C 459.00000,57.000000 436.00000,74.000000 445.00000,109.00000 C 458.00000,160.00000 470.00000,165.00000 543.00000,154.00000 z M 765.00000,150.00000 C 768.00000,144.00000 764.00000,143.00000 756.00000,146.00000 C 738.00000,153.00000 735.00000,160.00000 749.00000,160.00000 C 755.00000,160.00000 762.00000,156.00000 765.00000,150.00000 z M 815.00000,120.00000 C 812.00000,115.00000 803.00000,110.00000 797.00000,110.00000 C 790.00000,110.00000 791.00000,114.00000 800.00000,120.00000 C 819.00000,132.00000 823.00000,132.00000 815.00000,120.00000 z M 825.00000,90.000000 C 828.00000,85.000000 829.00000,80.000000 826.00000,80.000000 C 823.00000,80.000000 818.00000,85.000000 815.00000,90.000000 C 812.00000,96.000000 811.00000,100.00000 814.00000,100.00000 C 817.00000,100.00000 822.00000,96.000000 825.00000,90.000000 z M 400.00000,54.000000 C 400.00000,52.000000 386.00000,50.000000 369.00000,50.000000 C 353.00000,50.000000 341.00000,54.000000 344.00000,59.000000 C 349.00000,67.000000 400.00000,62.000000 400.00000,54.000000 z M 807.00000,63.000000 C 803.00000,60.000000 797.00000,60.000000 793.00000,63.000000 C 790.00000,67.000000 793.00000,70.000000 800.00000,70.000000 C 807.00000,70.000000 810.00000,67.000000 807.00000,63.000000 z "
             id="path5" />
          <path
             d="M 776.00000,1923.0000 C 766.00000,1897.0000 811.00000,1877.0000 825.00000,1900.0000 C 833.00000,1913.0000 812.00000,1940.0000 795.00000,1940.0000 C 788.00000,1940.0000 779.00000,1932.0000 776.00000,1923.0000 z M 807.00000,1913.0000 C 803.00000,1910.0000 797.00000,1910.0000 793.00000,1913.0000 C 790.00000,1917.0000 793.00000,1920.0000 800.00000,1920.0000 C 807.00000,1920.0000 810.00000,1917.0000 807.00000,1913.0000 z "
             id="path6" />
          <path
             d="M 465.00000,1510.0000 C 468.00000,1505.0000 475.00000,1500.0000 481.00000,1500.0000 C 486.00000,1500.0000 490.00000,1505.0000 490.00000,1510.0000 C 490.00000,1516.0000 483.00000,1520.0000 474.00000,1520.0000 C 466.00000,1520.0000 462.00000,1516.0000 465.00000,1510.0000 z "
             id="path7" />
          <path
             d="M 626.00000,1446.0000 C 629.00000,1437.0000 637.00000,1430.0000 642.00000,1430.0000 C 655.00000,1430.0000 647.00000,1453.0000 632.00000,1458.0000 C 625.00000,1460.0000 622.00000,1456.0000 626.00000,1446.0000 z "
             id="path8" />
          <path
             d="M 716.00000,1374.0000 C 709.00000,1357.0000 737.00000,1343.0000 750.00000,1356.0000 C 756.00000,1362.0000 752.00000,1370.0000 741.00000,1377.0000 C 725.00000,1387.0000 721.00000,1386.0000 716.00000,1374.0000 z "
             id="path9" />
          <path
             d="M 755.00000,1310.0000 C 747.00000,1296.0000 758.00000,1280.0000 776.00000,1280.0000 C 794.00000,1280.0000 794.00000,1288.0000 776.00000,1306.0000 C 767.00000,1315.0000 759.00000,1316.0000 755.00000,1310.0000 z "
             id="path10" />
          <path
             d="M 766.00000,1224.0000 C 762.00000,1213.0000 765.00000,1210.0000 777.00000,1212.0000 C 786.00000,1214.0000 795.00000,1221.0000 798.00000,1228.0000 C 804.00000,1246.0000 773.00000,1243.0000 766.00000,1224.0000 z "
             id="path11" />
          <path
             d="M 755.00000,1188.0000 C 751.00000,1178.0000 751.00000,1162.0000 755.00000,1153.0000 C 761.00000,1136.0000 762.00000,1136.0000 771.00000,1153.0000 C 778.00000,1164.0000 778.00000,1176.0000 771.00000,1188.0000 C 762.00000,1204.0000 761.00000,1204.0000 755.00000,1188.0000 z "
             id="path12" />
          <path
             d="M 750.00000,1103.0000 C 750.00000,1096.0000 757.00000,1090.0000 765.00000,1090.0000 C 773.00000,1090.0000 780.00000,1096.0000 780.00000,1103.0000 C 780.00000,1111.0000 773.00000,1117.0000 765.00000,1117.0000 C 757.00000,1117.0000 750.00000,1111.0000 750.00000,1103.0000 z "
             id="path13" />
          <path
             d="M 575.00000,1050.0000 C 578.00000,1045.0000 583.00000,1040.0000 586.00000,1040.0000 C 588.00000,1040.0000 590.00000,1045.0000 590.00000,1050.0000 C 590.00000,1056.0000 585.00000,1060.0000 579.00000,1060.0000 C 574.00000,1060.0000 572.00000,1056.0000 575.00000,1050.0000 z "
             id="path14" />
          <path
             d="M 760.00000,1046.0000 C 760.00000,1028.0000 776.00000,1017.0000 790.00000,1025.0000 C 796.00000,1029.0000 795.00000,1037.0000 786.00000,1046.0000 C 768.00000,1064.0000 760.00000,1064.0000 760.00000,1046.0000 z "
             id="path15" />
          <path
             d="M 650.00000,1039.0000 C 650.00000,1034.0000 655.00000,1032.0000 660.00000,1035.0000 C 666.00000,1038.0000 670.00000,1043.0000 670.00000,1046.0000 C 670.00000,1048.0000 666.00000,1050.0000 660.00000,1050.0000 C 655.00000,1050.0000 650.00000,1045.0000 650.00000,1039.0000 z "
             id="path16" />
          <path
             d="M 370.00000,1000.0000 C 370.00000,993.00000 373.00000,990.00000 377.00000,993.00000 C 380.00000,997.00000 380.00000,1003.0000 377.00000,1007.0000 C 373.00000,1010.0000 370.00000,1007.0000 370.00000,1000.0000 z "
             id="path17" />
          <path
             d="M 774.00000,989.00000 C 765.00000,974.00000 787.00000,953.00000 799.00000,966.00000 C 805.00000,971.00000 803.00000,980.00000 795.00000,987.00000 C 785.00000,996.00000 779.00000,997.00000 774.00000,989.00000 z "
             id="path18" />
          <path
             d="M 376.00000,964.00000 C 368.00000,942.00000 377.00000,933.00000 392.00000,948.00000 C 401.00000,957.00000 401.00000,963.00000 393.00000,971.00000 C 386.00000,978.00000 381.00000,976.00000 376.00000,964.00000 z "
             id="path19" />
          <path
             d="M 673.00000,953.00000 C 677.00000,950.00000 683.00000,950.00000 687.00000,953.00000 C 690.00000,957.00000 687.00000,960.00000 680.00000,960.00000 C 673.00000,960.00000 670.00000,957.00000 673.00000,953.00000 z "
             id="path20" />
          <path
             d="M 380.00000,920.00000 C 380.00000,915.00000 385.00000,910.00000 391.00000,910.00000 C 396.00000,910.00000 398.00000,915.00000 395.00000,920.00000 C 392.00000,926.00000 387.00000,930.00000 384.00000,930.00000 C 382.00000,930.00000 380.00000,926.00000 380.00000,920.00000 z "
             id="path21" />
          <path
             d="M 600.00000,881.00000 C 563.00000,866.00000 500.00000,818.00000 500.00000,806.00000 C 500.00000,786.00000 540.00000,798.00000 541.00000,819.00000 C 541.00000,829.00000 543.00000,830.00000 547.00000,823.00000 C 554.00000,805.00000 570.00000,807.00000 570.00000,826.00000 C 570.00000,840.00000 572.00000,841.00000 587.00000,829.00000 C 602.00000,816.00000 603.00000,817.00000 598.00000,838.00000 C 593.00000,857.00000 595.00000,860.00000 611.00000,855.00000 C 624.00000,851.00000 630.00000,853.00000 630.00000,864.00000 C 630.00000,883.00000 619.00000,889.00000 600.00000,881.00000 z "
             id="path22" />
          <path
             d="M 470.00000,766.00000 C 470.00000,758.00000 474.00000,749.00000 479.00000,746.00000 C 484.00000,742.00000 486.00000,749.00000 483.00000,760.00000 C 477.00000,783.00000 470.00000,786.00000 470.00000,766.00000 z "
             id="path23" />
          <path
             d="M 510.00000,730.00000 C 510.00000,719.00000 515.00000,710.00000 520.00000,710.00000 C 526.00000,710.00000 530.00000,719.00000 530.00000,730.00000 C 530.00000,741.00000 526.00000,750.00000 520.00000,750.00000 C 515.00000,750.00000 510.00000,741.00000 510.00000,730.00000 z "
             id="path24" />
          <path
             d="M 551.00000,734.00000 C 551.00000,723.00000 554.00000,720.00000 557.00000,728.00000 C 560.00000,735.00000 559.00000,744.00000 556.00000,747.00000 C 553.00000,751.00000 550.00000,745.00000 551.00000,734.00000 z "
             id="path25" />
          <path
             d="M 485.00000,690.00000 C 485.00000,668.00000 488.00000,650.00000 492.00000,650.00000 C 497.00000,650.00000 500.00000,668.00000 500.00000,690.00000 C 500.00000,712.00000 497.00000,730.00000 492.00000,730.00000 C 488.00000,730.00000 485.00000,712.00000 485.00000,690.00000 z "
             id="path26" />
          <path
             d="M 510.00000,674.00000 C 510.00000,666.00000 515.00000,662.00000 520.00000,665.00000 C 526.00000,669.00000 528.00000,676.00000 525.00000,681.00000 C 516.00000,695.00000 510.00000,692.00000 510.00000,674.00000 z "
             id="path27" />
          <path
             d="M 497.00000,643.00000 C 485.00000,631.00000 490.00000,621.00000 505.00000,626.00000 C 513.00000,630.00000 520.00000,636.00000 520.00000,641.00000 C 520.00000,652.00000 506.00000,653.00000 497.00000,643.00000 z "
             id="path28" />
          <path
             d="M 495.00000,600.00000 C 492.00000,595.00000 494.00000,590.00000 499.00000,590.00000 C 505.00000,590.00000 510.00000,595.00000 510.00000,600.00000 C 510.00000,606.00000 508.00000,610.00000 506.00000,610.00000 C 503.00000,610.00000 498.00000,606.00000 495.00000,600.00000 z "
             id="path29" />
          <path
             d="M 437.00000,563.00000 C 419.00000,544.00000 411.00000,525.00000 412.00000,503.00000 C 413.00000,463.00000 419.00000,462.00000 450.00000,495.00000 C 463.00000,509.00000 468.00000,520.00000 462.00000,520.00000 C 455.00000,520.00000 456.00000,529.00000 466.00000,548.00000 C 492.00000,598.00000 478.00000,605.00000 437.00000,563.00000 z "
             id="path30" />
          <path
             d="M 523.00000,583.00000 C 527.00000,580.00000 533.00000,580.00000 537.00000,583.00000 C 540.00000,587.00000 537.00000,590.00000 530.00000,590.00000 C 523.00000,590.00000 520.00000,587.00000 523.00000,583.00000 z "
             id="path31" />
          <path
             d="M 493.00000,573.00000 C 497.00000,570.00000 503.00000,570.00000 507.00000,573.00000 C 510.00000,577.00000 507.00000,580.00000 500.00000,580.00000 C 493.00000,580.00000 490.00000,577.00000 493.00000,573.00000 z "
             id="path32" />
          <path
             d="M 488.00000,546.00000 C 478.00000,539.00000 470.00000,529.00000 470.00000,525.00000 C 470.00000,521.00000 478.00000,521.00000 488.00000,524.00000 C 497.00000,527.00000 490.00000,518.00000 472.00000,503.00000 C 454.00000,487.00000 440.00000,468.00000 440.00000,460.00000 C 440.00000,450.00000 449.00000,455.00000 466.00000,474.00000 C 488.00000,499.00000 494.00000,501.00000 515.00000,492.00000 C 530.00000,485.00000 541.00000,484.00000 545.00000,490.00000 C 551.00000,499.00000 537.00000,504.00000 518.00000,501.00000 C 510.00000,500.00000 506.00000,519.00000 507.00000,548.00000 C 508.00000,562.00000 509.00000,563.00000 488.00000,546.00000 z "
             id="path33" />
          <path
             d="M 545.00000,550.00000 C 548.00000,545.00000 553.00000,540.00000 556.00000,540.00000 C 558.00000,540.00000 560.00000,545.00000 560.00000,550.00000 C 560.00000,556.00000 555.00000,560.00000 549.00000,560.00000 C 544.00000,560.00000 542.00000,556.00000 545.00000,550.00000 z "
             id="path34" />
          <path
             d="M 520.00000,530.00000 C 520.00000,525.00000 525.00000,520.00000 530.00000,520.00000 C 536.00000,520.00000 540.00000,525.00000 540.00000,530.00000 C 540.00000,536.00000 536.00000,540.00000 530.00000,540.00000 C 525.00000,540.00000 520.00000,536.00000 520.00000,530.00000 z "
             id="path35" />
          <path
             d="M 550.00000,520.00000 C 550.00000,513.00000 553.00000,510.00000 557.00000,513.00000 C 560.00000,517.00000 560.00000,523.00000 557.00000,527.00000 C 553.00000,530.00000 550.00000,527.00000 550.00000,520.00000 z "
             id="path36" />
          <path
             d="M 579.00000,518.00000 C 579.00000,516.00000 577.00000,506.00000 575.00000,496.00000 C 571.00000,475.00000 550.00000,459.00000 538.00000,466.00000 C 534.00000,469.00000 530.00000,467.00000 530.00000,462.00000 C 530.00000,447.00000 556.00000,440.00000 569.00000,453.00000 C 577.00000,461.00000 580.00000,460.00000 580.00000,450.00000 C 581.00000,437.00000 582.00000,437.00000 589.00000,450.00000 C 594.00000,458.00000 601.00000,476.00000 605.00000,490.00000 C 612.00000,514.00000 612.00000,514.00000 597.00000,495.00000 C 581.00000,475.00000 581.00000,475.00000 587.00000,498.00000 C 590.00000,510.00000 590.00000,520.00000 586.00000,520.00000 C 583.00000,520.00000 580.00000,519.00000 579.00000,518.00000 z "
             id="path37" />
          <path
             d="M 660.00000,508.00000 C 660.00000,499.00000 653.00000,486.00000 644.00000,479.00000 C 629.00000,467.00000 628.00000,468.00000 634.00000,490.00000 L 641.00000,515.00000 L 626.00000,490.00000 C 605.00000,456.00000 606.00000,452.00000 634.00000,457.00000 C 657.00000,462.00000 679.00000,504.00000 665.00000,518.00000 C 662.00000,521.00000 660.00000,516.00000 660.00000,508.00000 z "
             id="path38" />
          <path
             d="M 690.00000,500.00000 C 690.00000,493.00000 693.00000,490.00000 697.00000,493.00000 C 700.00000,497.00000 700.00000,503.00000 697.00000,507.00000 C 693.00000,510.00000 690.00000,507.00000 690.00000,500.00000 z "
             id="path39" />
          <path
             d="M 482.00000,478.00000 C 476.00000,472.00000 470.00000,459.00000 470.00000,451.00000 C 470.00000,438.00000 472.00000,438.00000 486.00000,452.00000 C 495.00000,461.00000 501.00000,473.00000 499.00000,479.00000 C 496.00000,488.00000 491.00000,487.00000 482.00000,478.00000 z "
             id="path40" />
          <path
             d="M 780.00000,475.00000 C 780.00000,467.00000 785.00000,460.00000 790.00000,460.00000 C 796.00000,460.00000 800.00000,467.00000 800.00000,475.00000 C 800.00000,483.00000 796.00000,490.00000 790.00000,490.00000 C 785.00000,490.00000 780.00000,483.00000 780.00000,475.00000 z "
             id="path41" />
          <path
             d="M 873.00000,483.00000 C 877.00000,480.00000 883.00000,480.00000 887.00000,483.00000 C 890.00000,487.00000 887.00000,490.00000 880.00000,490.00000 C 873.00000,490.00000 870.00000,487.00000 873.00000,483.00000 z "
             id="path42" />
          <path
             d="M 675.00000,469.00000 C 665.00000,454.00000 678.00000,444.00000 691.00000,457.00000 C 698.00000,464.00000 698.00000,470.00000 692.00000,474.00000 C 686.00000,477.00000 678.00000,475.00000 675.00000,469.00000 z "
             id="path43" />
          <path
             d="M 506.00000,461.00000 C 502.00000,454.00000 501.00000,446.00000 504.00000,443.00000 C 513.00000,434.00000 523.00000,447.00000 518.00000,461.00000 C 514.00000,472.00000 512.00000,472.00000 506.00000,461.00000 z "
             id="path44" />
          <path
             d="M 733.00000,313.00000 C 737.00000,310.00000 743.00000,310.00000 747.00000,313.00000 C 750.00000,317.00000 747.00000,320.00000 740.00000,320.00000 C 733.00000,320.00000 730.00000,317.00000 733.00000,313.00000 z "
             id="path45" />
          <path
             d="M 553.00000,313.00000 C 557.00000,310.00000 563.00000,310.00000 567.00000,313.00000 C 570.00000,317.00000 567.00000,320.00000 560.00000,320.00000 C 553.00000,320.00000 550.00000,317.00000 553.00000,313.00000 z "
             id="path46" />
          <path
             d="M 894.00000,98.000000 C 890.00000,91.000000 891.00000,90.000000 898.00000,94.000000 C 905.00000,98.000000 910.00000,103.00000 910.00000,106.00000 C 910.00000,114.00000 901.00000,110.00000 894.00000,98.000000 z "
             id="path47" />
          <path
             d="M 500.00000,125.00000 C 507.00000,116.00000 515.00000,112.00000 517.00000,114.00000 C 524.00000,121.00000 510.00000,140.00000 498.00000,140.00000 C 492.00000,140.00000 492.00000,134.00000 500.00000,125.00000 z "
             id="path48" />
          <path
             d="M 534.00000,125.00000 C 530.00000,116.00000 530.00000,106.00000 534.00000,103.00000 C 537.00000,99.000000 540.00000,105.00000 540.00000,116.00000 C 540.00000,132.00000 542.00000,133.00000 550.00000,120.00000 C 556.00000,111.00000 560.00000,110.00000 560.00000,117.00000 C 560.00000,136.00000 540.00000,143.00000 534.00000,125.00000 z "
             id="path49" />
          <path
             d="M 1177.0000,64.000000 C 1163.0000,50.000000 1171.0000,39.000000 1193.0000,42.000000 C 1205.0000,44.000000 1215.0000,50.000000 1214.0000,55.000000 C 1213.0000,67.000000 1187.0000,73.000000 1177.0000,64.000000 z "
             id="path50" />
          <path
             d="M 1276.0000,63.000000 C 1264.0000,51.000000 1271.0000,40.000000 1290.0000,40.000000 C 1301.0000,40.000000 1310.0000,44.000000 1310.0000,49.000000 C 1310.0000,60.000000 1284.0000,71.000000 1276.0000,63.000000 z "
             id="path51" />
          <path
             d="M 1347.0000,63.000000 C 1343.0000,60.000000 1340.0000,52.000000 1340.0000,46.000000 C 1340.0000,40.000000 1345.0000,41.000000 1352.0000,48.000000 C 1358.0000,54.000000 1361.0000,62.000000 1359.0000,65.000000 C 1356.0000,68.000000 1350.0000,67.000000 1347.0000,63.000000 z "
             id="path52" />
          <path
             d="M 105.00000,50.000000 C 102.00000,45.000000 106.00000,40.000000 114.00000,40.000000 C 123.00000,40.000000 130.00000,45.000000 130.00000,50.000000 C 130.00000,56.000000 126.00000,60.000000 121.00000,60.000000 C 115.00000,60.000000 108.00000,56.000000 105.00000,50.000000 z "
             id="path53" />
          <path
             d="M 20.000000,20.000000 C 20.000000,15.000000 25.000000,10.000000 30.000000,10.000000 C 36.000000,10.000000 40.000000,15.000000 40.000000,20.000000 C 40.000000,26.000000 36.000000,30.000000 30.000000,30.000000 C 25.000000,30.000000 20.000000,26.000000 20.000000,20.000000 z "
             id="path54" />
          <path
             d="M 60.000000,20.000000 C 60.000000,15.000000 65.000000,10.000000 70.000000,10.000000 C 76.000000,10.000000 80.000000,15.000000 80.000000,20.000000 C 80.000000,26.000000 76.000000,30.000000 70.000000,30.000000 C 65.000000,30.000000 60.000000,26.000000 60.000000,20.000000 z "
             id="path55" />
          <path
             d="M 100.00000,20.000000 C 100.00000,15.000000 109.00000,10.000000 119.00000,10.000000 C 130.00000,10.000000 142.00000,15.000000 145.00000,20.000000 C 149.00000,26.000000 140.00000,30.000000 126.00000,30.000000 C 112.00000,30.000000 100.00000,26.000000 100.00000,20.000000 z "
             id="path56" />
        </g>
        <path
           d="M 195.44208,609.72593 C 191.77755,614.61198 197.03137,616.41288 210.91458,619.49803 C 225.57273,622.75540 219.92361,636.43577 231.27313,622.75539 C 242.21762,609.56322 199.41904,604.42332 195.44208,609.72593 z "
           id="path1587"
           style="fill:#cc9933;fill-opacity:1.0000000;fill-rule:evenodd;stroke:none;stroke-width:1.0000000pt;stroke-linecap:butt;stroke-linejoin:miter;stroke-opacity:1.0000000" />
        <path
           d="M 271.66364,600.44400 C 267.99911,605.33005 267.64438,605.00086 280.62140,610.21610 C 293.29770,615.31049 289.63043,628.78252 300.97995,615.10214 C 306.45220,608.50606 298.96774,595.25140 291.91734,602.46621 C 286.97469,607.52412 273.65212,597.79269 271.66364,600.44400 z "
           id="path1589"
           style="fill:#cc9933;fill-opacity:1.0000000;fill-rule:evenodd;stroke:none;stroke-width:1.0000000pt;stroke-linecap:butt;stroke-linejoin:miter;stroke-opacity:1.0000000" />
        <path
           d="M 211.72893,611.35461 C 212.18817,617.44695 228.71595,625.18313 229.64445,618.68368 C 230.45880,612.98329 211.33069,606.07166 211.72893,611.35461 z "
           id="path1590"
           style="fill:#ffffff;fill-opacity:1.0000000;fill-rule:evenodd;stroke:none;stroke-width:1.0000000pt;stroke-linecap:butt;stroke-linejoin:miter;stroke-opacity:1.0000000" />
        <path
           d="M 293.96789,604.14341 C 298.53475,598.80174 305.41937,610.65813 298.85394,614.72984 C 292.62543,618.59261 289.01178,609.94037 293.96789,604.14341 z "
           id="path1591"
           style="fill:#ffffff;fill-opacity:1.0000000;fill-rule:evenodd;stroke:none;stroke-width:1.0000000pt;stroke-linecap:butt;stroke-linejoin:miter;stroke-opacity:1.0000000" />
        <path
           d="M 260.58944,90.175724 C 255.70339,94.247434 262.61716,125.60775 272.80457,115.42033 C 282.57668,105.64823 265.97101,85.691082 260.58944,90.175724 z "
           id="path1592"
           style="fill:#ffffcc;fill-opacity:1.0000000;fill-rule:evenodd;stroke:none;stroke-width:1.0000000pt;stroke-linecap:butt;stroke-linejoin:miter;stroke-opacity:1.0000000" />
      </g>
      <text
         transform="matrix(0.981718,0.190343,-0.190343,0.981718,0.000000,0.000000)"
         id="text1631"
         y="270.65872"
         x="181.70844"
         style="font-size:12.000023px;font-style:normal;font-weight:normal;fill:#000000;fill-opacity:1.0000000;stroke:none;stroke-width:1.0000000px;stroke-linecap:butt;stroke-linejoin:miter;stroke-opacity:1.0000000;font-family:Bitstream Vera Sans"
         xml:space="preserve"><tspan
           y="270.65872"
           x="181.70844"
           id="tspan1633"
           sodipodi:role="line">horizon</tspan></text>
      <text
         id="text6340"
         y="201.27718"
         x="380.42346"
         style="font-size:12.000000px;font-style:normal;font-weight:normal;fill:#000000;fill-opacity:1.0000000;stroke:none;stroke-width:1.0000000px;stroke-linecap:butt;stroke-linejoin:miter;stroke-opacity:1.0000000;font-family:Bitstream Vera Sans"
         xml:space="preserve"><tspan
           y="201.27718"
           x="380.42346"
           id="tspan6342"
           sodipodi:role="line">altitude</tspan></text>
    </g>
  </g>
</svg>
